{"glyphs":{"a":{"x_min":0,"x_max":380,"ha":380,"o":"m 236 219 q 238 222 248 224 q 259 225 271 225 q 282 224 291 222 q 301 221 299 217 q 297 214 287 199 q 278 183 265 162 q 253 141 240 116 q 228 92 219 71 q 211 51 209 36 q 208 21 217 19 q 233 14 253 24 q 273 34 298 61 q 324 88 355 132 q 386 177 424 241 q 431 246 434 241 q 437 237 433 231 q 421 211 405 185 q 390 159 372 133 q 355 106 336 81 q 316 55 295 36 q 274 17 252 6 q 230 -5 208 -3 q 178 0 168 15 q 157 31 160 54 l 162 65 q 153 54 143 43 q 133 32 121 22 q 110 13 98 6 q 85 -2 71 -4 q 43 -8 25 -2 q 7 4 -4 18 q -14 31 -17 50 q -21 68 -19 90 q -17 111 -11 134 q -4 156 4 177 q 18 211 41 244 q 64 277 92 303 q 121 329 154 344 q 187 359 223 356 q 239 354 251 345 q 264 336 271 321 q 279 307 280 290 q 282 273 276 256 q 274 249 269 249 q 264 249 262 256 q 264 268 264 279 q 264 291 259 300 q 255 309 246 315 q 237 321 223 321 q 202 321 179 306 q 157 291 137 268 q 117 246 99 218 q 82 191 71 166 q 65 153 59 136 q 53 120 49 103 q 44 87 42 71 q 41 56 43 43 q 46 31 53 24 q 60 16 74 16 q 84 16 96 22 q 107 28 118 38 q 129 47 140 60 q 151 73 160 87 q 163 92 169 103 q 176 113 183 126 q 190 139 198 154 q 206 168 213 181 q 220 194 226 204 q 232 214 236 219 z"},"L":{"x_min":0,"x_max":823,"ha":823,"o":"m 909 836 q 923 836 932 831 q 942 827 948 819 q 953 812 955 802 q 956 792 954 782 q 947 758 930 728 q 913 698 887 666 q 861 633 827 601 q 793 568 751 539 q 710 511 662 487 q 614 463 561 449 q 521 386 484 327 q 446 267 412 214 q 378 161 346 116 q 314 71 286 37 q 324 17 356 -1 q 389 -18 417 -30 q 444 -42 468 -48 q 491 -53 511 -51 q 557 -46 595 -30 q 633 -14 665 9 q 697 32 724 61 q 752 89 776 120 q 800 150 822 180 q 845 211 867 237 q 875 247 878 243 q 881 239 874 229 q 872 227 862 212 q 853 197 836 174 q 820 152 798 123 q 775 94 749 65 q 722 35 692 6 q 662 -23 631 -46 q 599 -70 567 -86 q 534 -102 503 -106 q 470 -104 436 -95 q 402 -85 369 -71 q 336 -56 304 -38 q 273 -21 247 -4 q 164 -85 96 -89 q 85 -90 70 -87 q 56 -84 42 -77 q 29 -69 20 -57 q 10 -44 9 -26 q 8 -13 18 7 q 27 26 45 44 q 63 62 91 75 q 118 88 153 88 q 160 88 171 85 q 181 83 193 79 q 206 74 218 69 q 231 64 242 58 q 274 102 304 148 q 333 194 362 241 q 391 288 419 336 q 447 383 476 431 q 456 431 436 431 q 416 430 396 430 q 376 430 354 431 q 333 432 311 436 q 299 438 288 446 q 278 455 270 467 q 262 479 257 492 q 253 505 253 515 q 253 521 257 524 q 261 528 267 527 q 331 509 393 503 q 456 498 523 503 q 567 570 613 630 q 659 691 708 736 q 756 782 806 809 q 856 836 909 836 z m 892 809 q 861 804 827 779 q 793 755 757 716 q 722 678 684 628 q 647 577 609 520 q 661 538 705 562 q 749 587 784 613 q 819 639 845 666 q 872 693 889 715 q 907 738 917 754 q 926 771 927 778 q 929 789 926 796 q 922 802 917 806 q 912 809 905 810 q 898 811 893 809 z m 91 -66 q 118 -62 147 -41 q 176 -19 208 17 q 184 31 166 39 q 147 48 131 49 q 117 49 99 44 q 82 39 68 30 q 53 21 43 8 q 33 -6 33 -23 q 33 -31 36 -39 q 39 -47 46 -53 q 53 -59 64 -63 q 75 -67 91 -66 z"},"3":{"x_min":0,"x_max":1219,"ha":1219,"o":"m 876 781 l 739 657 l 775 471 l 615 565 l 450 471 l 489 652 l 351 781 l 537 801 l 615 972 l 690 802 z m 682 576 l 639 834 l 586 834 l 541 576 l 564 562 l 583 576 l 592 634 l 631 634 l 642 576 l 663 562 z m 628 672 l 598 672 l 612 774 z m 610 21 l 631 21 l 624 39 q 622 42 622 44 q 622 46 619 49 q 619 45 616 39 z m 352 -5 l 352 3 l 363 3 l 363 -5 z m 844 -5 l 844 58 l 852 58 l 852 1 l 883 1 l 883 -5 z m 787 -5 l 787 58 l 832 58 l 832 49 l 795 49 l 795 30 l 829 30 l 829 22 l 795 22 l 795 1 l 832 1 l 832 -5 z m 565 -5 l 565 21 l 541 58 l 552 58 l 564 39 q 567 30 570 28 q 571 30 572 33 q 574 36 577 39 l 589 58 l 598 58 l 573 21 l 573 -5 z m 376 -5 l 376 58 l 400 58 q 403 58 405 56 q 408 55 409 55 q 415 54 417 49 q 420 46 420 40 q 420 36 417 34 q 415 28 411 28 q 415 27 420 22 q 423 16 423 13 q 423 10 422 9 q 421 7 421 6 q 420 0 415 0 q 414 -3 412 -3 q 411 -3 409 -5 l 400 -5 z m 205 -5 l 187 58 l 196 58 l 205 16 q 207 12 207 9 q 207 6 208 3 q 210 10 210 15 l 222 58 l 232 58 l 241 25 q 243 18 244 13 q 246 9 246 3 q 247 6 247 9 q 247 12 249 16 l 259 58 l 267 58 l 249 -5 l 241 -5 l 229 42 q 228 46 228 49 q 226 46 226 42 l 213 -5 z m 123 -5 l 105 58 l 115 58 l 123 16 q 123 9 127 3 q 129 10 129 15 l 141 58 l 150 58 l 160 25 q 162 18 162 13 q 163 9 163 3 q 166 6 166 9 q 166 12 168 16 l 177 58 l 186 58 l 168 -5 l 160 -5 l 148 42 q 147 46 147 49 q 144 46 144 42 l 130 -5 z m 384 30 l 397 30 q 403 30 405 33 q 409 33 409 34 q 411 36 411 40 q 411 45 409 46 l 408 46 q 406 46 406 47 q 406 48 405 48 q 403 49 396 49 l 384 49 z m 285 -5 l 268 58 l 277 58 l 286 16 q 288 12 288 9 q 288 6 291 3 q 291 9 292 11 q 292 13 292 15 l 304 58 l 313 58 l 324 25 q 325 18 326 13 q 327 9 327 3 q 330 6 330 9 q 330 12 331 16 l 342 58 l 349 58 l 331 -5 l 324 -5 l 312 42 q 310 46 310 49 q 307 46 307 42 l 294 -5 z m 664 28 l 682 28 q 685 28 688 29 q 690 30 693 30 q 696 30 696 34 q 697 36 697 40 q 697 45 694 48 q 693 49 684 49 l 664 49 z m 384 1 l 400 1 q 403 1 405 3 l 409 3 q 411 6 414 7 l 414 13 q 414 16 411 19 q 411 22 408 22 l 397 22 l 384 22 z m 435 -5 l 435 58 l 442 58 l 442 -5 z m 985 25 q 985 12 990 7 q 996 1 1006 1 q 1017 1 1021 7 q 1027 12 1027 27 q 1027 34 1026 39 q 1023 46 1018 48 q 1014 49 1006 49 q 997 49 993 45 q 985 39 985 25 z m 976 25 q 976 42 985 49 q 991 58 1006 58 q 1011 58 1014 56 q 1018 55 1021 54 q 1026 52 1028 49 q 1030 46 1033 42 q 1035 39 1035 27 q 1035 13 1032 9 q 1027 1 1021 -3 q 1015 -6 1006 -6 q 1002 -6 998 -6 q 994 -5 990 -3 q 987 0 985 3 q 982 6 981 9 q 979 13 978 17 q 976 21 976 25 z m 592 -5 l 616 58 l 625 58 l 651 -5 l 642 -5 l 634 13 l 609 13 l 600 -5 z m 459 -5 l 459 58 l 466 58 l 466 1 l 495 1 l 495 -5 z m 892 -5 l 892 3 l 903 3 l 903 -5 z m 748 19 l 748 27 l 774 27 l 774 3 q 768 -3 762 -5 q 759 -5 755 -6 q 751 -6 748 -6 q 739 -6 733 -3 q 729 0 726 2 q 723 4 721 9 q 720 13 719 17 q 717 21 717 25 q 717 31 719 34 q 720 37 721 42 q 724 51 732 54 q 735 55 739 56 q 744 58 748 58 q 756 58 760 55 q 766 54 768 49 q 772 45 774 40 l 766 39 q 766 40 762 45 q 762 48 756 49 l 748 49 l 739 49 q 735 48 732 45 q 732 43 727 39 q 727 36 727 33 q 726 30 726 27 q 726 16 729 13 q 735 4 736 3 q 741 1 748 1 q 754 1 759 3 q 762 6 764 6 q 765 6 766 7 l 766 19 z m 657 -5 l 657 58 l 684 58 q 688 58 691 56 q 694 55 697 55 q 702 54 703 49 q 706 46 706 40 q 706 33 702 28 q 700 27 696 26 q 693 25 688 22 q 691 22 692 22 q 693 21 694 21 q 696 18 697 15 q 697 13 700 10 l 712 -5 l 702 -5 l 693 7 q 690 10 689 12 q 688 15 687 16 q 687 19 686 19 q 684 19 682 21 l 681 21 q 679 21 679 22 q 679 22 678 22 l 675 22 l 664 22 l 664 -5 z m 505 -5 l 505 58 l 514 58 l 514 1 l 544 1 l 544 -5 z m 961 16 l 969 15 q 966 3 960 0 q 954 -6 943 -6 q 934 -6 928 -3 q 924 0 922 3 q 921 6 918 9 q 915 21 915 27 q 915 33 918 45 q 925 52 928 54 q 933 55 936 56 q 939 58 943 58 q 948 58 952 56 q 957 55 960 54 q 963 51 965 48 q 967 45 969 40 l 960 39 q 960 45 954 48 q 951 49 943 49 q 934 49 931 48 q 928 46 928 44 q 927 42 924 39 q 924 36 923 33 q 922 30 922 27 q 922 18 927 13 q 927 10 929 8 q 930 6 931 3 q 936 1 943 1 q 951 1 955 6 q 960 10 961 16 z m 1047 -5 l 1047 58 l 1059 58 l 1074 13 q 1074 10 1076 8 q 1077 6 1077 3 q 1077 4 1080 13 l 1093 58 l 1105 58 l 1105 -5 l 1098 -5 l 1098 46 l 1080 -5 l 1072 -5 l 1054 48 l 1054 -5 z m 610 21 l 631 21 l 624 39 q 622 42 622 44 q 622 46 619 49 q 619 45 616 39 z m 352 -5 l 352 3 l 363 3 l 363 -5 z m 844 -5 l 844 58 l 852 58 l 852 1 l 883 1 l 883 -5 z m 787 -5 l 787 58 l 832 58 l 832 49 l 795 49 l 795 30 l 829 30 l 829 22 l 795 22 l 795 1 l 832 1 l 832 -5 z m 565 -5 l 565 21 l 541 58 l 552 58 l 564 39 q 567 30 570 28 q 571 30 572 33 q 574 36 577 39 l 589 58 l 598 58 l 573 21 l 573 -5 z m 376 -5 l 376 58 l 400 58 q 403 58 405 56 q 408 55 409 55 q 415 54 417 49 q 420 46 420 40 q 420 36 417 34 q 415 28 411 28 q 415 27 420 22 q 423 16 423 13 q 423 10 422 9 q 421 7 421 6 q 420 0 415 0 q 414 -3 412 -3 q 411 -3 409 -5 l 400 -5 z m 205 -5 l 187 58 l 196 58 l 205 16 q 207 12 207 9 q 207 6 208 3 q 210 10 210 15 l 222 58 l 232 58 l 241 25 q 243 18 244 13 q 246 9 246 3 q 247 6 247 9 q 247 12 249 16 l 259 58 l 267 58 l 249 -5 l 241 -5 l 229 42 q 228 46 228 49 q 226 46 226 42 l 213 -5 z m 123 -5 l 105 58 l 115 58 l 123 16 q 123 9 127 3 q 129 10 129 15 l 141 58 l 150 58 l 160 25 q 162 18 162 13 q 163 9 163 3 q 166 6 166 9 q 166 12 168 16 l 177 58 l 186 58 l 168 -5 l 160 -5 l 148 42 q 147 46 147 49 q 144 46 144 42 l 130 -5 z m 384 30 l 397 30 q 403 30 405 33 q 409 33 409 34 q 411 36 411 40 q 411 45 409 46 l 408 46 q 406 46 406 47 q 406 48 405 48 q 403 49 396 49 l 384 49 z m 285 -5 l 268 58 l 277 58 l 286 16 q 288 12 288 9 q 288 6 291 3 q 291 9 292 11 q 292 13 292 15 l 304 58 l 313 58 l 324 25 q 325 18 326 13 q 327 9 327 3 q 330 6 330 9 q 330 12 331 16 l 342 58 l 349 58 l 331 -5 l 324 -5 l 312 42 q 310 46 310 49 q 307 46 307 42 l 294 -5 z m 664 28 l 682 28 q 685 28 688 29 q 690 30 693 30 q 696 30 696 34 q 697 36 697 40 q 697 45 694 48 q 693 49 684 49 l 664 49 z m 384 1 l 400 1 q 403 1 405 3 l 409 3 q 411 6 414 7 l 414 13 q 414 16 411 19 q 411 22 408 22 l 397 22 l 384 22 z m 435 -5 l 435 58 l 442 58 l 442 -5 z m 985 25 q 985 12 990 7 q 996 1 1006 1 q 1017 1 1021 7 q 1027 12 1027 27 q 1027 34 1026 39 q 1023 46 1018 48 q 1014 49 1006 49 q 997 49 993 45 q 985 39 985 25 z m 976 25 q 976 42 985 49 q 991 58 1006 58 q 1011 58 1014 56 q 1018 55 1021 54 q 1026 52 1028 49 q 1030 46 1033 42 q 1035 39 1035 27 q 1035 13 1032 9 q 1027 1 1021 -3 q 1015 -6 1006 -6 q 1002 -6 998 -6 q 994 -5 990 -3 q 987 0 985 3 q 982 6 981 9 q 979 13 978 17 q 976 21 976 25 z m 592 -5 l 616 58 l 625 58 l 651 -5 l 642 -5 l 634 13 l 609 13 l 600 -5 z m 459 -5 l 459 58 l 466 58 l 466 1 l 495 1 l 495 -5 z m 892 -5 l 892 3 l 903 3 l 903 -5 z m 748 19 l 748 27 l 774 27 l 774 3 q 768 -3 762 -5 q 759 -5 755 -6 q 751 -6 748 -6 q 739 -6 733 -3 q 729 0 726 2 q 723 4 721 9 q 720 13 719 17 q 717 21 717 25 q 717 31 719 34 q 720 37 721 42 q 724 51 732 54 q 735 55 739 56 q 744 58 748 58 q 756 58 760 55 q 766 54 768 49 q 772 45 774 40 l 766 39 q 766 40 762 45 q 762 48 756 49 l 748 49 l 739 49 q 735 48 732 45 q 732 43 727 39 q 727 36 727 33 q 726 30 726 27 q 726 16 729 13 q 735 4 736 3 q 741 1 748 1 q 754 1 759 3 q 762 6 764 6 q 765 6 766 7 l 766 19 z m 657 -5 l 657 58 l 684 58 q 688 58 691 56 q 694 55 697 55 q 702 54 703 49 q 706 46 706 40 q 706 33 702 28 q 700 27 696 26 q 693 25 688 22 q 691 22 692 22 q 693 21 694 21 q 696 18 697 15 q 697 13 700 10 l 712 -5 l 702 -5 l 693 7 q 690 10 689 12 q 688 15 687 16 q 687 19 686 19 q 684 19 682 21 l 681 21 q 679 21 679 22 q 679 22 678 22 l 675 22 l 664 22 l 664 -5 z m 505 -5 l 505 58 l 514 58 l 514 1 l 544 1 l 544 -5 z m 961 16 l 969 15 q 966 3 960 0 q 954 -6 943 -6 q 934 -6 928 -3 q 924 0 922 3 q 921 6 918 9 q 915 21 915 27 q 915 33 918 45 q 925 52 928 54 q 933 55 936 56 q 939 58 943 58 q 948 58 952 56 q 957 55 960 54 q 963 51 965 48 q 967 45 969 40 l 960 39 q 960 45 954 48 q 951 49 943 49 q 934 49 931 48 q 928 46 928 44 q 927 42 924 39 q 924 36 923 33 q 922 30 922 27 q 922 18 927 13 q 927 10 929 8 q 930 6 931 3 q 936 1 943 1 q 951 1 955 6 q 960 10 961 16 z m 1047 -5 l 1047 58 l 1059 58 l 1074 13 q 1074 10 1076 8 q 1077 6 1077 3 q 1077 4 1080 13 l 1093 58 l 1105 58 l 1105 -5 l 1098 -5 l 1098 46 l 1080 -5 l 1072 -5 l 1054 48 l 1054 -5 z m 610 21 l 631 21 l 624 39 q 622 42 622 44 q 622 46 619 49 q 619 45 616 39 z m 352 -5 l 352 3 l 363 3 l 363 -5 z m 844 -5 l 844 58 l 852 58 l 852 1 l 883 1 l 883 -5 z m 787 -5 l 787 58 l 832 58 l 832 49 l 795 49 l 795 30 l 829 30 l 829 22 l 795 22 l 795 1 l 832 1 l 832 -5 z m 565 -5 l 565 21 l 541 58 l 552 58 l 564 39 q 567 30 570 28 q 571 30 572 33 q 574 36 577 39 l 589 58 l 598 58 l 573 21 l 573 -5 z m 376 -5 l 376 58 l 400 58 q 403 58 405 56 q 408 55 409 55 q 415 54 417 49 q 420 46 420 40 q 420 36 417 34 q 415 28 411 28 q 415 27 420 22 q 423 16 423 13 q 423 10 422 9 q 421 7 421 6 q 420 0 415 0 q 414 -3 412 -3 q 411 -3 409 -5 l 400 -5 z m 205 -5 l 187 58 l 196 58 l 205 16 q 207 12 207 9 q 207 6 208 3 q 210 10 210 15 l 222 58 l 232 58 l 241 25 q 243 18 244 13 q 246 9 246 3 q 247 6 247 9 q 247 12 249 16 l 259 58 l 267 58 l 249 -5 l 241 -5 l 229 42 q 228 46 228 49 q 226 46 226 42 l 213 -5 z m 123 -5 l 105 58 l 115 58 l 123 16 q 123 9 127 3 q 129 10 129 15 l 141 58 l 150 58 l 160 25 q 162 18 162 13 q 163 9 163 3 q 166 6 166 9 q 166 12 168 16 l 177 58 l 186 58 l 168 -5 l 160 -5 l 148 42 q 147 46 147 49 q 144 46 144 42 l 130 -5 z m 384 30 l 397 30 q 403 30 405 33 q 409 33 409 34 q 411 36 411 40 q 411 45 409 46 l 408 46 q 406 46 406 47 q 406 48 405 48 q 403 49 396 49 l 384 49 z m 285 -5 l 268 58 l 277 58 l 286 16 q 288 12 288 9 q 288 6 291 3 q 291 9 292 11 q 292 13 292 15 l 304 58 l 313 58 l 324 25 q 325 18 326 13 q 327 9 327 3 q 330 6 330 9 q 330 12 331 16 l 342 58 l 349 58 l 331 -5 l 324 -5 l 312 42 q 310 46 310 49 q 307 46 307 42 l 294 -5 z m 664 28 l 682 28 q 685 28 688 29 q 690 30 693 30 q 696 30 696 34 q 697 36 697 40 q 697 45 694 48 q 693 49 684 49 l 664 49 z m 384 1 l 400 1 q 403 1 405 3 l 409 3 q 411 6 414 7 l 414 13 q 414 16 411 19 q 411 22 408 22 l 397 22 l 384 22 z m 435 -5 l 435 58 l 442 58 l 442 -5 z m 985 25 q 985 12 990 7 q 996 1 1006 1 q 1017 1 1021 7 q 1027 12 1027 27 q 1027 34 1026 39 q 1023 46 1018 48 q 1014 49 1006 49 q 997 49 993 45 q 985 39 985 25 z m 976 25 q 976 42 985 49 q 991 58 1006 58 q 1011 58 1014 56 q 1018 55 1021 54 q 1026 52 1028 49 q 1030 46 1033 42 q 1035 39 1035 27 q 1035 13 1032 9 q 1027 1 1021 -3 q 1015 -6 1006 -6 q 1002 -6 998 -6 q 994 -5 990 -3 q 987 0 985 3 q 982 6 981 9 q 979 13 978 17 q 976 21 976 25 z m 592 -5 l 616 58 l 625 58 l 651 -5 l 642 -5 l 634 13 l 609 13 l 600 -5 z m 459 -5 l 459 58 l 466 58 l 466 1 l 495 1 l 495 -5 z m 892 -5 l 892 3 l 903 3 l 903 -5 z m 748 19 l 748 27 l 774 27 l 774 3 q 768 -3 762 -5 q 759 -5 755 -6 q 751 -6 748 -6 q 739 -6 733 -3 q 729 0 726 2 q 723 4 721 9 q 720 13 719 17 q 717 21 717 25 q 717 31 719 34 q 720 37 721 42 q 724 51 732 54 q 735 55 739 56 q 744 58 748 58 q 756 58 760 55 q 766 54 768 49 q 772 45 774 40 l 766 39 q 766 40 762 45 q 762 48 756 49 l 748 49 l 739 49 q 735 48 732 45 q 732 43 727 39 q 727 36 727 33 q 726 30 726 27 q 726 16 729 13 q 735 4 736 3 q 741 1 748 1 q 754 1 759 3 q 762 6 764 6 q 765 6 766 7 l 766 19 z m 657 -5 l 657 58 l 684 58 q 688 58 691 56 q 694 55 697 55 q 702 54 703 49 q 706 46 706 40 q 706 33 702 28 q 700 27 696 26 q 693 25 688 22 q 691 22 692 22 q 693 21 694 21 q 696 18 697 15 q 697 13 700 10 l 712 -5 l 702 -5 l 693 7 q 690 10 689 12 q 688 15 687 16 q 687 19 686 19 q 684 19 682 21 l 681 21 q 679 21 679 22 q 679 22 678 22 l 675 22 l 664 22 l 664 -5 z m 505 -5 l 505 58 l 514 58 l 514 1 l 544 1 l 544 -5 z m 961 16 l 969 15 q 966 3 960 0 q 954 -6 943 -6 q 934 -6 928 -3 q 924 0 922 3 q 921 6 918 9 q 915 21 915 27 q 915 33 918 45 q 925 52 928 54 q 933 55 936 56 q 939 58 943 58 q 948 58 952 56 q 957 55 960 54 q 963 51 965 48 q 967 45 969 40 l 960 39 q 960 45 954 48 q 951 49 943 49 q 934 49 931 48 q 928 46 928 44 q 927 42 924 39 q 924 36 923 33 q 922 30 922 27 q 922 18 927 13 q 927 10 929 8 q 930 6 931 3 q 936 1 943 1 q 951 1 955 6 q 960 10 961 16 z m 1047 -5 l 1047 58 l 1059 58 l 1074 13 q 1074 10 1076 8 q 1077 6 1077 3 q 1077 4 1080 13 l 1093 58 l 1105 58 l 1105 -5 l 1098 -5 l 1098 46 l 1080 -5 l 1072 -5 l 1054 48 l 1054 -5 z m 175 111 l 187 106 q 184 93 174 84 q 162 75 148 75 q 135 75 123 81 q 111 90 109 99 q 103 109 103 124 q 103 141 109 151 q 114 162 124 166 q 135 172 148 172 q 165 172 171 165 q 181 162 186 145 l 174 144 q 168 156 163 157 q 157 163 148 163 q 136 163 130 157 q 121 151 118 144 q 117 138 117 124 q 117 111 121 105 q 124 94 130 91 q 138 85 147 85 q 159 85 166 93 q 169 96 171 101 q 174 105 175 111 z m 199 123 q 199 135 202 144 q 205 153 213 159 q 219 166 227 169 q 235 172 244 172 q 258 172 268 166 q 277 162 285 150 q 291 135 291 124 q 291 117 289 111 q 288 105 285 99 q 277 87 267 81 q 255 75 244 75 q 237 75 232 76 q 226 78 220 81 q 210 87 205 99 q 199 109 199 123 z m 213 123 q 213 105 220 94 q 231 85 244 85 q 259 85 267 97 q 277 108 277 124 q 277 130 276 134 q 274 139 273 144 q 270 154 261 157 q 256 163 244 163 q 232 163 222 153 q 213 145 213 123 z m 306 78 l 306 171 l 324 171 l 346 105 q 351 96 351 91 q 354 94 357 106 l 381 171 l 396 171 l 396 78 l 384 78 l 384 156 l 357 78 l 345 78 l 318 157 l 318 78 z m 417 78 l 417 171 l 453 171 l 466 171 q 474 171 478 166 q 480 165 486 157 q 487 154 488 151 q 489 148 489 144 q 489 135 481 124 q 474 117 453 117 l 429 117 l 429 78 z m 429 126 l 454 126 q 468 126 469 132 q 475 133 475 144 q 475 151 474 153 q 468 159 463 159 q 462 162 453 162 l 429 162 z m 505 78 l 505 171 l 517 171 l 517 87 l 564 87 l 564 78 z m 579 78 l 579 171 l 648 171 l 648 162 l 591 162 l 591 132 l 643 132 l 643 120 l 591 120 l 591 87 l 649 87 l 649 78 z m 690 78 l 690 162 l 658 162 l 658 171 l 735 171 l 735 162 l 703 162 l 703 78 z m 748 78 l 748 171 l 817 171 l 817 162 l 760 162 l 760 132 l 813 132 l 813 120 l 760 120 l 760 87 l 819 87 l 819 78 z m 870 106 l 882 108 q 882 100 885 97 q 888 91 895 88 q 898 87 909 87 q 912 87 916 87 q 919 87 922 88 q 927 88 930 94 q 931 97 931 103 q 931 108 930 111 q 928 112 926 113 q 924 114 921 117 q 919 117 904 120 q 897 123 892 123 q 888 124 885 126 q 879 129 876 136 q 873 138 872 141 q 871 144 871 147 q 871 156 877 162 q 879 165 882 166 q 885 168 889 171 q 892 172 907 172 q 918 172 924 169 q 928 166 931 164 q 934 163 936 159 q 942 154 942 145 l 930 144 q 927 156 922 157 q 918 162 907 162 q 892 162 889 157 q 885 153 885 147 q 885 142 889 139 q 889 139 907 132 q 915 130 920 129 q 925 127 928 126 q 933 124 935 122 q 937 120 940 117 q 943 112 943 103 q 943 93 940 88 q 934 82 928 79 q 924 78 919 76 q 915 75 909 75 q 903 75 897 76 q 891 78 888 79 q 880 81 873 91 q 870 97 870 106 z m 961 78 l 961 171 l 1029 171 l 1029 162 l 975 162 l 975 132 l 1027 132 l 1027 120 l 975 120 l 975 87 l 1032 87 l 1032 78 z m 1074 78 l 1074 162 l 1044 162 l 1044 171 l 1117 171 l 1117 162 l 1086 162 l 1086 78 z m 112 190 l 112 283 l 150 283 l 163 283 q 166 283 175 280 q 177 279 179 276 q 181 273 183 270 q 186 267 186 259 q 186 246 177 237 q 172 229 150 229 l 127 229 l 127 190 z m 127 241 l 150 241 q 163 241 168 244 q 174 250 174 256 q 174 259 172 262 q 171 265 169 268 q 165 273 162 273 q 160 274 150 274 l 127 274 z m 201 190 l 201 283 l 268 283 l 268 274 l 214 274 l 214 244 l 265 244 l 265 234 l 214 234 l 214 202 l 271 202 l 271 190 z m 288 190 l 288 283 l 331 283 q 345 283 351 282 q 358 279 361 274 q 364 262 364 259 q 364 249 358 243 q 352 237 337 234 q 340 231 341 231 q 343 231 345 229 q 352 222 355 216 l 372 190 l 357 190 l 343 210 q 342 214 340 217 q 337 220 336 223 q 333 225 332 227 q 331 229 330 229 q 327 231 324 231 q 322 234 316 234 l 303 234 l 303 190 z m 303 243 l 327 243 q 339 243 342 244 q 346 249 349 250 q 351 253 351 259 q 351 265 346 270 q 342 274 331 274 l 303 274 z m 381 222 l 391 222 q 391 219 392 216 q 394 213 396 210 q 397 208 400 206 q 402 204 405 204 q 414 201 420 201 q 423 201 426 201 q 429 201 430 202 q 439 205 441 208 q 441 210 442 212 q 442 214 442 216 q 442 222 441 223 q 436 226 430 229 q 429 231 425 231 q 421 231 415 234 q 402 235 396 240 q 388 246 385 249 q 384 253 384 261 q 384 264 384 268 q 385 271 388 274 q 390 280 400 283 q 403 286 417 286 q 429 286 435 283 q 444 279 447 273 q 453 264 453 259 l 441 256 q 438 267 433 270 q 427 276 417 276 q 405 276 400 270 q 396 267 396 261 q 396 255 400 253 q 402 250 417 247 q 430 241 439 241 q 442 238 445 236 q 448 234 450 231 q 454 226 454 217 q 454 210 450 204 q 447 199 445 197 q 442 195 439 192 q 427 189 420 189 q 409 189 397 192 q 393 195 390 197 q 387 199 384 204 q 382 208 382 212 q 381 216 381 222 z m 468 237 q 468 258 480 273 q 493 286 513 286 q 519 286 524 284 q 529 283 537 280 q 543 277 546 272 q 549 268 552 262 q 558 252 558 237 q 558 223 552 211 q 546 201 537 195 q 525 189 513 189 q 499 189 489 196 q 475 204 474 214 q 468 222 468 237 z m 480 237 q 480 219 489 210 q 498 201 513 201 q 528 201 537 210 q 544 220 544 237 q 544 243 543 249 q 543 255 540 259 q 535 267 531 270 q 523 276 513 276 q 505 276 501 274 q 496 271 489 267 q 480 258 480 237 z m 573 190 l 573 283 l 586 283 l 636 211 l 636 283 l 648 283 l 648 190 l 636 190 l 585 264 l 585 190 z m 658 190 l 694 283 l 708 283 l 747 190 l 732 190 l 721 220 l 682 220 l 670 190 z m 684 229 l 717 229 l 708 255 q 705 261 704 266 q 702 271 700 274 q 700 270 699 266 q 697 261 696 256 z m 754 190 l 754 283 l 768 283 l 768 202 l 814 202 l 814 190 z m 922 283 l 934 283 l 934 231 q 934 214 931 208 q 928 199 921 195 q 913 189 898 189 q 883 189 877 195 q 873 196 870 200 q 867 204 864 208 q 862 211 862 231 l 862 283 l 873 283 l 873 231 q 873 216 876 211 q 879 205 883 204 q 886 202 889 202 q 892 201 897 201 q 909 201 916 205 q 922 211 922 231 z m 951 222 l 963 222 q 963 219 964 216 q 966 213 967 210 q 969 208 971 206 q 973 204 976 204 q 985 201 990 201 q 1000 201 1005 202 q 1008 204 1012 208 q 1014 210 1014 216 q 1014 222 1012 223 q 1009 225 1008 226 q 1008 228 1005 229 q 1002 231 998 231 q 993 231 987 234 q 981 235 976 236 q 970 237 969 240 q 961 243 960 249 q 955 253 955 261 q 955 267 960 274 q 961 280 970 283 q 976 286 988 286 q 993 286 998 286 q 1003 286 1006 283 q 1015 279 1020 273 q 1021 270 1022 266 q 1024 262 1024 259 l 1012 256 q 1009 261 1008 264 q 1008 268 1005 270 q 1000 276 988 276 q 975 276 973 270 q 967 268 967 261 q 967 256 970 253 q 973 250 988 247 q 1005 241 1009 241 q 1014 238 1017 236 q 1020 234 1021 231 q 1026 228 1026 217 q 1026 208 1021 204 q 1018 199 1016 197 q 1014 195 1009 192 q 1000 189 993 189 q 985 189 980 189 q 975 190 970 192 q 967 195 964 197 q 960 199 957 204 q 954 208 952 212 q 951 216 951 222 z m 1044 190 l 1044 283 l 1111 283 l 1111 274 l 1057 274 l 1057 244 l 1107 244 l 1107 234 l 1057 234 l 1057 202 l 1113 202 l 1113 190 z m 307 388 q 307 403 285 406 q 282 406 278 407 q 273 408 267 408 l 258 397 l 234 372 q 228 364 222 358 q 217 352 210 348 q 219 345 232 343 q 235 343 241 343 q 246 343 250 345 q 273 346 285 357 q 307 375 307 388 z m 324 433 q 324 439 316 439 q 313 439 291 432 l 274 417 q 271 414 268 408 l 294 412 q 300 412 310 420 q 324 429 324 433 z m 343 460 q 343 457 339 457 q 336 457 335 458 q 334 459 331 459 q 316 456 297 436 q 300 439 304 441 q 307 442 310 444 q 321 445 330 444 q 336 444 336 436 l 336 430 q 328 417 294 409 q 321 406 321 391 q 321 373 292 354 q 282 348 271 344 q 259 340 247 339 q 228 334 217 336 q 208 336 198 340 q 189 334 181 334 l 178 334 q 169 337 163 339 l 168 339 q 180 339 187 345 l 187 346 q 177 340 165 340 q 148 340 139 349 q 124 360 124 381 q 124 387 126 392 q 127 397 130 405 q 141 427 166 444 q 174 451 182 454 q 190 456 198 457 q 214 457 220 451 q 213 456 205 456 q 196 456 186 450 q 171 444 169 441 q 154 433 139 415 q 126 394 126 379 q 126 372 128 368 q 129 363 132 358 q 138 349 148 346 q 153 345 156 344 q 159 343 162 343 q 168 343 172 344 q 177 346 183 349 q 166 361 166 382 q 169 402 190 417 l 187 412 q 184 412 181 406 q 172 397 172 387 q 172 367 195 354 q 207 361 207 363 q 210 367 213 370 q 216 373 219 376 q 222 379 222 383 q 223 388 226 393 l 226 391 q 226 384 225 379 l 243 400 q 289 453 319 462 q 306 466 298 466 q 279 465 256 453 q 229 439 229 420 q 229 414 234 409 q 235 408 235 406 q 226 412 226 421 q 226 438 246 454 q 270 472 297 469 q 306 469 324 463 l 330 463 q 337 463 342 460 z m 346 363 q 345 357 334 346 q 324 340 316 340 q 309 340 309 349 q 309 357 318 369 l 316 369 q 315 367 310 367 q 310 367 309 369 q 313 369 324 379 l 325 379 l 330 385 q 334 390 334 393 l 339 393 q 343 393 343 391 q 343 385 334 375 l 324 364 q 315 351 315 346 q 315 342 321 342 q 328 342 339 357 q 340 358 341 359 q 343 360 346 363 z m 354 405 q 348 396 339 396 q 334 396 328 400 l 333 400 q 343 400 346 411 l 346 414 l 354 411 q 355 409 354 405 z m 406 433 q 406 426 360 370 l 358 370 q 345 354 345 345 q 345 340 349 340 q 358 340 369 355 q 370 357 371 358 q 373 358 375 361 q 375 354 363 345 q 355 339 346 339 q 337 340 337 348 q 336 355 367 394 l 385 417 l 394 426 q 399 432 402 441 q 406 438 406 433 z m 432 433 q 432 427 384 370 q 369 352 369 345 q 369 340 375 340 q 381 340 394 355 l 400 361 q 399 354 387 345 q 379 339 370 339 q 361 340 361 348 q 361 357 391 394 l 409 417 l 418 426 q 426 435 427 441 q 432 438 432 433 z m 403 333 q 379 328 366 315 q 355 301 355 298 q 355 292 361 292 q 363 291 372 294 q 375 297 379 301 q 382 304 387 309 z m 447 430 q 444 409 427 393 q 427 391 427 391 q 426 391 426 390 q 421 384 416 378 q 411 373 406 366 q 403 363 403 360 q 402 363 405 369 q 396 355 396 348 q 396 343 400 343 q 402 343 408 346 q 430 364 439 397 l 439 393 l 439 388 q 442 385 442 381 q 442 378 435 366 l 423 346 l 409 328 q 414 331 426 337 l 424 336 q 421 333 416 329 q 411 325 406 318 l 394 303 l 388 295 q 379 286 369 283 q 360 283 355 289 q 346 292 352 303 q 354 304 356 307 q 357 310 360 313 l 361 315 l 351 313 q 376 331 393 333 q 394 333 396 333 q 397 334 399 334 l 400 334 l 403 334 l 412 348 q 406 342 402 341 q 397 340 394 340 q 387 340 387 348 q 387 366 418 394 l 421 396 l 436 411 q 439 417 442 422 q 445 426 447 430 z m 618 453 q 609 456 603 456 q 588 456 575 452 q 562 448 549 441 q 543 438 539 434 q 535 430 531 427 q 549 426 579 408 q 612 441 636 450 z m 649 447 q 643 445 636 443 q 630 441 622 433 q 618 430 600 412 l 589 402 l 604 393 q 607 397 613 404 q 619 411 627 420 z m 663 472 q 663 471 661 469 q 661 459 657 448 l 658 447 l 657 447 q 649 429 637 417 l 613 388 q 616 387 618 387 q 619 387 622 385 q 622 382 621 382 q 618 382 616 383 q 615 384 612 385 q 594 366 592 349 q 589 343 589 340 q 589 334 595 334 q 607 334 621 354 l 627 363 q 642 384 646 400 l 646 405 q 646 403 648 402 l 648 400 q 645 379 633 361 l 613 322 q 613 328 618 342 q 600 328 591 328 q 577 328 580 346 q 580 355 586 366 q 592 378 601 391 l 586 399 l 573 385 q 568 379 560 370 q 552 361 540 346 q 516 322 498 322 l 493 322 q 489 322 480 327 q 480 327 483 327 q 496 324 510 337 q 498 331 481 331 q 465 331 454 339 l 456 339 q 441 349 441 370 q 441 385 447 393 q 456 417 481 433 q 490 441 499 443 q 507 445 516 447 q 531 447 537 441 l 535 441 q 532 444 522 444 q 507 444 484 430 q 468 418 456 405 q 442 384 442 367 q 442 343 465 336 q 474 333 478 333 q 510 334 547 375 l 576 405 q 553 418 525 418 l 523 418 q 520 412 520 405 q 522 405 528 396 q 517 402 517 411 q 517 415 519 418 q 504 415 499 412 q 472 402 475 381 q 475 367 484 357 l 487 354 q 469 372 469 385 q 469 405 487 418 q 502 429 525 429 q 546 453 577 457 q 585 459 601 459 q 609 459 624 456 l 642 451 l 651 451 l 652 450 q 658 460 661 475 l 663 475 z m 682 375 q 682 370 681 367 q 673 360 668 354 q 663 348 658 340 l 660 340 l 661 340 q 660 339 658 339 q 657 339 657 337 q 649 337 649 340 q 649 346 663 360 q 673 373 673 376 q 675 381 669 385 q 651 360 637 354 l 631 351 l 628 352 q 634 352 648 367 q 661 379 666 387 q 666 388 665 388 q 664 388 664 390 q 664 391 675 400 q 675 402 676 402 l 678 400 q 678 399 670 388 q 682 384 682 375 z m 726 379 q 726 388 720 385 q 714 385 711 382 q 706 379 697 367 q 688 355 688 348 q 687 345 691 345 q 700 348 706 355 q 712 367 712 372 q 712 375 711 375 q 717 375 717 367 l 715 364 q 718 367 720 371 q 723 375 726 378 z m 754 393 q 748 393 741 385 q 735 378 729 369 q 723 360 715 348 q 708 333 702 324 q 696 316 694 313 q 675 289 664 289 q 655 288 651 295 q 651 303 651 303 q 651 310 657 316 q 654 315 649 315 q 664 330 682 334 q 684 334 684 335 q 685 336 688 336 l 690 334 q 661 325 655 307 q 654 304 654 300 q 654 298 655 297 q 655 295 657 295 q 669 294 685 318 l 696 333 l 702 342 q 697 340 694 340 q 682 340 682 352 q 682 366 702 384 q 711 393 718 393 q 729 393 729 381 l 730 381 l 738 390 q 745 397 751 397 q 756 397 759 393 z m 781 382 q 781 373 765 364 q 763 363 762 363 l 760 363 q 756 363 751 370 q 754 367 759 367 q 769 373 772 384 l 772 387 l 772 388 l 772 390 q 766 390 753 376 l 753 375 q 748 369 748 365 q 747 361 747 358 q 745 360 745 367 q 742 361 741 357 q 738 351 738 346 q 738 345 739 343 q 739 340 745 340 q 760 346 771 355 q 774 358 778 361 q 775 357 772 353 q 769 349 762 345 q 750 337 741 340 q 741 339 739 340 q 730 340 730 349 q 730 364 747 379 q 756 393 771 393 q 774 393 775 391 q 781 387 781 382 z m 841 433 q 841 427 793 370 q 780 354 780 345 q 780 340 784 340 q 793 340 804 355 q 805 357 806 358 q 808 358 810 361 q 810 354 798 345 q 790 339 780 339 q 772 342 772 348 q 772 360 801 394 l 819 417 l 828 426 q 837 435 837 441 q 841 438 841 433 z m 922 387 q 897 396 895 415 q 888 411 880 407 q 873 403 868 399 q 840 372 840 349 q 840 340 844 339 l 847 339 l 850 339 q 873 339 892 354 q 898 360 906 368 q 915 375 922 387 z m 952 430 l 940 430 q 922 429 897 417 q 900 396 925 391 l 936 405 z m 979 457 q 960 457 944 454 q 928 451 916 444 q 924 451 935 456 q 946 460 960 463 q 930 465 907 445 q 903 442 897 430 q 907 433 917 434 q 927 436 939 435 q 942 435 947 435 q 951 435 958 433 q 961 438 967 444 q 972 450 979 457 z m 1074 459 q 1071 454 1067 451 q 1063 447 1056 444 q 1044 436 1033 436 l 1030 436 q 1029 436 1027 438 q 1029 439 1029 441 q 1029 442 1032 445 q 1018 456 994 456 l 988 448 l 973 430 q 985 429 996 428 q 1006 426 1015 426 q 1036 426 1044 430 q 1038 424 1021 421 q 1008 418 994 423 l 970 427 q 964 420 959 414 q 954 409 951 403 l 940 388 l 948 388 q 985 391 991 406 l 993 406 q 988 397 973 390 q 966 387 959 386 q 952 384 946 384 l 939 384 q 928 372 921 363 q 915 354 909 348 q 889 327 873 327 q 865 328 856 328 q 871 328 888 343 q 867 334 855 334 l 846 336 l 858 324 q 846 330 838 337 q 837 337 831 340 q 813 354 811 375 q 811 382 811 388 q 811 394 814 400 q 819 414 826 423 q 834 433 844 444 q 870 466 889 466 q 900 466 907 460 l 906 459 q 901 463 892 463 q 873 460 852 444 q 834 429 825 414 q 813 393 813 375 q 816 348 837 340 q 834 349 835 358 q 838 381 852 397 q 868 418 897 430 q 900 433 900 439 l 913 453 q 933 469 964 469 q 972 469 977 469 q 982 469 990 468 l 991 468 q 1002 475 1010 479 q 1018 483 1027 481 q 1033 481 1036 478 q 1020 475 1020 475 q 1017 474 1013 472 q 1009 471 1005 468 q 1011 466 1017 466 q 1023 465 1030 462 q 1045 457 1054 457 q 1068 457 1074 459 z m 982 354 q 978 358 978 364 q 978 367 978 370 q 979 372 979 375 q 964 355 966 346 q 966 343 969 343 q 972 343 982 354 z m 1002 385 q 1002 388 999 388 q 996 388 993 387 q 991 385 988 379 q 981 364 981 360 q 981 355 982 354 l 987 358 l 987 360 l 987 358 q 988 360 988 361 q 988 361 990 363 q 993 372 993 375 q 993 376 991 378 q 994 372 994 370 q 999 375 1002 385 z m 1008 381 q 1008 373 997 358 q 984 345 978 340 l 966 340 q 957 340 957 348 q 957 360 973 379 q 984 393 997 393 q 1008 393 1008 381 z m 1057 384 q 1059 381 1051 367 q 1042 355 1039 352 l 1021 336 q 1011 325 1008 313 q 1009 331 1021 345 q 1027 351 1030 356 q 1033 360 1036 366 q 1038 367 1039 372 l 1039 367 q 1039 367 1038 364 q 1041 367 1047 379 q 1047 381 1048 382 q 1048 382 1048 384 q 1048 391 1041 388 q 1041 388 1029 379 q 1026 372 1021 367 q 1015 361 1009 354 q 1002 345 1000 340 q 999 339 993 327 q 993 330 992 334 q 991 337 993 340 q 996 351 1006 361 l 1015 372 q 1023 382 1023 388 q 1023 390 1022 391 q 1021 393 1021 394 q 1030 391 1030 385 q 1039 393 1050 393 q 1056 390 1057 384 z m 1116 405 l 1093 405 q 1092 402 1084 393 q 1075 384 1063 367 q 1060 367 1057 360 q 1051 352 1051 345 q 1051 340 1054 340 q 1062 340 1075 355 l 1077 357 q 1078 358 1078 359 q 1078 360 1080 361 q 1080 354 1069 345 q 1062 339 1051 339 q 1044 342 1042 348 q 1042 351 1048 363 l 1066 384 l 1083 405 l 1057 408 q 1051 409 1042 409 l 1029 409 q 1011 409 993 402 l 991 402 q 1006 417 1038 417 q 1039 417 1051 415 q 1062 412 1083 409 l 1087 408 q 1092 415 1096 421 q 1099 426 1102 430 q 1105 429 1105 423 q 1105 418 1102 415 l 1096 406 l 1108 405 l 1117 405 l 1119 405 l 1123 405 z m 1126 385 q 1126 381 1116 376 l 1114 375 q 1119 379 1119 387 l 1119 393 l 1114 393 q 1107 393 1105 387 q 1105 384 1110 361 q 1111 340 1086 340 q 1072 340 1069 349 q 1068 351 1068 354 q 1068 366 1086 369 l 1092 367 l 1089 367 q 1083 367 1080 364 q 1075 357 1075 354 q 1075 342 1087 342 q 1099 342 1099 358 q 1099 366 1098 370 q 1096 375 1096 381 q 1096 396 1110 396 q 1113 396 1114 395 q 1116 394 1119 394 q 1125 391 1125 390 q 1126 388 1126 385 z"},"J":{"x_min":0,"x_max":547,"ha":547,"o":"m 739 829 q 747 832 757 831 q 767 831 775 829 q 784 828 791 825 q 797 823 799 821 q 777 790 755 751 q 733 712 712 667 q 690 623 668 574 q 647 526 625 478 q 589 399 551 317 q 512 235 468 158 q 425 81 376 12 q 328 -57 274 -108 q 219 -160 159 -191 q 98 -221 31 -223 q 20 -223 -2 -216 q -24 -208 -47 -191 q -70 -174 -87 -148 q -104 -121 -104 -83 q -104 -38 -88 0 q -73 39 -48 71 q -22 103 10 128 q 43 153 76 171 q 109 188 141 197 q 173 206 198 206 q 216 206 228 203 q 239 199 246 194 q 251 190 257 179 q 263 168 269 156 q 276 143 280 132 q 284 121 284 118 q 258 129 232 136 q 206 142 181 142 q 147 142 116 132 q 86 123 59 106 q 32 89 10 66 q -12 43 -29 18 q -45 -8 -55 -35 q -66 -63 -68 -89 q -71 -114 -60 -135 q -49 -157 -31 -171 q -12 -186 12 -192 q 36 -198 59 -192 q 113 -180 163 -142 q 214 -104 261 -49 q 308 7 352 76 q 395 146 434 221 q 474 297 509 374 q 543 451 574 522 q 604 593 632 656 q 661 719 690 772 q 659 753 620 726 q 581 698 539 662 q 497 627 456 582 q 416 538 385 487 q 353 435 334 375 q 315 316 316 249 q 315 244 308 245 q 300 247 291 252 q 282 258 275 267 q 267 277 266 288 q 257 336 270 382 q 282 429 309 474 q 335 518 373 559 q 411 600 453 636 q 495 673 538 704 q 582 735 620 759 q 658 783 687 800 q 717 816 731 824 q 732 826 734 827 q 737 828 739 829 z"},"V":{"x_min":0,"x_max":492,"ha":492,"o":"m 390 838 q 407 838 425 835 q 443 832 458 824 q 473 817 483 803 q 493 789 493 767 q 493 759 491 748 q 489 737 484 726 q 474 692 460 656 q 446 621 430 586 q 414 551 397 515 q 379 480 362 446 q 334 388 306 331 q 279 273 257 216 q 236 159 222 103 q 209 47 209 -7 q 209 -22 212 -27 q 216 -33 221 -33 q 227 -33 237 -21 q 246 -8 256 9 l 256 7 q 297 72 342 143 q 388 214 438 287 q 487 359 538 430 q 590 502 642 568 q 694 634 746 693 q 798 752 848 799 q 898 846 946 879 q 993 912 1036 926 q 1047 928 1058 924 q 1068 921 1077 915 q 1086 909 1092 901 q 1097 894 1097 887 q 1097 878 1080 876 q 1030 873 975 843 q 919 813 861 764 q 803 714 744 649 q 685 583 628 510 q 570 437 516 360 q 461 283 412 210 q 364 137 322 72 q 281 6 250 -44 q 239 -61 227 -69 q 215 -77 207 -76 q 184 -74 168 -53 q 151 -31 151 9 q 151 79 169 151 q 187 223 214 293 q 241 363 273 429 q 306 494 336 552 q 354 587 370 619 q 386 651 397 677 q 409 704 416 726 q 422 747 422 763 q 422 786 411 798 q 400 809 382 811 q 359 813 329 794 q 298 775 264 742 q 229 709 195 664 q 161 620 132 570 q 103 520 83 468 q 63 415 56 366 q 56 361 54 359 q 52 357 51 357 q 46 357 39 363 q 32 368 26 378 q 19 387 14 398 q 8 410 6 422 q 11 449 28 489 q 46 529 73 574 q 100 619 136 664 q 172 709 213 747 q 254 784 299 809 q 344 834 390 838 z"},"7":{"x_min":0,"x_max":1219,"ha":1219,"o":"m 876 781 l 739 657 l 775 471 l 615 565 l 450 471 l 489 652 l 351 781 l 537 801 l 615 972 l 690 802 z m 682 576 l 639 834 l 586 834 l 541 576 l 564 562 l 583 576 l 592 634 l 631 634 l 642 576 l 663 562 z m 628 672 l 598 672 l 612 774 z m 610 21 l 631 21 l 624 39 q 622 42 622 44 q 622 46 619 49 q 619 45 616 39 z m 352 -5 l 352 3 l 363 3 l 363 -5 z m 844 -5 l 844 58 l 852 58 l 852 1 l 883 1 l 883 -5 z m 787 -5 l 787 58 l 832 58 l 832 49 l 795 49 l 795 30 l 829 30 l 829 22 l 795 22 l 795 1 l 832 1 l 832 -5 z m 565 -5 l 565 21 l 541 58 l 552 58 l 564 39 q 567 30 570 28 q 571 30 572 33 q 574 36 577 39 l 589 58 l 598 58 l 573 21 l 573 -5 z m 376 -5 l 376 58 l 400 58 q 403 58 405 56 q 408 55 409 55 q 415 54 417 49 q 420 46 420 40 q 420 36 417 34 q 415 28 411 28 q 415 27 420 22 q 423 16 423 13 q 423 10 422 9 q 421 7 421 6 q 420 0 415 0 q 414 -3 412 -3 q 411 -3 409 -5 l 400 -5 z m 205 -5 l 187 58 l 196 58 l 205 16 q 207 12 207 9 q 207 6 208 3 q 210 10 210 15 l 222 58 l 232 58 l 241 25 q 243 18 244 13 q 246 9 246 3 q 247 6 247 9 q 247 12 249 16 l 259 58 l 267 58 l 249 -5 l 241 -5 l 229 42 q 228 46 228 49 q 226 46 226 42 l 213 -5 z m 123 -5 l 105 58 l 115 58 l 123 16 q 123 9 127 3 q 129 10 129 15 l 141 58 l 150 58 l 160 25 q 162 18 162 13 q 163 9 163 3 q 166 6 166 9 q 166 12 168 16 l 177 58 l 186 58 l 168 -5 l 160 -5 l 148 42 q 147 46 147 49 q 144 46 144 42 l 130 -5 z m 384 30 l 397 30 q 403 30 405 33 q 409 33 409 34 q 411 36 411 40 q 411 45 409 46 l 408 46 q 406 46 406 47 q 406 48 405 48 q 403 49 396 49 l 384 49 z m 285 -5 l 268 58 l 277 58 l 286 16 q 288 12 288 9 q 288 6 291 3 q 291 9 292 11 q 292 13 292 15 l 304 58 l 313 58 l 324 25 q 325 18 326 13 q 327 9 327 3 q 330 6 330 9 q 330 12 331 16 l 342 58 l 349 58 l 331 -5 l 324 -5 l 312 42 q 310 46 310 49 q 307 46 307 42 l 294 -5 z m 664 28 l 682 28 q 685 28 688 29 q 690 30 693 30 q 696 30 696 34 q 697 36 697 40 q 697 45 694 48 q 693 49 684 49 l 664 49 z m 384 1 l 400 1 q 403 1 405 3 l 409 3 q 411 6 414 7 l 414 13 q 414 16 411 19 q 411 22 408 22 l 397 22 l 384 22 z m 435 -5 l 435 58 l 442 58 l 442 -5 z m 985 25 q 985 12 990 7 q 996 1 1006 1 q 1017 1 1021 7 q 1027 12 1027 27 q 1027 34 1026 39 q 1023 46 1018 48 q 1014 49 1006 49 q 997 49 993 45 q 985 39 985 25 z m 976 25 q 976 42 985 49 q 991 58 1006 58 q 1011 58 1014 56 q 1018 55 1021 54 q 1026 52 1028 49 q 1030 46 1033 42 q 1035 39 1035 27 q 1035 13 1032 9 q 1027 1 1021 -3 q 1015 -6 1006 -6 q 1002 -6 998 -6 q 994 -5 990 -3 q 987 0 985 3 q 982 6 981 9 q 979 13 978 17 q 976 21 976 25 z m 592 -5 l 616 58 l 625 58 l 651 -5 l 642 -5 l 634 13 l 609 13 l 600 -5 z m 459 -5 l 459 58 l 466 58 l 466 1 l 495 1 l 495 -5 z m 892 -5 l 892 3 l 903 3 l 903 -5 z m 748 19 l 748 27 l 774 27 l 774 3 q 768 -3 762 -5 q 759 -5 755 -6 q 751 -6 748 -6 q 739 -6 733 -3 q 729 0 726 2 q 723 4 721 9 q 720 13 719 17 q 717 21 717 25 q 717 31 719 34 q 720 37 721 42 q 724 51 732 54 q 735 55 739 56 q 744 58 748 58 q 756 58 760 55 q 766 54 768 49 q 772 45 774 40 l 766 39 q 766 40 762 45 q 762 48 756 49 l 748 49 l 739 49 q 735 48 732 45 q 732 43 727 39 q 727 36 727 33 q 726 30 726 27 q 726 16 729 13 q 735 4 736 3 q 741 1 748 1 q 754 1 759 3 q 762 6 764 6 q 765 6 766 7 l 766 19 z m 657 -5 l 657 58 l 684 58 q 688 58 691 56 q 694 55 697 55 q 702 54 703 49 q 706 46 706 40 q 706 33 702 28 q 700 27 696 26 q 693 25 688 22 q 691 22 692 22 q 693 21 694 21 q 696 18 697 15 q 697 13 700 10 l 712 -5 l 702 -5 l 693 7 q 690 10 689 12 q 688 15 687 16 q 687 19 686 19 q 684 19 682 21 l 681 21 q 679 21 679 22 q 679 22 678 22 l 675 22 l 664 22 l 664 -5 z m 505 -5 l 505 58 l 514 58 l 514 1 l 544 1 l 544 -5 z m 961 16 l 969 15 q 966 3 960 0 q 954 -6 943 -6 q 934 -6 928 -3 q 924 0 922 3 q 921 6 918 9 q 915 21 915 27 q 915 33 918 45 q 925 52 928 54 q 933 55 936 56 q 939 58 943 58 q 948 58 952 56 q 957 55 960 54 q 963 51 965 48 q 967 45 969 40 l 960 39 q 960 45 954 48 q 951 49 943 49 q 934 49 931 48 q 928 46 928 44 q 927 42 924 39 q 924 36 923 33 q 922 30 922 27 q 922 18 927 13 q 927 10 929 8 q 930 6 931 3 q 936 1 943 1 q 951 1 955 6 q 960 10 961 16 z m 1047 -5 l 1047 58 l 1059 58 l 1074 13 q 1074 10 1076 8 q 1077 6 1077 3 q 1077 4 1080 13 l 1093 58 l 1105 58 l 1105 -5 l 1098 -5 l 1098 46 l 1080 -5 l 1072 -5 l 1054 48 l 1054 -5 z m 610 21 l 631 21 l 624 39 q 622 42 622 44 q 622 46 619 49 q 619 45 616 39 z m 352 -5 l 352 3 l 363 3 l 363 -5 z m 844 -5 l 844 58 l 852 58 l 852 1 l 883 1 l 883 -5 z m 787 -5 l 787 58 l 832 58 l 832 49 l 795 49 l 795 30 l 829 30 l 829 22 l 795 22 l 795 1 l 832 1 l 832 -5 z m 565 -5 l 565 21 l 541 58 l 552 58 l 564 39 q 567 30 570 28 q 571 30 572 33 q 574 36 577 39 l 589 58 l 598 58 l 573 21 l 573 -5 z m 376 -5 l 376 58 l 400 58 q 403 58 405 56 q 408 55 409 55 q 415 54 417 49 q 420 46 420 40 q 420 36 417 34 q 415 28 411 28 q 415 27 420 22 q 423 16 423 13 q 423 10 422 9 q 421 7 421 6 q 420 0 415 0 q 414 -3 412 -3 q 411 -3 409 -5 l 400 -5 z m 205 -5 l 187 58 l 196 58 l 205 16 q 207 12 207 9 q 207 6 208 3 q 210 10 210 15 l 222 58 l 232 58 l 241 25 q 243 18 244 13 q 246 9 246 3 q 247 6 247 9 q 247 12 249 16 l 259 58 l 267 58 l 249 -5 l 241 -5 l 229 42 q 228 46 228 49 q 226 46 226 42 l 213 -5 z m 123 -5 l 105 58 l 115 58 l 123 16 q 123 9 127 3 q 129 10 129 15 l 141 58 l 150 58 l 160 25 q 162 18 162 13 q 163 9 163 3 q 166 6 166 9 q 166 12 168 16 l 177 58 l 186 58 l 168 -5 l 160 -5 l 148 42 q 147 46 147 49 q 144 46 144 42 l 130 -5 z m 384 30 l 397 30 q 403 30 405 33 q 409 33 409 34 q 411 36 411 40 q 411 45 409 46 l 408 46 q 406 46 406 47 q 406 48 405 48 q 403 49 396 49 l 384 49 z m 285 -5 l 268 58 l 277 58 l 286 16 q 288 12 288 9 q 288 6 291 3 q 291 9 292 11 q 292 13 292 15 l 304 58 l 313 58 l 324 25 q 325 18 326 13 q 327 9 327 3 q 330 6 330 9 q 330 12 331 16 l 342 58 l 349 58 l 331 -5 l 324 -5 l 312 42 q 310 46 310 49 q 307 46 307 42 l 294 -5 z m 664 28 l 682 28 q 685 28 688 29 q 690 30 693 30 q 696 30 696 34 q 697 36 697 40 q 697 45 694 48 q 693 49 684 49 l 664 49 z m 384 1 l 400 1 q 403 1 405 3 l 409 3 q 411 6 414 7 l 414 13 q 414 16 411 19 q 411 22 408 22 l 397 22 l 384 22 z m 435 -5 l 435 58 l 442 58 l 442 -5 z m 985 25 q 985 12 990 7 q 996 1 1006 1 q 1017 1 1021 7 q 1027 12 1027 27 q 1027 34 1026 39 q 1023 46 1018 48 q 1014 49 1006 49 q 997 49 993 45 q 985 39 985 25 z m 976 25 q 976 42 985 49 q 991 58 1006 58 q 1011 58 1014 56 q 1018 55 1021 54 q 1026 52 1028 49 q 1030 46 1033 42 q 1035 39 1035 27 q 1035 13 1032 9 q 1027 1 1021 -3 q 1015 -6 1006 -6 q 1002 -6 998 -6 q 994 -5 990 -3 q 987 0 985 3 q 982 6 981 9 q 979 13 978 17 q 976 21 976 25 z m 592 -5 l 616 58 l 625 58 l 651 -5 l 642 -5 l 634 13 l 609 13 l 600 -5 z m 459 -5 l 459 58 l 466 58 l 466 1 l 495 1 l 495 -5 z m 892 -5 l 892 3 l 903 3 l 903 -5 z m 748 19 l 748 27 l 774 27 l 774 3 q 768 -3 762 -5 q 759 -5 755 -6 q 751 -6 748 -6 q 739 -6 733 -3 q 729 0 726 2 q 723 4 721 9 q 720 13 719 17 q 717 21 717 25 q 717 31 719 34 q 720 37 721 42 q 724 51 732 54 q 735 55 739 56 q 744 58 748 58 q 756 58 760 55 q 766 54 768 49 q 772 45 774 40 l 766 39 q 766 40 762 45 q 762 48 756 49 l 748 49 l 739 49 q 735 48 732 45 q 732 43 727 39 q 727 36 727 33 q 726 30 726 27 q 726 16 729 13 q 735 4 736 3 q 741 1 748 1 q 754 1 759 3 q 762 6 764 6 q 765 6 766 7 l 766 19 z m 657 -5 l 657 58 l 684 58 q 688 58 691 56 q 694 55 697 55 q 702 54 703 49 q 706 46 706 40 q 706 33 702 28 q 700 27 696 26 q 693 25 688 22 q 691 22 692 22 q 693 21 694 21 q 696 18 697 15 q 697 13 700 10 l 712 -5 l 702 -5 l 693 7 q 690 10 689 12 q 688 15 687 16 q 687 19 686 19 q 684 19 682 21 l 681 21 q 679 21 679 22 q 679 22 678 22 l 675 22 l 664 22 l 664 -5 z m 505 -5 l 505 58 l 514 58 l 514 1 l 544 1 l 544 -5 z m 961 16 l 969 15 q 966 3 960 0 q 954 -6 943 -6 q 934 -6 928 -3 q 924 0 922 3 q 921 6 918 9 q 915 21 915 27 q 915 33 918 45 q 925 52 928 54 q 933 55 936 56 q 939 58 943 58 q 948 58 952 56 q 957 55 960 54 q 963 51 965 48 q 967 45 969 40 l 960 39 q 960 45 954 48 q 951 49 943 49 q 934 49 931 48 q 928 46 928 44 q 927 42 924 39 q 924 36 923 33 q 922 30 922 27 q 922 18 927 13 q 927 10 929 8 q 930 6 931 3 q 936 1 943 1 q 951 1 955 6 q 960 10 961 16 z m 1047 -5 l 1047 58 l 1059 58 l 1074 13 q 1074 10 1076 8 q 1077 6 1077 3 q 1077 4 1080 13 l 1093 58 l 1105 58 l 1105 -5 l 1098 -5 l 1098 46 l 1080 -5 l 1072 -5 l 1054 48 l 1054 -5 z m 610 21 l 631 21 l 624 39 q 622 42 622 44 q 622 46 619 49 q 619 45 616 39 z m 352 -5 l 352 3 l 363 3 l 363 -5 z m 844 -5 l 844 58 l 852 58 l 852 1 l 883 1 l 883 -5 z m 787 -5 l 787 58 l 832 58 l 832 49 l 795 49 l 795 30 l 829 30 l 829 22 l 795 22 l 795 1 l 832 1 l 832 -5 z m 565 -5 l 565 21 l 541 58 l 552 58 l 564 39 q 567 30 570 28 q 571 30 572 33 q 574 36 577 39 l 589 58 l 598 58 l 573 21 l 573 -5 z m 376 -5 l 376 58 l 400 58 q 403 58 405 56 q 408 55 409 55 q 415 54 417 49 q 420 46 420 40 q 420 36 417 34 q 415 28 411 28 q 415 27 420 22 q 423 16 423 13 q 423 10 422 9 q 421 7 421 6 q 420 0 415 0 q 414 -3 412 -3 q 411 -3 409 -5 l 400 -5 z m 205 -5 l 187 58 l 196 58 l 205 16 q 207 12 207 9 q 207 6 208 3 q 210 10 210 15 l 222 58 l 232 58 l 241 25 q 243 18 244 13 q 246 9 246 3 q 247 6 247 9 q 247 12 249 16 l 259 58 l 267 58 l 249 -5 l 241 -5 l 229 42 q 228 46 228 49 q 226 46 226 42 l 213 -5 z m 123 -5 l 105 58 l 115 58 l 123 16 q 123 9 127 3 q 129 10 129 15 l 141 58 l 150 58 l 160 25 q 162 18 162 13 q 163 9 163 3 q 166 6 166 9 q 166 12 168 16 l 177 58 l 186 58 l 168 -5 l 160 -5 l 148 42 q 147 46 147 49 q 144 46 144 42 l 130 -5 z m 384 30 l 397 30 q 403 30 405 33 q 409 33 409 34 q 411 36 411 40 q 411 45 409 46 l 408 46 q 406 46 406 47 q 406 48 405 48 q 403 49 396 49 l 384 49 z m 285 -5 l 268 58 l 277 58 l 286 16 q 288 12 288 9 q 288 6 291 3 q 291 9 292 11 q 292 13 292 15 l 304 58 l 313 58 l 324 25 q 325 18 326 13 q 327 9 327 3 q 330 6 330 9 q 330 12 331 16 l 342 58 l 349 58 l 331 -5 l 324 -5 l 312 42 q 310 46 310 49 q 307 46 307 42 l 294 -5 z m 664 28 l 682 28 q 685 28 688 29 q 690 30 693 30 q 696 30 696 34 q 697 36 697 40 q 697 45 694 48 q 693 49 684 49 l 664 49 z m 384 1 l 400 1 q 403 1 405 3 l 409 3 q 411 6 414 7 l 414 13 q 414 16 411 19 q 411 22 408 22 l 397 22 l 384 22 z m 435 -5 l 435 58 l 442 58 l 442 -5 z m 985 25 q 985 12 990 7 q 996 1 1006 1 q 1017 1 1021 7 q 1027 12 1027 27 q 1027 34 1026 39 q 1023 46 1018 48 q 1014 49 1006 49 q 997 49 993 45 q 985 39 985 25 z m 976 25 q 976 42 985 49 q 991 58 1006 58 q 1011 58 1014 56 q 1018 55 1021 54 q 1026 52 1028 49 q 1030 46 1033 42 q 1035 39 1035 27 q 1035 13 1032 9 q 1027 1 1021 -3 q 1015 -6 1006 -6 q 1002 -6 998 -6 q 994 -5 990 -3 q 987 0 985 3 q 982 6 981 9 q 979 13 978 17 q 976 21 976 25 z m 592 -5 l 616 58 l 625 58 l 651 -5 l 642 -5 l 634 13 l 609 13 l 600 -5 z m 459 -5 l 459 58 l 466 58 l 466 1 l 495 1 l 495 -5 z m 892 -5 l 892 3 l 903 3 l 903 -5 z m 748 19 l 748 27 l 774 27 l 774 3 q 768 -3 762 -5 q 759 -5 755 -6 q 751 -6 748 -6 q 739 -6 733 -3 q 729 0 726 2 q 723 4 721 9 q 720 13 719 17 q 717 21 717 25 q 717 31 719 34 q 720 37 721 42 q 724 51 732 54 q 735 55 739 56 q 744 58 748 58 q 756 58 760 55 q 766 54 768 49 q 772 45 774 40 l 766 39 q 766 40 762 45 q 762 48 756 49 l 748 49 l 739 49 q 735 48 732 45 q 732 43 727 39 q 727 36 727 33 q 726 30 726 27 q 726 16 729 13 q 735 4 736 3 q 741 1 748 1 q 754 1 759 3 q 762 6 764 6 q 765 6 766 7 l 766 19 z m 657 -5 l 657 58 l 684 58 q 688 58 691 56 q 694 55 697 55 q 702 54 703 49 q 706 46 706 40 q 706 33 702 28 q 700 27 696 26 q 693 25 688 22 q 691 22 692 22 q 693 21 694 21 q 696 18 697 15 q 697 13 700 10 l 712 -5 l 702 -5 l 693 7 q 690 10 689 12 q 688 15 687 16 q 687 19 686 19 q 684 19 682 21 l 681 21 q 679 21 679 22 q 679 22 678 22 l 675 22 l 664 22 l 664 -5 z m 505 -5 l 505 58 l 514 58 l 514 1 l 544 1 l 544 -5 z m 961 16 l 969 15 q 966 3 960 0 q 954 -6 943 -6 q 934 -6 928 -3 q 924 0 922 3 q 921 6 918 9 q 915 21 915 27 q 915 33 918 45 q 925 52 928 54 q 933 55 936 56 q 939 58 943 58 q 948 58 952 56 q 957 55 960 54 q 963 51 965 48 q 967 45 969 40 l 960 39 q 960 45 954 48 q 951 49 943 49 q 934 49 931 48 q 928 46 928 44 q 927 42 924 39 q 924 36 923 33 q 922 30 922 27 q 922 18 927 13 q 927 10 929 8 q 930 6 931 3 q 936 1 943 1 q 951 1 955 6 q 960 10 961 16 z m 1047 -5 l 1047 58 l 1059 58 l 1074 13 q 1074 10 1076 8 q 1077 6 1077 3 q 1077 4 1080 13 l 1093 58 l 1105 58 l 1105 -5 l 1098 -5 l 1098 46 l 1080 -5 l 1072 -5 l 1054 48 l 1054 -5 z m 175 111 l 187 106 q 184 93 174 84 q 162 75 148 75 q 135 75 123 81 q 111 90 109 99 q 103 109 103 124 q 103 141 109 151 q 114 162 124 166 q 135 172 148 172 q 165 172 171 165 q 181 162 186 145 l 174 144 q 168 156 163 157 q 157 163 148 163 q 136 163 130 157 q 121 151 118 144 q 117 138 117 124 q 117 111 121 105 q 124 94 130 91 q 138 85 147 85 q 159 85 166 93 q 169 96 171 101 q 174 105 175 111 z m 199 123 q 199 135 202 144 q 205 153 213 159 q 219 166 227 169 q 235 172 244 172 q 258 172 268 166 q 277 162 285 150 q 291 135 291 124 q 291 117 289 111 q 288 105 285 99 q 277 87 267 81 q 255 75 244 75 q 237 75 232 76 q 226 78 220 81 q 210 87 205 99 q 199 109 199 123 z m 213 123 q 213 105 220 94 q 231 85 244 85 q 259 85 267 97 q 277 108 277 124 q 277 130 276 134 q 274 139 273 144 q 270 154 261 157 q 256 163 244 163 q 232 163 222 153 q 213 145 213 123 z m 306 78 l 306 171 l 324 171 l 346 105 q 351 96 351 91 q 354 94 357 106 l 381 171 l 396 171 l 396 78 l 384 78 l 384 156 l 357 78 l 345 78 l 318 157 l 318 78 z m 417 78 l 417 171 l 453 171 l 466 171 q 474 171 478 166 q 480 165 486 157 q 487 154 488 151 q 489 148 489 144 q 489 135 481 124 q 474 117 453 117 l 429 117 l 429 78 z m 429 126 l 454 126 q 468 126 469 132 q 475 133 475 144 q 475 151 474 153 q 468 159 463 159 q 462 162 453 162 l 429 162 z m 505 78 l 505 171 l 517 171 l 517 87 l 564 87 l 564 78 z m 579 78 l 579 171 l 648 171 l 648 162 l 591 162 l 591 132 l 643 132 l 643 120 l 591 120 l 591 87 l 649 87 l 649 78 z m 690 78 l 690 162 l 658 162 l 658 171 l 735 171 l 735 162 l 703 162 l 703 78 z m 748 78 l 748 171 l 817 171 l 817 162 l 760 162 l 760 132 l 813 132 l 813 120 l 760 120 l 760 87 l 819 87 l 819 78 z m 870 106 l 882 108 q 882 100 885 97 q 888 91 895 88 q 898 87 909 87 q 912 87 916 87 q 919 87 922 88 q 927 88 930 94 q 931 97 931 103 q 931 108 930 111 q 928 112 926 113 q 924 114 921 117 q 919 117 904 120 q 897 123 892 123 q 888 124 885 126 q 879 129 876 136 q 873 138 872 141 q 871 144 871 147 q 871 156 877 162 q 879 165 882 166 q 885 168 889 171 q 892 172 907 172 q 918 172 924 169 q 928 166 931 164 q 934 163 936 159 q 942 154 942 145 l 930 144 q 927 156 922 157 q 918 162 907 162 q 892 162 889 157 q 885 153 885 147 q 885 142 889 139 q 889 139 907 132 q 915 130 920 129 q 925 127 928 126 q 933 124 935 122 q 937 120 940 117 q 943 112 943 103 q 943 93 940 88 q 934 82 928 79 q 924 78 919 76 q 915 75 909 75 q 903 75 897 76 q 891 78 888 79 q 880 81 873 91 q 870 97 870 106 z m 961 78 l 961 171 l 1029 171 l 1029 162 l 975 162 l 975 132 l 1027 132 l 1027 120 l 975 120 l 975 87 l 1032 87 l 1032 78 z m 1074 78 l 1074 162 l 1044 162 l 1044 171 l 1117 171 l 1117 162 l 1086 162 l 1086 78 z m 112 190 l 112 283 l 150 283 l 163 283 q 166 283 175 280 q 177 279 179 276 q 181 273 183 270 q 186 267 186 259 q 186 246 177 237 q 172 229 150 229 l 127 229 l 127 190 z m 127 241 l 150 241 q 163 241 168 244 q 174 250 174 256 q 174 259 172 262 q 171 265 169 268 q 165 273 162 273 q 160 274 150 274 l 127 274 z m 201 190 l 201 283 l 268 283 l 268 274 l 214 274 l 214 244 l 265 244 l 265 234 l 214 234 l 214 202 l 271 202 l 271 190 z m 288 190 l 288 283 l 331 283 q 345 283 351 282 q 358 279 361 274 q 364 262 364 259 q 364 249 358 243 q 352 237 337 234 q 340 231 341 231 q 343 231 345 229 q 352 222 355 216 l 372 190 l 357 190 l 343 210 q 342 214 340 217 q 337 220 336 223 q 333 225 332 227 q 331 229 330 229 q 327 231 324 231 q 322 234 316 234 l 303 234 l 303 190 z m 303 243 l 327 243 q 339 243 342 244 q 346 249 349 250 q 351 253 351 259 q 351 265 346 270 q 342 274 331 274 l 303 274 z m 381 222 l 391 222 q 391 219 392 216 q 394 213 396 210 q 397 208 400 206 q 402 204 405 204 q 414 201 420 201 q 423 201 426 201 q 429 201 430 202 q 439 205 441 208 q 441 210 442 212 q 442 214 442 216 q 442 222 441 223 q 436 226 430 229 q 429 231 425 231 q 421 231 415 234 q 402 235 396 240 q 388 246 385 249 q 384 253 384 261 q 384 264 384 268 q 385 271 388 274 q 390 280 400 283 q 403 286 417 286 q 429 286 435 283 q 444 279 447 273 q 453 264 453 259 l 441 256 q 438 267 433 270 q 427 276 417 276 q 405 276 400 270 q 396 267 396 261 q 396 255 400 253 q 402 250 417 247 q 430 241 439 241 q 442 238 445 236 q 448 234 450 231 q 454 226 454 217 q 454 210 450 204 q 447 199 445 197 q 442 195 439 192 q 427 189 420 189 q 409 189 397 192 q 393 195 390 197 q 387 199 384 204 q 382 208 382 212 q 381 216 381 222 z m 468 237 q 468 258 480 273 q 493 286 513 286 q 519 286 524 284 q 529 283 537 280 q 543 277 546 272 q 549 268 552 262 q 558 252 558 237 q 558 223 552 211 q 546 201 537 195 q 525 189 513 189 q 499 189 489 196 q 475 204 474 214 q 468 222 468 237 z m 480 237 q 480 219 489 210 q 498 201 513 201 q 528 201 537 210 q 544 220 544 237 q 544 243 543 249 q 543 255 540 259 q 535 267 531 270 q 523 276 513 276 q 505 276 501 274 q 496 271 489 267 q 480 258 480 237 z m 573 190 l 573 283 l 586 283 l 636 211 l 636 283 l 648 283 l 648 190 l 636 190 l 585 264 l 585 190 z m 658 190 l 694 283 l 708 283 l 747 190 l 732 190 l 721 220 l 682 220 l 670 190 z m 684 229 l 717 229 l 708 255 q 705 261 704 266 q 702 271 700 274 q 700 270 699 266 q 697 261 696 256 z m 754 190 l 754 283 l 768 283 l 768 202 l 814 202 l 814 190 z m 922 283 l 934 283 l 934 231 q 934 214 931 208 q 928 199 921 195 q 913 189 898 189 q 883 189 877 195 q 873 196 870 200 q 867 204 864 208 q 862 211 862 231 l 862 283 l 873 283 l 873 231 q 873 216 876 211 q 879 205 883 204 q 886 202 889 202 q 892 201 897 201 q 909 201 916 205 q 922 211 922 231 z m 951 222 l 963 222 q 963 219 964 216 q 966 213 967 210 q 969 208 971 206 q 973 204 976 204 q 985 201 990 201 q 1000 201 1005 202 q 1008 204 1012 208 q 1014 210 1014 216 q 1014 222 1012 223 q 1009 225 1008 226 q 1008 228 1005 229 q 1002 231 998 231 q 993 231 987 234 q 981 235 976 236 q 970 237 969 240 q 961 243 960 249 q 955 253 955 261 q 955 267 960 274 q 961 280 970 283 q 976 286 988 286 q 993 286 998 286 q 1003 286 1006 283 q 1015 279 1020 273 q 1021 270 1022 266 q 1024 262 1024 259 l 1012 256 q 1009 261 1008 264 q 1008 268 1005 270 q 1000 276 988 276 q 975 276 973 270 q 967 268 967 261 q 967 256 970 253 q 973 250 988 247 q 1005 241 1009 241 q 1014 238 1017 236 q 1020 234 1021 231 q 1026 228 1026 217 q 1026 208 1021 204 q 1018 199 1016 197 q 1014 195 1009 192 q 1000 189 993 189 q 985 189 980 189 q 975 190 970 192 q 967 195 964 197 q 960 199 957 204 q 954 208 952 212 q 951 216 951 222 z m 1044 190 l 1044 283 l 1111 283 l 1111 274 l 1057 274 l 1057 244 l 1107 244 l 1107 234 l 1057 234 l 1057 202 l 1113 202 l 1113 190 z m 307 388 q 307 403 285 406 q 282 406 278 407 q 273 408 267 408 l 258 397 l 234 372 q 228 364 222 358 q 217 352 210 348 q 219 345 232 343 q 235 343 241 343 q 246 343 250 345 q 273 346 285 357 q 307 375 307 388 z m 324 433 q 324 439 316 439 q 313 439 291 432 l 274 417 q 271 414 268 408 l 294 412 q 300 412 310 420 q 324 429 324 433 z m 343 460 q 343 457 339 457 q 336 457 335 458 q 334 459 331 459 q 316 456 297 436 q 300 439 304 441 q 307 442 310 444 q 321 445 330 444 q 336 444 336 436 l 336 430 q 328 417 294 409 q 321 406 321 391 q 321 373 292 354 q 282 348 271 344 q 259 340 247 339 q 228 334 217 336 q 208 336 198 340 q 189 334 181 334 l 178 334 q 169 337 163 339 l 168 339 q 180 339 187 345 l 187 346 q 177 340 165 340 q 148 340 139 349 q 124 360 124 381 q 124 387 126 392 q 127 397 130 405 q 141 427 166 444 q 174 451 182 454 q 190 456 198 457 q 214 457 220 451 q 213 456 205 456 q 196 456 186 450 q 171 444 169 441 q 154 433 139 415 q 126 394 126 379 q 126 372 128 368 q 129 363 132 358 q 138 349 148 346 q 153 345 156 344 q 159 343 162 343 q 168 343 172 344 q 177 346 183 349 q 166 361 166 382 q 169 402 190 417 l 187 412 q 184 412 181 406 q 172 397 172 387 q 172 367 195 354 q 207 361 207 363 q 210 367 213 370 q 216 373 219 376 q 222 379 222 383 q 223 388 226 393 l 226 391 q 226 384 225 379 l 243 400 q 289 453 319 462 q 306 466 298 466 q 279 465 256 453 q 229 439 229 420 q 229 414 234 409 q 235 408 235 406 q 226 412 226 421 q 226 438 246 454 q 270 472 297 469 q 306 469 324 463 l 330 463 q 337 463 342 460 z m 346 363 q 345 357 334 346 q 324 340 316 340 q 309 340 309 349 q 309 357 318 369 l 316 369 q 315 367 310 367 q 310 367 309 369 q 313 369 324 379 l 325 379 l 330 385 q 334 390 334 393 l 339 393 q 343 393 343 391 q 343 385 334 375 l 324 364 q 315 351 315 346 q 315 342 321 342 q 328 342 339 357 q 340 358 341 359 q 343 360 346 363 z m 354 405 q 348 396 339 396 q 334 396 328 400 l 333 400 q 343 400 346 411 l 346 414 l 354 411 q 355 409 354 405 z m 406 433 q 406 426 360 370 l 358 370 q 345 354 345 345 q 345 340 349 340 q 358 340 369 355 q 370 357 371 358 q 373 358 375 361 q 375 354 363 345 q 355 339 346 339 q 337 340 337 348 q 336 355 367 394 l 385 417 l 394 426 q 399 432 402 441 q 406 438 406 433 z m 432 433 q 432 427 384 370 q 369 352 369 345 q 369 340 375 340 q 381 340 394 355 l 400 361 q 399 354 387 345 q 379 339 370 339 q 361 340 361 348 q 361 357 391 394 l 409 417 l 418 426 q 426 435 427 441 q 432 438 432 433 z m 403 333 q 379 328 366 315 q 355 301 355 298 q 355 292 361 292 q 363 291 372 294 q 375 297 379 301 q 382 304 387 309 z m 447 430 q 444 409 427 393 q 427 391 427 391 q 426 391 426 390 q 421 384 416 378 q 411 373 406 366 q 403 363 403 360 q 402 363 405 369 q 396 355 396 348 q 396 343 400 343 q 402 343 408 346 q 430 364 439 397 l 439 393 l 439 388 q 442 385 442 381 q 442 378 435 366 l 423 346 l 409 328 q 414 331 426 337 l 424 336 q 421 333 416 329 q 411 325 406 318 l 394 303 l 388 295 q 379 286 369 283 q 360 283 355 289 q 346 292 352 303 q 354 304 356 307 q 357 310 360 313 l 361 315 l 351 313 q 376 331 393 333 q 394 333 396 333 q 397 334 399 334 l 400 334 l 403 334 l 412 348 q 406 342 402 341 q 397 340 394 340 q 387 340 387 348 q 387 366 418 394 l 421 396 l 436 411 q 439 417 442 422 q 445 426 447 430 z m 618 453 q 609 456 603 456 q 588 456 575 452 q 562 448 549 441 q 543 438 539 434 q 535 430 531 427 q 549 426 579 408 q 612 441 636 450 z m 649 447 q 643 445 636 443 q 630 441 622 433 q 618 430 600 412 l 589 402 l 604 393 q 607 397 613 404 q 619 411 627 420 z m 663 472 q 663 471 661 469 q 661 459 657 448 l 658 447 l 657 447 q 649 429 637 417 l 613 388 q 616 387 618 387 q 619 387 622 385 q 622 382 621 382 q 618 382 616 383 q 615 384 612 385 q 594 366 592 349 q 589 343 589 340 q 589 334 595 334 q 607 334 621 354 l 627 363 q 642 384 646 400 l 646 405 q 646 403 648 402 l 648 400 q 645 379 633 361 l 613 322 q 613 328 618 342 q 600 328 591 328 q 577 328 580 346 q 580 355 586 366 q 592 378 601 391 l 586 399 l 573 385 q 568 379 560 370 q 552 361 540 346 q 516 322 498 322 l 493 322 q 489 322 480 327 q 480 327 483 327 q 496 324 510 337 q 498 331 481 331 q 465 331 454 339 l 456 339 q 441 349 441 370 q 441 385 447 393 q 456 417 481 433 q 490 441 499 443 q 507 445 516 447 q 531 447 537 441 l 535 441 q 532 444 522 444 q 507 444 484 430 q 468 418 456 405 q 442 384 442 367 q 442 343 465 336 q 474 333 478 333 q 510 334 547 375 l 576 405 q 553 418 525 418 l 523 418 q 520 412 520 405 q 522 405 528 396 q 517 402 517 411 q 517 415 519 418 q 504 415 499 412 q 472 402 475 381 q 475 367 484 357 l 487 354 q 469 372 469 385 q 469 405 487 418 q 502 429 525 429 q 546 453 577 457 q 585 459 601 459 q 609 459 624 456 l 642 451 l 651 451 l 652 450 q 658 460 661 475 l 663 475 z m 682 375 q 682 370 681 367 q 673 360 668 354 q 663 348 658 340 l 660 340 l 661 340 q 660 339 658 339 q 657 339 657 337 q 649 337 649 340 q 649 346 663 360 q 673 373 673 376 q 675 381 669 385 q 651 360 637 354 l 631 351 l 628 352 q 634 352 648 367 q 661 379 666 387 q 666 388 665 388 q 664 388 664 390 q 664 391 675 400 q 675 402 676 402 l 678 400 q 678 399 670 388 q 682 384 682 375 z m 726 379 q 726 388 720 385 q 714 385 711 382 q 706 379 697 367 q 688 355 688 348 q 687 345 691 345 q 700 348 706 355 q 712 367 712 372 q 712 375 711 375 q 717 375 717 367 l 715 364 q 718 367 720 371 q 723 375 726 378 z m 754 393 q 748 393 741 385 q 735 378 729 369 q 723 360 715 348 q 708 333 702 324 q 696 316 694 313 q 675 289 664 289 q 655 288 651 295 q 651 303 651 303 q 651 310 657 316 q 654 315 649 315 q 664 330 682 334 q 684 334 684 335 q 685 336 688 336 l 690 334 q 661 325 655 307 q 654 304 654 300 q 654 298 655 297 q 655 295 657 295 q 669 294 685 318 l 696 333 l 702 342 q 697 340 694 340 q 682 340 682 352 q 682 366 702 384 q 711 393 718 393 q 729 393 729 381 l 730 381 l 738 390 q 745 397 751 397 q 756 397 759 393 z m 781 382 q 781 373 765 364 q 763 363 762 363 l 760 363 q 756 363 751 370 q 754 367 759 367 q 769 373 772 384 l 772 387 l 772 388 l 772 390 q 766 390 753 376 l 753 375 q 748 369 748 365 q 747 361 747 358 q 745 360 745 367 q 742 361 741 357 q 738 351 738 346 q 738 345 739 343 q 739 340 745 340 q 760 346 771 355 q 774 358 778 361 q 775 357 772 353 q 769 349 762 345 q 750 337 741 340 q 741 339 739 340 q 730 340 730 349 q 730 364 747 379 q 756 393 771 393 q 774 393 775 391 q 781 387 781 382 z m 841 433 q 841 427 793 370 q 780 354 780 345 q 780 340 784 340 q 793 340 804 355 q 805 357 806 358 q 808 358 810 361 q 810 354 798 345 q 790 339 780 339 q 772 342 772 348 q 772 360 801 394 l 819 417 l 828 426 q 837 435 837 441 q 841 438 841 433 z m 922 387 q 897 396 895 415 q 888 411 880 407 q 873 403 868 399 q 840 372 840 349 q 840 340 844 339 l 847 339 l 850 339 q 873 339 892 354 q 898 360 906 368 q 915 375 922 387 z m 952 430 l 940 430 q 922 429 897 417 q 900 396 925 391 l 936 405 z m 979 457 q 960 457 944 454 q 928 451 916 444 q 924 451 935 456 q 946 460 960 463 q 930 465 907 445 q 903 442 897 430 q 907 433 917 434 q 927 436 939 435 q 942 435 947 435 q 951 435 958 433 q 961 438 967 444 q 972 450 979 457 z m 1074 459 q 1071 454 1067 451 q 1063 447 1056 444 q 1044 436 1033 436 l 1030 436 q 1029 436 1027 438 q 1029 439 1029 441 q 1029 442 1032 445 q 1018 456 994 456 l 988 448 l 973 430 q 985 429 996 428 q 1006 426 1015 426 q 1036 426 1044 430 q 1038 424 1021 421 q 1008 418 994 423 l 970 427 q 964 420 959 414 q 954 409 951 403 l 940 388 l 948 388 q 985 391 991 406 l 993 406 q 988 397 973 390 q 966 387 959 386 q 952 384 946 384 l 939 384 q 928 372 921 363 q 915 354 909 348 q 889 327 873 327 q 865 328 856 328 q 871 328 888 343 q 867 334 855 334 l 846 336 l 858 324 q 846 330 838 337 q 837 337 831 340 q 813 354 811 375 q 811 382 811 388 q 811 394 814 400 q 819 414 826 423 q 834 433 844 444 q 870 466 889 466 q 900 466 907 460 l 906 459 q 901 463 892 463 q 873 460 852 444 q 834 429 825 414 q 813 393 813 375 q 816 348 837 340 q 834 349 835 358 q 838 381 852 397 q 868 418 897 430 q 900 433 900 439 l 913 453 q 933 469 964 469 q 972 469 977 469 q 982 469 990 468 l 991 468 q 1002 475 1010 479 q 1018 483 1027 481 q 1033 481 1036 478 q 1020 475 1020 475 q 1017 474 1013 472 q 1009 471 1005 468 q 1011 466 1017 466 q 1023 465 1030 462 q 1045 457 1054 457 q 1068 457 1074 459 z m 982 354 q 978 358 978 364 q 978 367 978 370 q 979 372 979 375 q 964 355 966 346 q 966 343 969 343 q 972 343 982 354 z m 1002 385 q 1002 388 999 388 q 996 388 993 387 q 991 385 988 379 q 981 364 981 360 q 981 355 982 354 l 987 358 l 987 360 l 987 358 q 988 360 988 361 q 988 361 990 363 q 993 372 993 375 q 993 376 991 378 q 994 372 994 370 q 999 375 1002 385 z m 1008 381 q 1008 373 997 358 q 984 345 978 340 l 966 340 q 957 340 957 348 q 957 360 973 379 q 984 393 997 393 q 1008 393 1008 381 z m 1057 384 q 1059 381 1051 367 q 1042 355 1039 352 l 1021 336 q 1011 325 1008 313 q 1009 331 1021 345 q 1027 351 1030 356 q 1033 360 1036 366 q 1038 367 1039 372 l 1039 367 q 1039 367 1038 364 q 1041 367 1047 379 q 1047 381 1048 382 q 1048 382 1048 384 q 1048 391 1041 388 q 1041 388 1029 379 q 1026 372 1021 367 q 1015 361 1009 354 q 1002 345 1000 340 q 999 339 993 327 q 993 330 992 334 q 991 337 993 340 q 996 351 1006 361 l 1015 372 q 1023 382 1023 388 q 1023 390 1022 391 q 1021 393 1021 394 q 1030 391 1030 385 q 1039 393 1050 393 q 1056 390 1057 384 z m 1116 405 l 1093 405 q 1092 402 1084 393 q 1075 384 1063 367 q 1060 367 1057 360 q 1051 352 1051 345 q 1051 340 1054 340 q 1062 340 1075 355 l 1077 357 q 1078 358 1078 359 q 1078 360 1080 361 q 1080 354 1069 345 q 1062 339 1051 339 q 1044 342 1042 348 q 1042 351 1048 363 l 1066 384 l 1083 405 l 1057 408 q 1051 409 1042 409 l 1029 409 q 1011 409 993 402 l 991 402 q 1006 417 1038 417 q 1039 417 1051 415 q 1062 412 1083 409 l 1087 408 q 1092 415 1096 421 q 1099 426 1102 430 q 1105 429 1105 423 q 1105 418 1102 415 l 1096 406 l 1108 405 l 1117 405 l 1119 405 l 1123 405 z m 1126 385 q 1126 381 1116 376 l 1114 375 q 1119 379 1119 387 l 1119 393 l 1114 393 q 1107 393 1105 387 q 1105 384 1110 361 q 1111 340 1086 340 q 1072 340 1069 349 q 1068 351 1068 354 q 1068 366 1086 369 l 1092 367 l 1089 367 q 1083 367 1080 364 q 1075 357 1075 354 q 1075 342 1087 342 q 1099 342 1099 358 q 1099 366 1098 370 q 1096 375 1096 381 q 1096 396 1110 396 q 1113 396 1114 395 q 1116 394 1119 394 q 1125 391 1125 390 q 1126 388 1126 385 z"},"S":{"x_min":0,"x_max":565,"ha":565,"o":"m 248 541 q 256 581 274 620 q 293 658 321 693 q 348 728 383 757 q 418 786 457 808 q 496 829 537 841 q 579 853 621 853 q 653 853 678 843 q 703 833 718 814 q 733 795 738 769 q 742 742 734 709 q 725 670 708 634 q 691 598 668 567 q 646 535 621 508 q 596 481 572 459 q 548 438 528 423 q 507 408 493 401 q 486 399 476 403 q 466 406 457 412 q 448 417 444 423 q 439 429 443 433 l 443 431 q 458 440 479 454 q 501 469 525 488 q 549 508 574 532 q 599 557 621 588 q 643 618 661 654 q 678 689 687 731 q 691 748 690 764 q 689 781 682 793 q 675 806 662 813 q 648 821 628 821 q 592 821 556 809 q 520 797 486 776 q 453 755 423 726 q 393 698 370 664 q 346 631 330 595 q 314 558 308 522 q 305 492 312 464 q 318 436 330 409 q 342 383 358 359 q 373 335 389 312 q 401 295 412 277 q 424 258 434 239 q 444 220 451 201 q 458 181 459 161 q 460 128 449 98 q 439 68 419 42 q 400 16 373 -6 q 346 -27 314 -43 q 283 -58 248 -67 q 213 -75 177 -75 q 149 -75 120 -66 q 91 -57 66 -40 q 42 -23 26 2 q 9 28 9 61 q 9 84 17 106 q 26 128 39 148 q 53 168 70 185 q 88 202 106 215 q 125 228 143 237 q 161 245 175 248 q 192 253 204 252 q 216 252 223 247 q 231 242 233 234 q 235 227 231 217 q 202 213 168 199 q 135 184 108 162 q 80 140 63 111 q 46 82 47 49 q 49 31 58 15 q 67 -1 82 -13 q 97 -26 117 -35 q 136 -44 158 -47 q 185 -49 215 -41 q 245 -33 273 -19 q 301 -4 325 15 q 350 35 367 58 q 383 81 391 105 q 399 130 393 154 q 383 191 364 224 q 345 257 324 289 q 306 316 289 346 q 272 376 260 407 q 248 439 244 472 q 240 506 248 541 z"},"Z":{"x_min":0,"x_max":721,"ha":721,"o":"m 1069 824 q 1076 826 1085 823 q 1094 821 1104 815 q 1113 810 1121 803 q 1129 796 1133 789 q 1137 783 1136 777 q 1134 772 1126 770 q 1034 744 947 706 q 859 667 774 618 q 776 615 774 613 q 773 611 774 608 l 777 609 q 778 611 779 611 q 779 612 780 613 q 781 614 781 615 q 781 616 782 616 q 783 616 784 617 l 786 617 l 786 616 q 788 614 788 610 q 788 605 786 599 q 784 594 782 589 q 779 584 778 582 q 777 579 774 578 q 772 576 769 573 q 771 573 772 573 q 774 574 776 574 q 777 576 779 576 q 781 576 782 574 l 782 573 q 783 572 783 572 q 784 571 779 565 q 775 559 772 558 q 767 551 762 550 q 760 548 754 546 l 751 544 l 747 542 q 744 541 742 540 q 739 539 737 539 q 731 539 726 536 q 724 536 720 536 q 716 536 711 535 q 707 535 703 535 q 699 535 697 536 q 693 536 689 537 q 684 538 679 538 q 674 541 668 542 q 662 543 657 546 l 622 522 q 623 519 625 516 q 626 513 627 511 l 628 511 l 646 505 q 661 501 673 494 q 686 488 697 477 q 701 474 702 470 q 703 467 704 462 q 703 461 703 459 q 703 458 702 457 q 701 456 699 455 q 698 453 697 451 q 694 450 689 451 q 684 451 679 452 q 674 453 670 454 q 666 454 663 455 q 659 457 652 456 q 646 456 642 456 l 626 448 q 626 446 626 442 q 627 438 627 434 q 627 429 627 426 q 627 422 626 421 l 626 419 q 623 418 621 420 q 618 423 616 424 q 616 423 617 422 q 617 421 618 419 q 618 414 618 411 q 619 407 619 402 q 619 397 619 392 q 618 387 616 382 l 612 372 q 612 369 613 366 q 614 362 616 361 q 621 354 623 351 q 626 348 629 338 l 629 337 l 630 337 l 629 336 l 627 334 q 626 333 624 333 q 623 333 619 332 q 618 332 616 331 q 613 331 610 329 q 607 328 604 328 q 602 327 601 326 q 598 326 596 324 q 593 322 591 321 q 589 319 584 319 q 582 317 576 316 q 571 316 568 316 q 572 313 576 310 q 579 307 582 304 q 583 303 586 300 q 589 297 589 294 q 592 288 591 282 q 590 276 586 272 q 582 268 576 266 q 571 263 566 259 q 560 254 555 251 q 549 247 544 244 l 539 241 l 534 239 q 529 237 521 236 q 512 236 506 235 l 506 231 l 509 224 q 511 220 512 217 q 513 213 514 212 q 514 204 516 197 q 518 190 519 182 q 519 178 519 171 q 519 164 519 157 q 518 149 517 143 q 516 137 513 134 q 510 131 503 131 q 502 131 502 132 q 502 132 501 132 q 498 133 496 133 q 493 133 491 133 q 475 137 461 146 q 447 155 434 166 q 433 167 431 169 q 428 171 426 172 q 422 175 416 181 q 411 186 409 187 q 408 187 406 184 q 404 181 402 178 q 399 174 397 171 q 394 167 393 166 q 391 162 387 159 q 377 150 369 145 q 360 141 349 136 q 344 132 340 128 q 336 124 331 121 l 318 114 q 317 114 314 113 q 312 113 311 113 q 307 112 304 110 q 301 108 297 106 q 294 103 291 101 q 287 99 283 98 l 283 99 l 281 102 q 278 107 278 111 q 277 116 277 121 q 276 122 277 123 q 277 124 276 127 q 277 128 273 132 q 269 135 269 142 l 266 164 q 266 168 267 171 q 267 174 267 177 q 266 184 267 192 q 267 194 268 198 q 268 202 269 206 q 271 211 272 215 q 273 219 274 221 q 276 223 276 226 q 276 227 272 227 l 267 227 q 248 208 231 190 q 214 172 198 155 q 199 153 199 152 q 200 151 199 149 q 205 146 207 139 q 208 138 211 137 q 213 136 217 135 q 220 134 223 135 q 226 135 228 136 q 230 136 233 139 q 236 141 236 142 q 236 143 235 147 l 234 147 q 235 146 234 144 q 232 141 231 140 q 220 129 210 142 q 204 147 206 156 q 208 164 213 169 q 217 172 219 172 q 222 172 226 173 q 227 173 227 173 q 228 173 228 174 q 229 174 230 174 q 231 174 232 173 q 233 173 234 173 q 240 172 243 169 q 246 166 251 161 q 254 158 254 154 q 254 151 256 148 l 256 144 q 257 143 256 137 q 256 131 254 129 q 253 128 252 126 q 251 123 248 122 q 243 118 235 115 q 227 112 221 113 q 216 114 208 119 q 200 123 196 127 q 189 134 187 139 q 186 135 184 130 q 182 124 180 119 q 178 114 176 109 q 173 104 170 102 q 168 99 167 99 q 166 98 164 97 q 164 91 157 84 q 151 78 145 78 q 139 78 131 79 q 104 45 87 18 q 70 -8 63 -26 q 85 -17 102 -12 q 119 -6 136 -4 q 153 -3 171 -5 q 189 -7 214 -14 q 286 -33 349 -28 q 412 -24 466 6 q 520 36 566 93 q 613 150 652 236 q 654 241 660 235 q 665 229 670 218 q 676 207 679 193 q 683 179 683 168 q 682 135 664 105 q 647 75 620 49 q 593 22 560 0 q 527 -22 495 -38 q 463 -54 435 -63 q 407 -73 390 -74 q 358 -76 327 -70 q 296 -64 265 -56 q 234 -47 202 -40 q 171 -33 137 -33 q 111 -33 79 -41 q 47 -49 13 -66 q 9 -68 6 -65 q 3 -63 1 -59 q -1 -55 -1 -51 q -2 -48 -2 -47 q 12 10 53 74 q 94 138 156 206 q 156 207 159 211 q 161 213 162 215 q 163 217 166 218 q 166 226 166 230 q 167 234 172 239 q 174 241 179 243 q 183 246 186 247 l 191 247 l 195 252 q 200 256 204 262 l 211 264 l 237 289 l 235 291 q 231 296 229 298 q 227 300 226 304 l 224 308 l 224 311 q 223 313 224 318 q 224 323 226 324 q 226 325 227 326 q 227 326 227 326 l 224 328 q 222 331 218 332 q 214 334 213 336 q 212 337 211 339 q 211 341 209 343 q 205 346 200 348 q 194 350 190 356 l 185 361 l 187 364 q 190 367 192 368 q 194 368 197 370 q 200 372 202 375 q 205 378 209 380 q 211 381 212 384 q 214 388 216 389 q 224 395 235 401 q 247 406 256 407 l 268 406 q 271 408 273 409 q 275 409 278 409 q 281 411 282 410 q 284 409 287 411 q 288 412 289 412 q 290 411 291 412 q 295 413 297 413 q 299 413 302 416 q 303 416 307 416 q 312 415 317 414 q 323 413 331 413 l 343 409 l 344 409 l 344 411 q 347 413 348 416 q 349 418 352 421 q 353 427 356 431 l 341 434 q 341 436 340 436 q 339 436 338 436 q 336 437 332 438 q 328 440 323 442 q 319 444 315 446 q 312 448 310 449 q 308 452 306 453 q 303 454 302 457 q 291 465 281 476 q 277 481 275 483 q 273 486 272 491 l 271 492 l 270 493 l 264 500 q 262 503 259 506 q 257 509 256 513 l 256 516 l 257 516 q 257 517 257 517 q 258 518 260 518 q 262 518 264 518 q 267 519 274 522 q 282 524 283 527 q 286 528 287 530 q 288 531 291 532 l 297 536 q 296 537 295 538 q 294 538 294 539 q 288 546 286 553 q 285 560 293 567 q 297 571 301 573 q 306 574 310 577 l 323 579 q 325 633 342 674 q 359 714 387 742 q 415 771 452 790 q 489 808 533 819 q 576 829 623 834 q 670 838 718 838 q 756 838 794 835 q 832 833 871 829 q 909 826 948 824 q 987 821 1027 821 q 1041 821 1051 822 q 1061 823 1069 824 z m 1071 793 q 988 793 906 796 q 823 799 735 799 q 689 799 647 796 q 604 793 567 784 q 529 774 498 758 q 466 742 442 716 q 418 690 402 653 q 386 616 381 565 q 387 562 393 559 q 399 557 404 554 l 417 546 q 416 550 415 554 q 414 557 416 561 l 416 579 q 414 582 414 584 q 414 587 414 589 q 413 594 413 599 q 413 604 412 610 q 409 616 409 622 q 408 628 407 634 q 406 638 407 642 q 408 646 409 651 q 408 655 408 659 q 409 664 412 667 q 418 671 420 671 q 423 671 427 669 q 431 666 435 663 q 439 659 443 656 q 447 652 449 649 q 455 641 461 633 q 467 625 470 617 q 472 614 472 610 q 473 606 476 602 l 480 611 q 482 615 485 618 q 488 621 491 625 l 496 632 q 498 633 501 633 q 504 633 506 632 q 511 628 510 622 q 509 617 506 611 q 503 606 500 602 q 497 597 496 594 q 493 586 496 580 q 496 586 499 590 q 503 594 507 595 q 510 595 514 591 q 517 591 518 592 q 519 593 521 595 q 522 597 522 599 q 522 602 523 604 q 524 607 524 608 q 524 609 525 611 q 526 615 526 618 q 526 620 527 623 l 533 634 l 534 634 q 538 636 541 635 q 543 635 546 631 q 549 628 549 623 q 550 618 549 614 q 548 609 548 606 q 547 602 547 601 q 549 602 554 603 q 558 603 563 603 q 568 603 573 602 q 577 601 579 599 q 579 598 579 598 q 580 598 581 598 q 582 597 582 592 q 584 595 586 595 q 587 596 589 594 q 592 593 593 593 q 594 593 596 592 q 598 592 600 594 l 613 604 q 621 608 632 609 q 642 609 653 611 q 657 611 660 613 q 663 615 667 616 q 667 617 668 617 q 669 617 669 616 l 671 614 l 671 612 q 672 612 673 613 q 672 616 670 619 q 669 622 668 626 q 664 643 671 657 q 673 660 674 662 q 675 663 678 666 q 689 676 699 681 q 709 686 726 681 q 730 681 732 680 q 735 678 739 677 q 739 677 742 676 q 744 674 747 672 q 749 670 751 668 q 753 667 754 666 l 758 661 q 841 704 919 739 q 998 773 1071 793 z m 359 253 q 358 253 356 254 q 355 255 354 256 q 353 256 353 255 l 352 254 l 352 255 q 352 255 351 256 l 353 256 l 352 257 l 313 272 q 310 273 308 273 q 305 273 302 274 l 302 276 q 304 276 313 273 q 322 270 331 266 q 341 262 349 259 q 358 255 359 254 l 359 253 l 369 256 q 372 256 375 256 q 378 257 380 258 l 377 259 q 376 260 375 260 q 374 260 374 261 l 373 261 q 373 261 373 262 l 373 260 q 372 259 372 259 q 372 260 371 259 q 370 260 369 260 q 369 261 368 261 l 367 262 l 366 263 q 367 264 366 266 l 364 264 l 363 264 l 361 267 l 361 269 q 362 269 362 269 q 363 270 364 269 q 364 268 365 268 q 366 268 366 267 l 367 267 q 367 267 368 266 l 369 267 q 368 267 368 267 l 367 267 l 367 267 q 366 268 366 268 q 366 269 367 269 q 367 272 369 270 q 369 269 371 269 l 372 269 q 373 268 372 268 q 372 267 372 266 q 372 265 372 265 l 371 265 l 372 264 q 373 263 376 261 q 379 259 381 259 q 381 258 382 258 l 382 259 l 383 259 q 382 260 382 261 q 383 262 383 263 l 382 265 q 382 268 381 269 q 381 270 377 272 q 373 274 368 277 l 356 284 q 352 282 349 284 q 348 286 348 286 q 348 287 347 288 q 344 291 339 292 q 338 293 338 293 q 337 294 336 294 q 320 302 304 308 q 289 313 273 317 q 268 318 262 319 q 256 319 251 321 q 251 322 253 322 l 256 322 q 258 322 260 322 q 262 321 263 321 q 270 320 281 318 q 291 316 302 312 q 313 308 323 304 q 333 300 340 296 q 342 294 345 294 q 348 293 349 292 q 351 293 351 294 q 352 295 353 296 q 350 298 346 299 q 342 301 340 303 l 340 304 q 342 304 348 301 q 353 298 355 297 l 357 299 q 357 299 356 300 q 355 301 354 301 l 354 304 q 353 304 348 306 q 344 308 344 308 q 343 311 338 312 q 333 314 332 316 q 331 316 331 317 l 331 317 q 335 315 338 313 q 344 309 346 309 l 346 308 l 347 309 l 346 309 l 346 313 q 346 312 347 312 l 347 312 l 348 312 l 348 312 q 349 312 349 311 l 350 311 q 349 309 348 309 l 348 308 l 362 301 q 363 299 366 301 q 368 302 370 299 q 369 299 370 299 q 371 299 371 298 q 371 297 372 297 q 372 297 373 296 q 374 294 373 292 l 374 292 q 378 291 381 288 q 384 286 388 286 l 389 284 l 391 284 q 388 287 388 288 q 387 289 385 288 q 384 288 383 289 q 382 291 382 291 l 382 292 q 382 292 381 292 q 378 296 374 299 q 371 302 369 303 l 368 304 l 367 306 q 376 300 382 293 q 383 294 385 294 l 388 291 l 388 289 l 389 288 l 391 289 l 387 293 l 388 293 q 389 292 391 291 q 393 289 394 288 q 394 290 396 288 l 394 292 l 393 292 q 393 293 392 293 q 392 294 392 293 l 388 297 q 388 296 387 296 l 387 296 q 386 296 386 295 l 386 294 l 387 294 l 386 294 q 383 297 381 299 q 379 301 378 301 q 377 302 374 304 q 372 307 369 308 l 368 309 l 368 311 q 371 309 372 308 q 373 307 374 306 l 376 304 l 380 304 q 381 303 381 303 l 381 303 q 379 302 380 301 q 381 301 382 299 q 383 298 384 297 l 384 298 l 386 299 l 384 301 l 382 304 q 378 307 376 310 q 373 313 370 316 l 366 318 l 364 321 l 363 322 q 362 323 361 324 q 359 326 358 326 q 356 328 354 329 q 352 331 350 332 q 354 329 357 328 q 361 326 362 325 l 362 324 l 363 324 q 363 326 363 328 q 363 329 364 331 q 363 333 359 336 q 356 338 353 340 q 351 341 345 343 q 339 344 332 346 q 326 348 319 348 q 313 349 311 347 q 311 348 308 348 q 305 347 302 347 l 299 347 q 293 347 284 345 q 275 343 266 340 q 257 337 249 332 q 241 328 236 324 q 228 316 232 309 q 236 301 242 296 q 245 293 250 289 q 254 284 259 280 q 264 276 269 272 q 274 268 277 266 l 304 251 l 326 236 q 326 237 327 238 q 330 239 334 240 q 338 242 341 244 q 339 247 336 248 q 332 248 331 250 l 331 251 q 334 249 336 248 q 342 246 343 246 q 346 247 346 248 q 347 248 348 249 z m 646 573 q 643 573 643 574 q 642 573 638 574 q 633 576 631 577 q 627 577 622 578 q 617 579 613 579 q 611 582 608 582 q 606 583 603 584 l 599 584 q 599 583 598 583 q 601 582 602 582 q 604 581 607 580 l 617 577 l 628 574 q 634 574 639 571 l 637 571 l 637 571 q 636 571 636 572 q 636 572 634 572 l 634 572 q 633 572 634 572 l 631 572 l 631 573 l 611 577 q 608 577 603 578 q 598 579 597 581 l 596 581 l 596 577 q 602 576 608 574 q 614 572 621 569 l 631 565 l 641 559 q 642 559 643 558 q 644 558 646 557 q 649 558 649 557 q 650 556 651 556 l 651 556 q 655 553 660 552 q 664 551 669 549 q 673 548 676 547 q 679 546 684 545 q 687 544 690 544 q 694 544 697 544 q 697 543 698 543 l 699 543 q 702 542 704 542 q 707 543 709 543 q 713 544 716 543 q 719 542 724 543 q 735 544 747 550 q 759 555 768 563 q 768 563 769 563 q 771 565 772 566 q 769 567 765 566 q 762 564 759 566 q 753 567 745 568 q 737 568 731 566 l 726 563 q 723 562 722 559 q 719 559 716 557 q 712 556 711 554 q 708 553 706 551 q 703 549 702 549 q 707 552 710 554 q 713 557 716 561 q 720 562 724 564 q 727 566 730 567 q 738 572 748 577 q 754 580 761 585 q 768 590 773 593 q 770 589 763 584 q 756 579 751 577 q 751 574 749 574 q 748 574 748 573 q 751 574 752 573 q 753 572 755 571 l 767 581 q 777 588 780 603 q 779 603 779 601 q 763 601 752 592 q 748 588 746 585 q 744 582 741 578 l 739 578 q 741 581 743 584 q 746 586 747 589 q 747 592 748 592 q 748 593 748 594 l 748 596 l 749 596 q 748 597 748 602 q 749 606 749 607 q 749 609 749 611 q 749 613 748 616 l 749 616 l 749 617 l 751 617 l 751 594 q 752 595 752 599 q 753 603 753 608 q 753 612 753 616 q 753 621 753 622 q 754 618 754 610 q 754 601 754 598 q 756 598 755 598 q 754 599 756 599 q 757 601 757 605 q 757 609 757 614 q 757 618 757 622 q 757 626 757 628 q 760 621 759 615 q 759 609 758 602 l 759 601 l 759 602 l 761 602 q 762 609 761 615 q 760 622 761 626 q 762 620 762 615 q 763 609 763 604 q 763 603 764 603 l 766 604 q 766 609 767 614 q 768 619 767 624 q 766 632 761 641 q 756 651 751 657 l 746 662 q 737 670 730 672 q 723 675 711 674 l 704 674 q 699 673 694 669 q 688 665 684 662 q 683 661 682 659 q 681 657 679 656 q 678 653 676 651 q 674 648 674 646 q 673 639 673 634 q 674 628 677 621 q 678 618 678 617 q 678 616 681 613 q 683 611 686 609 q 688 607 691 606 q 692 606 695 605 q 698 603 702 603 q 706 603 711 604 q 717 606 723 611 q 727 613 728 616 q 728 618 729 622 q 730 629 729 633 q 727 638 723 643 q 718 647 712 648 q 705 648 701 644 q 697 643 697 641 q 692 633 698 628 q 699 627 701 625 q 702 624 704 624 l 706 624 q 707 624 709 626 q 712 628 713 633 l 711 636 l 713 636 l 713 634 l 714 634 q 716 633 715 631 q 714 628 713 627 q 713 628 711 626 l 707 622 q 704 623 701 623 q 698 623 696 625 q 696 626 695 628 q 693 630 692 631 q 692 633 692 636 q 692 639 693 642 l 694 643 l 704 651 l 706 651 q 714 652 719 649 q 724 647 729 643 q 731 642 731 641 q 731 641 732 639 q 733 637 733 634 q 734 632 734 629 q 736 626 735 623 q 734 620 734 617 q 733 616 733 613 q 733 609 733 608 q 733 603 730 595 q 727 588 723 584 q 722 582 718 580 q 713 579 712 576 q 706 574 700 573 q 694 572 687 572 q 686 573 685 573 q 683 574 681 574 q 678 576 676 576 q 673 576 672 577 q 671 577 669 578 q 667 578 664 581 q 662 581 659 582 q 657 583 656 584 q 653 586 649 586 q 646 587 643 588 l 643 589 q 645 587 647 591 q 648 591 651 593 q 653 594 655 596 q 657 598 659 601 q 661 604 662 607 q 654 604 647 604 q 641 603 636 602 q 632 602 627 601 q 623 600 618 598 q 613 597 608 593 q 607 592 606 591 q 606 591 604 588 q 605 588 610 589 q 614 591 620 592 q 625 594 630 596 q 634 597 636 597 q 640 598 643 598 q 647 598 649 599 l 649 598 q 647 598 641 596 q 636 595 630 593 q 624 591 619 589 q 614 588 614 587 l 614 586 q 618 586 623 587 q 628 588 631 587 l 623 584 q 631 584 638 582 q 646 581 654 578 q 655 577 658 577 l 657 577 q 651 577 640 579 q 629 582 623 581 q 626 580 629 579 q 633 579 635 578 l 636 577 q 637 577 638 577 q 639 576 641 576 q 642 575 643 574 q 644 574 646 574 z m 510 139 q 514 153 513 166 q 512 179 509 194 q 508 204 506 214 q 504 224 499 232 q 498 235 497 236 q 496 237 494 239 q 494 241 493 242 q 493 243 493 244 q 489 247 486 248 q 479 253 474 256 q 468 258 459 259 q 458 259 456 260 q 455 261 454 260 q 457 257 459 254 q 462 252 464 249 l 468 246 q 466 247 463 249 q 461 251 458 254 q 456 257 453 259 q 451 261 449 261 l 449 255 q 449 254 450 253 q 451 253 451 252 q 450 253 448 253 l 446 249 q 444 245 441 246 q 438 247 437 248 q 436 249 435 254 q 434 258 433 261 q 430 257 424 261 l 424 259 l 426 259 l 427 257 l 427 257 q 427 256 426 255 q 434 249 439 243 q 445 237 451 232 q 453 229 456 226 q 459 222 462 218 q 461 218 459 219 q 458 219 457 221 l 451 231 l 442 239 l 441 238 q 439 237 438 238 q 437 237 437 238 q 437 238 436 240 l 436 241 q 437 241 437 242 l 437 242 q 438 241 441 241 q 439 242 439 243 q 438 244 437 245 q 436 246 434 246 l 433 246 q 432 244 432 244 q 431 244 431 244 l 431 245 l 431 246 q 431 247 429 248 q 428 248 427 249 l 428 249 l 429 251 q 429 252 428 253 q 427 253 426 255 l 426 254 q 426 253 426 253 q 425 254 424 253 l 422 256 l 421 256 l 421 258 l 423 261 q 420 260 418 260 q 417 261 414 259 l 421 254 l 429 241 q 441 233 448 225 q 454 219 458 212 q 463 206 469 199 q 478 190 489 176 q 499 161 504 149 l 503 149 l 502 148 q 502 149 502 150 q 501 151 501 152 q 499 154 498 157 q 496 159 493 162 q 492 166 489 170 q 487 173 484 176 q 482 180 479 183 q 476 186 474 189 q 473 192 472 192 q 472 193 471 194 l 446 223 q 443 226 441 229 q 438 232 435 234 q 433 235 433 234 q 433 233 432 234 l 431 236 q 429 237 430 238 q 431 238 431 239 l 429 240 q 429 239 428 240 q 428 239 427 239 q 426 241 424 241 l 423 241 q 425 239 423 239 l 423 237 l 422 237 l 421 238 l 421 239 q 418 241 417 243 q 416 246 414 247 l 413 246 l 412 246 l 412 247 q 412 247 411 247 l 411 248 q 412 248 412 249 l 411 251 q 409 252 408 253 q 407 254 404 257 l 401 254 l 401 249 q 402 248 402 246 q 403 244 404 243 l 406 243 l 406 244 l 407 244 q 407 246 409 246 q 404 251 403 253 l 403 254 l 407 249 l 407 251 q 408 252 409 252 l 409 247 q 411 246 412 244 q 413 242 414 241 l 414 240 l 411 244 q 412 243 411 242 q 411 242 409 240 l 409 238 q 412 238 412 237 l 412 235 q 412 234 413 235 q 414 236 414 236 q 416 236 416 234 q 417 233 418 234 l 419 233 l 419 232 q 418 232 418 230 q 418 229 419 229 l 418 227 l 417 227 l 416 228 l 411 235 l 410 235 q 409 238 406 240 q 403 243 402 244 l 401 247 q 401 244 401 242 q 402 241 399 238 l 398 237 q 398 237 398 237 l 397 236 q 394 236 394 237 q 394 237 393 238 q 391 235 392 230 q 394 226 396 220 q 398 214 401 209 q 404 204 406 202 q 407 199 409 198 q 411 197 411 194 q 415 190 419 187 q 423 183 428 181 q 440 167 455 157 q 470 146 488 141 q 492 139 494 139 q 497 139 501 138 q 502 138 503 137 q 504 136 506 136 q 507 136 508 137 q 508 137 509 138 z m 416 334 q 418 337 416 337 l 416 338 q 414 339 414 341 l 414 342 l 417 344 l 418 344 q 418 344 418 349 q 419 353 420 358 q 421 363 421 367 q 422 371 422 372 q 422 371 422 366 q 421 362 421 356 q 420 350 419 345 q 419 340 419 339 q 419 342 421 344 q 422 346 423 349 l 422 349 l 422 350 q 420 352 422 352 q 423 352 423 353 l 424 352 l 424 351 q 427 353 428 356 q 427 356 427 356 l 427 356 l 426 356 q 426 356 426 357 q 425 357 424 358 l 427 358 l 427 359 l 428 359 l 428 358 l 428 358 l 428 357 q 428 356 429 356 l 431 356 l 431 357 l 432 357 q 432 358 432 358 q 433 358 433 359 l 433 357 l 436 356 q 436 354 437 353 q 438 357 439 358 q 439 364 442 374 q 442 367 440 361 q 439 356 439 352 q 438 349 438 348 q 439 347 439 346 q 441 338 438 332 q 436 327 431 323 q 429 321 429 319 q 429 317 428 314 l 427 313 l 427 312 q 427 312 426 311 l 426 308 q 425 307 424 306 q 424 304 424 304 q 427 307 429 312 q 432 317 433 318 q 437 326 441 333 q 445 341 448 349 q 452 359 456 374 q 459 389 458 400 q 458 409 456 420 q 456 422 454 424 q 453 427 454 428 q 457 427 458 421 q 459 415 458 411 q 459 406 459 401 q 459 396 459 391 q 459 383 458 373 q 457 362 454 354 q 453 352 452 349 q 450 345 448 341 q 447 337 445 333 q 444 329 444 329 q 443 328 442 325 q 441 322 439 319 q 434 311 430 304 q 425 297 421 289 l 419 286 q 422 288 425 291 q 428 294 431 296 q 431 297 432 299 q 433 301 434 302 q 432 303 432 306 l 432 307 l 433 308 l 434 307 l 436 307 l 437 307 l 437 308 q 437 308 437 309 l 437 311 l 439 315 l 439 314 l 440 314 q 441 314 443 312 q 442 311 442 310 l 441 308 l 442 308 l 444 309 l 444 309 l 442 304 q 443 304 444 305 q 444 306 446 306 l 446 312 l 445 311 l 445 312 l 446 314 q 446 315 447 317 q 447 318 447 319 q 447 320 448 321 l 454 326 l 452 321 q 453 321 455 322 q 457 322 457 321 l 458 322 q 459 323 460 325 q 462 327 463 328 q 463 327 461 324 q 459 322 458 319 q 459 318 459 317 q 459 316 460 315 q 462 317 463 317 q 463 318 462 318 l 462 319 q 463 321 463 321 q 463 321 464 322 l 466 322 q 467 323 468 324 q 468 325 469 326 l 471 326 q 469 326 468 324 q 467 322 466 319 q 465 318 464 318 q 464 319 463 318 q 464 317 463 316 q 462 316 461 314 q 461 312 461 309 q 460 306 461 303 l 469 312 q 472 313 473 315 q 474 316 476 317 l 477 317 l 470 310 q 468 308 467 307 q 466 307 464 305 l 464 304 q 464 303 464 303 q 465 304 466 303 l 466 301 q 464 299 465 299 q 465 298 464 297 q 463 296 463 297 q 463 298 462 298 l 462 297 l 461 297 q 459 294 459 292 q 458 291 457 289 q 454 287 453 286 q 452 286 449 288 q 448 289 448 288 q 447 288 446 289 l 446 291 l 444 292 q 443 292 442 291 q 441 289 439 288 q 438 287 439 287 q 441 286 438 285 l 438 284 l 437 284 q 437 284 436 285 l 436 286 l 428 280 q 427 278 426 278 q 425 277 424 276 q 424 274 428 275 q 431 276 431 277 q 446 280 457 287 q 468 293 478 303 q 481 306 485 309 q 488 312 491 316 q 492 318 493 324 q 494 329 494 332 q 495 342 494 353 q 493 365 491 376 q 488 388 483 398 q 478 408 472 416 q 467 421 459 427 q 452 432 444 431 l 443 431 q 442 431 441 431 q 441 430 438 431 l 434 428 q 431 426 431 424 q 428 423 426 420 q 423 417 421 414 q 421 412 416 402 q 412 393 408 382 q 403 372 399 363 q 394 354 394 352 q 392 349 394 346 q 393 340 395 336 q 397 331 398 327 q 399 324 401 323 q 402 322 403 319 l 404 318 q 407 330 407 339 l 408 361 q 409 362 408 365 q 408 367 409 368 q 411 360 409 353 l 409 337 q 408 336 408 333 q 407 329 407 326 q 407 323 406 320 q 406 317 406 316 q 407 313 409 307 q 412 301 413 299 q 414 299 414 301 l 416 307 q 417 310 418 312 q 418 315 418 316 q 417 317 417 318 q 417 319 416 319 l 415 321 l 415 319 q 414 319 414 318 l 414 316 q 415 315 415 314 q 415 314 416 313 q 416 313 416 313 q 416 312 415 311 l 414 311 l 414 310 q 414 309 413 309 q 412 307 412 305 q 411 308 412 309 q 411 310 411 311 q 411 311 409 311 q 409 313 410 313 q 411 313 411 314 q 412 314 413 316 q 413 317 413 318 q 414 319 414 320 l 413 321 l 412 321 l 412 320 l 411 321 q 411 322 412 322 l 412 322 l 412 323 l 413 324 l 414 325 l 414 324 q 414 325 415 326 q 415 323 416 323 l 418 324 l 421 324 q 417 332 419 339 l 416 332 z m 388 245 q 387 247 386 250 q 386 253 384 254 q 383 254 381 253 q 379 253 378 253 q 375 252 372 252 q 370 252 366 251 q 357 247 348 243 q 338 239 329 231 q 324 226 322 220 q 320 215 317 208 q 313 195 310 184 q 308 174 305 162 q 304 159 301 152 q 299 145 299 144 l 299 143 q 303 143 303 143 q 307 142 313 141 q 319 141 324 141 q 327 139 330 140 q 333 141 336 141 q 351 142 361 149 q 372 156 383 166 q 390 172 395 179 q 401 186 406 194 l 406 195 q 404 197 403 199 q 402 201 401 202 q 400 202 398 199 q 397 196 395 192 q 393 188 391 184 q 389 181 388 179 l 387 179 l 387 178 l 381 169 q 379 169 379 168 l 379 169 l 392 189 q 393 191 393 191 q 394 192 394 194 q 397 197 398 199 q 398 201 400 203 q 399 206 398 207 q 397 209 397 212 l 396 212 l 394 209 q 394 211 395 211 q 396 212 396 213 q 394 214 394 214 q 394 214 394 217 l 393 217 q 392 217 392 217 q 392 217 392 217 l 391 216 l 390 213 l 390 211 l 389 209 l 389 208 l 388 209 l 387 208 q 386 206 384 201 q 381 197 378 192 q 374 187 372 183 q 369 179 367 178 l 373 187 l 380 197 q 380 198 379 198 q 379 198 379 199 l 379 201 l 381 201 q 381 202 382 201 l 383 202 q 384 205 386 209 q 388 213 388 214 l 387 214 q 386 214 386 215 l 386 216 l 389 219 l 391 219 l 391 218 q 391 217 390 217 l 391 217 q 393 218 392 221 q 391 224 391 227 q 390 226 388 223 q 387 221 385 217 q 383 214 381 211 q 379 208 379 207 q 369 187 349 168 q 346 165 342 161 q 337 157 332 154 q 326 150 320 148 q 314 145 310 146 q 309 146 312 147 q 316 148 317 149 q 325 153 332 158 q 339 163 346 169 q 349 172 353 177 q 358 182 362 187 q 366 192 370 197 q 373 202 375 206 q 376 207 378 211 q 381 214 382 219 q 384 224 386 228 q 388 232 388 234 q 391 236 390 237 q 389 238 391 241 q 391 243 389 244 q 387 241 384 238 q 382 235 379 232 q 374 226 368 221 q 362 215 358 209 q 354 205 351 201 q 347 197 342 192 q 342 192 341 192 q 342 193 349 200 q 355 207 361 216 l 381 237 l 379 237 l 378 237 q 378 237 378 238 l 377 239 q 378 239 378 240 l 378 241 l 378 242 l 371 236 l 371 239 l 373 239 q 374 239 374 240 q 374 241 376 241 l 378 242 q 377 243 377 243 l 376 243 l 376 244 l 377 246 l 379 246 q 379 244 381 243 q 381 244 382 244 q 383 244 384 243 l 385 243 q 384 242 384 242 l 384 241 q 386 241 386 242 q 387 244 388 245 z m 488 269 q 489 268 489 266 l 488 265 l 488 264 q 491 266 493 266 q 496 267 498 266 l 496 264 q 493 263 485 261 q 476 259 473 259 l 474 259 q 477 259 478 257 q 478 256 481 254 q 483 254 488 256 q 493 257 498 258 q 502 259 506 260 q 511 261 513 260 l 512 259 q 506 257 498 257 q 491 257 484 254 q 484 253 486 252 q 487 252 487 251 l 501 254 q 506 255 510 256 q 514 256 516 257 l 517 257 l 517 256 q 510 254 503 253 q 497 252 490 251 q 492 248 493 247 q 494 246 497 244 l 499 241 l 505 242 q 507 243 509 243 q 511 243 512 243 q 521 244 526 245 q 532 246 536 248 q 541 250 545 253 q 549 257 557 262 q 558 262 560 263 q 563 264 564 266 q 566 266 571 269 q 576 273 577 274 q 586 282 583 288 q 580 294 573 301 q 562 313 545 315 q 528 317 514 315 q 510 314 508 313 q 505 313 501 313 l 497 312 l 493 311 l 492 311 q 492 309 491 309 l 489 308 q 488 307 487 305 q 486 304 486 303 l 487 303 l 487 302 l 484 301 q 482 299 478 296 q 473 292 471 292 q 463 284 456 282 q 461 282 468 286 q 469 286 469 288 q 469 289 470 289 q 471 289 472 289 l 474 289 q 473 289 474 288 q 474 287 476 287 q 477 286 479 287 q 481 288 482 289 l 481 287 l 481 286 l 479 284 q 479 286 478 285 q 478 285 478 286 l 476 286 l 466 283 l 456 281 q 456 279 454 278 l 454 277 l 452 277 l 451 276 q 451 277 449 278 q 447 278 445 276 l 444 277 l 442 277 l 443 276 l 446 273 l 487 282 q 496 284 508 286 q 520 289 532 290 q 545 292 557 291 q 568 291 577 287 l 578 287 l 578 286 q 573 287 569 288 q 566 288 561 289 l 539 289 l 522 287 q 514 286 508 284 q 501 282 494 281 q 486 278 478 278 q 470 277 462 274 q 458 273 454 272 q 450 272 447 269 q 448 268 448 264 q 449 263 449 263 q 450 264 451 263 q 451 264 452 264 q 451 265 451 267 l 452 268 q 452 268 453 268 l 454 268 l 456 268 q 457 267 457 267 q 457 266 458 266 q 459 266 460 266 q 461 266 461 267 l 461 269 q 459 269 460 269 q 460 270 460 271 q 462 272 463 272 q 464 272 467 271 l 468 271 l 468 268 q 469 268 471 268 q 473 269 474 268 l 474 267 l 473 266 q 472 267 472 267 q 472 266 471 267 l 466 267 q 462 266 462 265 q 459 266 458 265 q 456 264 455 264 l 454 264 q 456 263 456 263 q 456 264 457 263 l 458 263 q 464 262 467 261 q 470 259 476 262 l 474 263 l 474 266 q 476 266 476 265 q 477 264 478 266 q 479 264 478 264 q 478 264 479 263 q 481 262 486 264 l 483 264 l 481 266 q 481 267 481 267 q 482 267 482 268 l 482 268 q 478 269 476 268 l 476 269 q 479 271 482 271 q 486 272 488 269 z m 206 223 q 216 232 227 238 q 238 243 249 246 q 252 246 254 247 q 257 247 261 247 l 276 247 q 278 247 281 247 q 283 247 286 248 l 297 248 q 296 249 294 250 q 293 251 292 251 q 286 252 280 254 q 274 255 268 256 q 263 257 256 258 q 249 258 244 259 q 239 259 235 258 q 230 258 226 257 q 218 256 213 255 q 207 254 202 249 q 198 247 198 244 q 202 243 211 244 q 219 246 226 247 q 223 246 221 246 q 220 246 217 244 q 213 243 209 242 q 206 242 201 241 q 197 241 194 241 q 192 241 189 240 q 187 239 184 238 q 181 236 177 233 l 172 229 q 172 227 172 226 q 172 226 173 223 l 173 221 q 181 223 186 226 q 192 228 200 228 l 199 227 l 189 224 q 183 223 179 221 q 174 218 169 214 q 168 213 167 211 q 166 209 164 209 q 163 207 161 202 q 159 198 157 194 q 155 189 154 185 q 153 181 153 178 l 153 173 q 153 169 154 167 l 154 163 q 158 155 160 149 q 163 144 168 137 l 168 136 l 169 136 q 169 144 170 152 q 172 159 173 167 q 174 170 175 172 q 176 174 176 177 q 177 181 178 186 q 180 191 182 197 q 185 202 188 207 q 190 212 192 214 q 192 214 192 215 q 193 215 193 216 l 193 214 l 186 203 q 181 192 180 184 q 179 176 182 165 q 183 163 184 160 q 184 157 186 154 l 193 143 q 194 140 194 138 q 195 137 198 134 q 205 126 212 122 q 219 118 229 119 q 234 119 242 124 q 247 129 250 136 q 252 143 251 149 l 242 159 q 238 164 233 166 q 227 168 222 166 q 221 167 221 167 q 219 167 219 166 l 214 162 q 214 161 214 160 q 214 159 213 159 q 211 152 214 147 q 216 143 219 143 q 222 143 224 144 l 226 144 q 227 147 228 148 q 228 148 228 151 q 227 152 225 154 q 223 156 222 156 q 221 155 221 154 q 221 154 219 154 l 216 154 l 217 156 q 220 158 222 159 q 225 159 229 157 l 237 157 q 237 156 238 156 q 239 156 239 154 l 243 145 q 243 144 242 142 q 241 141 241 138 l 236 131 q 233 128 229 128 q 224 127 219 127 q 213 128 209 129 q 204 131 203 133 q 202 134 202 135 q 201 136 200 136 l 197 139 l 194 146 q 193 149 192 151 q 191 153 192 154 l 191 154 q 191 158 189 161 q 188 165 187 168 q 184 184 190 198 q 195 212 206 223 z m 466 594 l 467 592 q 468 588 471 582 q 473 577 474 572 l 476 558 l 477 558 q 478 559 479 560 q 479 561 481 562 q 481 563 481 566 q 480 569 479 572 l 478 574 q 473 593 466 611 q 458 629 444 644 q 439 649 433 655 q 427 661 422 664 q 421 664 420 663 q 418 663 416 662 q 417 661 417 660 q 416 659 416 658 q 416 656 417 653 q 418 650 419 647 q 421 643 422 641 q 423 638 424 637 q 424 634 424 631 q 425 627 425 626 l 428 616 q 429 604 430 593 q 431 583 427 572 q 424 562 424 556 q 423 551 424 541 q 424 539 425 538 q 426 536 427 535 l 432 529 l 433 529 q 433 531 431 538 q 430 545 430 548 l 431 548 l 431 545 q 431 542 433 542 l 433 536 q 434 533 435 531 q 436 528 436 526 l 437 524 l 438 525 q 438 527 438 532 q 437 537 436 541 q 434 546 434 550 q 433 554 433 557 q 433 554 435 548 q 436 543 438 537 q 439 531 441 526 q 442 522 442 521 l 442 520 q 443 523 442 528 q 442 533 441 538 q 439 543 439 549 q 438 554 438 558 l 439 558 q 439 556 440 552 q 441 549 441 545 q 442 541 443 537 q 444 533 444 532 l 447 515 l 447 514 l 448 514 q 449 521 448 528 q 446 534 446 541 q 442 549 444 556 l 450 529 l 452 529 q 453 528 453 528 q 453 527 453 526 q 454 527 454 529 l 454 531 l 452 532 l 450 534 q 451 534 451 535 l 451 536 l 453 536 q 453 538 452 542 q 451 547 449 551 q 448 556 447 561 q 446 565 446 567 q 447 564 448 562 q 448 561 449 558 l 452 551 l 452 550 l 454 549 q 454 551 453 556 q 452 561 450 566 q 448 572 447 576 q 446 581 446 581 q 447 581 449 576 q 451 571 453 564 q 454 557 456 551 q 458 545 458 544 q 459 543 459 542 q 459 541 458 541 q 458 541 458 540 q 458 539 458 536 q 459 533 460 529 q 461 526 461 522 q 462 519 462 519 q 463 514 463 508 q 463 502 464 497 l 463 495 l 464 493 l 464 492 q 468 495 464 498 q 464 501 465 502 q 466 503 466 506 q 466 510 466 514 q 466 518 464 522 q 463 532 461 544 q 458 556 457 566 q 456 570 455 575 q 453 580 452 584 q 453 587 451 588 q 450 592 448 597 q 447 603 445 609 q 443 614 440 619 q 438 624 436 626 q 433 631 429 640 q 426 648 424 653 q 424 656 422 658 q 419 661 421 662 q 423 659 425 655 q 427 650 428 646 q 432 638 438 627 q 444 615 447 607 q 448 606 448 604 q 449 602 449 601 q 456 576 462 548 q 469 519 469 494 q 467 493 467 492 q 468 491 467 490 l 467 489 q 467 487 468 487 l 468 484 l 469 484 q 472 495 471 506 q 471 518 469 529 q 468 537 468 544 q 467 551 466 559 q 464 562 464 568 q 463 574 463 577 l 464 571 l 467 559 q 468 557 468 554 q 468 551 469 548 l 469 544 q 469 542 469 540 q 469 538 471 536 q 470 540 471 544 q 471 547 471 551 q 471 556 469 564 q 466 571 467 578 l 468 577 l 473 551 q 474 551 474 552 l 474 554 q 476 562 472 574 q 468 586 466 594 z m 462 492 q 459 497 456 500 q 453 504 450 508 q 446 512 441 516 q 436 520 431 524 q 421 534 410 541 q 399 547 387 554 q 382 557 378 559 q 373 562 369 564 l 356 569 q 347 573 338 572 q 328 572 319 570 q 308 568 301 561 q 298 559 297 558 q 296 556 294 554 q 294 553 295 553 l 296 553 q 297 554 298 554 l 299 554 q 308 554 317 554 q 326 553 336 551 l 337 552 l 341 551 q 346 548 354 545 q 362 542 364 541 l 379 529 q 382 528 385 526 q 389 523 393 522 q 394 521 395 521 q 396 521 397 521 l 418 509 q 419 508 421 506 q 423 504 424 503 q 432 498 439 491 q 446 484 453 476 q 456 473 459 471 q 462 468 464 464 q 466 463 467 461 q 468 458 469 456 l 470 455 l 470 456 q 471 456 471 458 q 471 457 469 457 l 469 457 q 469 461 467 462 q 463 467 459 472 q 456 478 451 483 q 446 490 439 494 l 438 494 l 437 496 l 436 496 q 436 498 435 498 q 431 502 426 506 q 421 509 416 514 l 413 514 q 412 516 411 516 q 411 517 409 518 q 404 521 394 526 q 394 526 397 525 q 399 524 402 522 q 404 521 406 520 q 408 519 409 519 l 409 519 q 410 519 410 520 q 411 520 411 519 q 411 519 412 520 l 413 519 q 414 518 415 518 q 416 517 416 516 q 416 515 419 513 q 422 511 426 508 q 429 505 433 502 q 436 499 438 498 l 440 497 l 441 496 q 442 494 443 493 q 444 492 445 491 l 445 493 q 445 494 446 494 l 446 495 q 443 496 439 501 q 436 505 434 505 q 434 506 433 505 q 433 507 432 507 l 432 508 q 429 511 427 512 q 424 514 423 516 q 422 516 422 514 q 421 515 421 516 q 421 516 420 516 q 419 516 419 517 l 419 517 l 419 518 q 418 519 412 522 q 407 526 404 527 l 408 526 q 413 523 419 519 q 424 516 427 514 l 434 509 l 437 506 l 437 507 q 437 507 438 507 q 438 507 438 508 l 437 509 l 436 509 q 433 512 431 515 q 429 518 426 519 l 426 518 q 424 519 424 521 q 420 526 412 530 q 403 534 401 536 l 401 537 q 414 531 422 525 q 429 519 439 509 q 441 508 442 506 q 443 504 444 502 q 444 501 447 499 q 449 496 452 493 q 454 490 456 488 q 458 485 459 484 q 461 479 463 475 q 466 471 467 467 q 468 468 467 470 q 466 472 466 473 q 463 481 460 487 q 457 493 453 499 q 456 495 458 492 q 461 488 464 484 q 464 483 465 480 q 466 477 467 476 q 468 470 471 463 q 472 464 471 469 q 469 473 468 478 q 466 483 464 487 q 463 491 462 492 z m 467 446 l 468 446 l 466 449 l 464 449 q 462 449 461 450 q 459 449 460 449 q 461 449 458 448 l 457 448 l 456 449 q 454 449 454 451 l 454 448 l 451 448 q 450 446 449 446 l 448 446 l 446 446 l 449 449 q 448 449 445 448 q 442 447 439 447 q 436 446 434 446 q 431 445 431 446 l 437 447 l 436 447 l 436 448 l 437 448 l 436 449 l 437 450 q 438 450 439 451 q 439 451 441 450 l 441 449 q 443 450 446 450 q 448 449 451 451 l 451 452 l 452 453 q 453 453 453 453 q 453 454 453 453 l 454 452 l 454 451 l 458 451 q 459 451 460 451 q 462 451 463 452 l 461 453 q 458 454 455 455 q 452 457 447 454 l 448 453 l 448 452 q 447 451 446 451 l 444 454 q 435 452 429 449 q 422 447 416 440 q 416 442 417 442 q 418 443 419 444 q 423 447 428 450 q 432 452 437 454 l 432 454 q 432 456 432 455 q 432 455 431 456 l 431 457 q 429 458 423 455 q 417 453 416 452 l 416 451 q 415 449 414 449 q 414 449 414 448 q 413 448 412 448 q 412 449 411 449 l 412 451 q 412 452 414 453 q 414 452 414 452 q 414 453 417 453 q 423 456 430 459 q 436 461 444 460 l 443 461 l 442 461 q 442 461 439 461 q 437 461 434 461 q 431 461 428 461 q 426 461 424 460 q 424 459 423 459 q 423 459 423 458 q 421 458 419 459 q 411 458 403 452 q 394 447 389 442 q 384 438 381 434 q 378 429 375 424 q 374 424 372 422 q 371 421 371 419 l 371 418 q 370 418 369 418 q 373 426 378 433 q 383 441 389 446 q 393 449 396 451 q 400 453 404 456 q 406 457 411 459 q 417 461 417 462 l 418 463 l 427 463 q 428 464 431 464 q 429 466 429 465 q 428 464 427 465 q 426 465 426 466 l 426 466 l 426 467 q 424 466 419 466 l 419 466 q 419 465 419 465 q 419 464 419 464 q 417 463 412 464 q 408 465 406 462 l 406 461 l 406 461 q 405 460 404 460 l 403 461 l 402 461 q 403 461 404 462 q 404 462 406 463 l 406 464 q 407 464 407 464 q 406 465 406 466 q 407 467 408 466 q 408 467 409 467 q 409 466 410 466 l 411 466 q 414 466 415 467 q 421 468 426 468 q 431 467 436 468 q 435 469 432 470 q 429 471 426 471 q 422 471 419 471 q 416 471 415 471 q 414 471 415 471 q 416 470 414 469 q 414 468 414 468 q 414 469 413 469 l 411 469 q 403 469 397 464 l 386 457 l 392 462 q 394 463 396 465 q 398 467 401 468 q 401 467 404 469 q 408 471 409 471 q 413 472 421 472 q 428 472 431 471 q 424 475 418 476 q 412 477 404 474 q 401 472 399 472 q 395 469 392 468 q 388 467 386 464 q 377 456 369 442 q 361 429 358 418 q 359 416 358 412 q 358 408 359 407 q 359 406 360 405 q 361 404 362 404 q 363 404 365 405 q 367 406 368 404 q 371 404 376 408 q 382 411 388 414 q 394 418 399 421 q 405 424 407 426 q 411 427 414 430 q 417 433 421 434 q 425 436 429 437 q 433 439 437 440 q 443 442 449 442 q 454 442 461 443 q 462 444 464 444 q 466 444 467 446 z m 413 479 q 414 479 416 479 q 418 480 421 480 q 396 491 376 507 q 377 506 378 506 q 382 503 389 499 q 397 495 401 491 q 402 491 406 488 q 411 486 416 483 q 421 481 426 478 q 431 476 432 476 q 431 477 429 478 q 428 479 427 481 l 427 480 l 412 491 q 409 492 408 493 q 407 493 404 496 q 402 497 399 498 q 397 499 396 502 q 395 502 391 504 q 386 507 381 509 q 377 512 372 515 q 368 517 368 518 l 372 517 q 377 514 384 510 q 391 506 399 501 q 402 498 405 497 q 408 496 411 493 l 411 494 q 410 494 409 494 q 409 495 410 496 l 413 496 q 413 495 412 494 q 412 494 413 493 l 413 492 l 424 483 q 429 482 432 479 q 435 476 439 474 q 438 476 434 479 q 431 483 426 487 q 422 491 417 494 q 413 498 411 499 q 409 500 407 502 q 404 503 402 505 l 401 506 q 405 504 408 503 q 410 501 414 498 q 414 499 416 499 l 418 497 q 419 494 421 493 q 423 492 426 491 l 427 491 q 428 492 429 492 q 431 491 431 491 q 432 491 433 489 l 433 488 l 434 488 q 434 487 434 486 q 433 486 433 486 l 433 485 l 433 484 q 433 483 434 483 q 434 483 436 482 q 438 478 446 473 q 447 472 447 472 l 449 472 q 451 472 452 471 l 449 475 q 447 476 444 481 q 436 489 429 496 q 421 504 412 509 q 411 511 409 511 q 407 512 406 513 l 397 517 q 393 518 389 521 q 385 523 382 526 q 381 526 376 529 q 362 538 346 545 q 330 552 312 553 q 308 553 304 553 q 301 553 296 552 l 296 551 q 296 549 298 547 q 299 544 301 543 q 309 535 318 531 q 327 527 338 526 q 341 524 342 524 q 343 523 346 523 q 342 526 338 528 q 333 530 331 533 l 313 541 q 315 541 320 539 q 324 537 330 534 q 336 532 340 529 q 345 527 347 526 q 348 523 351 523 q 353 522 355 521 l 356 521 q 360 518 364 517 q 368 515 371 511 q 371 509 372 509 q 373 509 373 508 l 375 507 q 377 503 379 500 q 382 497 384 494 q 387 493 389 489 q 392 486 396 484 q 397 483 399 482 q 402 482 403 481 q 406 480 407 479 q 408 478 411 479 q 411 481 412 479 q 412 478 413 479 z m 379 364 q 378 364 378 362 q 378 361 378 361 l 379 361 l 379 359 l 382 358 q 382 356 383 354 l 384 353 l 384 352 q 384 349 385 349 q 386 348 386 347 q 387 348 388 350 q 388 351 389 352 q 389 360 385 369 q 381 378 376 382 q 362 397 342 402 q 323 408 304 407 q 300 406 296 406 q 291 405 287 402 q 288 402 288 402 q 287 401 286 401 q 284 399 284 398 q 283 396 285 394 q 291 392 300 391 q 309 390 313 387 q 323 383 330 379 q 338 375 344 367 q 347 364 349 361 q 352 357 353 356 q 353 354 354 353 q 356 352 356 348 q 357 344 359 342 q 361 341 362 340 q 363 338 366 337 q 366 338 365 341 q 364 343 363 346 l 361 349 l 359 353 l 358 353 q 357 352 357 352 l 356 352 l 356 354 l 358 356 q 357 358 352 365 q 347 372 345 374 q 344 374 343 375 q 342 377 341 378 l 331 387 l 321 394 l 321 394 q 321 395 320 396 q 328 391 335 385 q 341 380 347 374 q 348 373 348 372 q 349 372 350 371 l 353 371 l 353 369 l 354 368 l 353 368 q 353 368 353 368 l 353 366 q 357 362 361 356 q 364 349 366 343 q 367 343 367 340 q 367 338 368 338 q 369 339 371 342 q 372 346 373 345 q 372 347 372 347 l 371 348 l 369 348 q 368 349 368 350 q 368 351 367 352 l 368 352 q 368 352 369 353 q 368 356 367 357 q 366 358 364 361 l 363 361 l 362 359 q 362 359 362 359 q 361 360 361 361 q 360 361 360 362 q 361 363 359 364 q 361 364 362 365 l 360 368 l 362 366 l 364 366 q 366 366 367 364 q 366 363 366 363 q 366 364 366 363 q 366 362 369 356 q 372 351 373 348 l 373 347 l 374 347 l 374 348 q 373 349 373 349 q 374 349 373 350 l 373 352 l 374 352 q 374 353 375 353 l 376 353 q 376 356 374 357 q 373 358 372 361 l 373 361 l 376 358 l 377 359 l 378 358 q 377 357 377 356 l 379 350 l 379 353 q 379 354 380 354 l 381 354 l 380 356 l 379 358 l 378 361 q 377 361 377 362 q 377 362 376 362 l 376 364 z m 604 371 q 604 372 604 372 l 606 374 q 608 377 607 379 q 608 382 609 384 q 611 386 611 389 q 613 399 612 411 q 610 422 602 431 l 596 436 q 579 447 564 449 q 549 451 531 451 q 520 453 511 451 q 512 450 517 449 q 522 448 523 448 l 524 449 q 526 450 527 449 q 529 448 529 447 q 531 447 532 447 q 533 447 534 448 l 536 448 q 538 448 539 446 q 543 447 546 447 q 550 446 553 446 l 552 446 q 552 447 553 447 q 554 447 554 448 q 554 447 555 447 l 556 447 l 556 444 q 560 443 562 442 q 565 441 569 439 l 567 439 l 564 440 l 564 439 q 563 438 563 438 q 564 437 563 437 l 562 438 q 560 439 559 439 q 561 439 561 439 q 561 440 562 441 l 561 442 q 559 442 553 443 q 547 444 544 444 q 547 442 546 441 l 547 441 q 549 439 551 439 q 553 439 556 439 q 560 438 566 434 q 573 431 574 429 l 575 429 q 576 429 576 428 l 576 427 q 570 431 564 434 q 559 437 553 438 q 552 439 550 438 q 549 438 548 439 l 547 439 l 547 438 q 547 437 548 437 q 547 437 547 436 q 546 437 546 437 q 546 436 544 437 l 545 438 q 546 439 546 439 q 542 440 539 441 q 536 442 533 441 q 532 441 532 440 q 532 439 531 439 q 540 434 551 432 q 553 432 554 431 q 561 428 568 423 q 576 417 581 412 q 591 400 598 386 q 599 383 601 378 q 602 372 604 371 z m 608 358 q 609 358 608 358 q 608 359 607 359 l 607 361 q 606 361 602 359 q 598 356 597 356 q 594 354 592 353 q 590 351 587 352 l 587 353 q 586 353 585 354 l 587 354 l 588 355 l 592 359 l 591 359 l 589 360 l 589 361 l 586 361 q 584 358 584 357 q 584 356 583 354 q 582 353 575 354 q 568 356 565 356 q 564 356 564 357 q 563 357 562 356 q 562 357 561 357 q 563 361 568 362 q 572 364 576 367 l 577 369 q 576 369 575 370 l 574 371 q 572 370 570 368 q 567 366 564 364 q 562 362 559 360 q 557 358 556 359 q 552 361 552 361 q 549 362 546 362 q 543 363 541 364 l 537 367 l 534 367 l 536 369 q 537 369 541 371 q 546 372 551 374 q 556 377 560 379 q 564 381 565 382 l 566 383 l 564 384 l 563 386 l 559 383 l 556 382 q 550 379 544 376 q 539 372 532 371 q 532 370 531 371 q 531 371 529 371 l 527 373 l 533 378 q 537 382 542 386 q 547 389 551 393 l 554 396 q 554 399 552 399 l 551 397 q 547 393 543 389 q 539 386 535 382 q 533 379 530 378 q 527 376 524 374 q 522 376 519 376 l 517 378 q 517 378 520 383 q 522 388 526 394 q 529 401 532 406 q 536 411 537 413 q 536 414 534 414 q 533 413 531 410 q 529 406 526 402 q 524 398 521 394 q 519 389 518 388 q 518 387 517 384 q 517 382 515 379 q 514 380 511 381 q 509 381 508 382 q 508 383 508 384 q 509 384 509 386 q 512 393 515 399 q 518 404 520 409 q 522 413 522 414 l 521 416 q 521 414 519 414 q 518 413 516 409 q 514 405 512 400 q 511 395 509 390 q 508 386 508 384 l 507 384 q 506 383 506 383 l 506 384 l 511 409 l 514 414 l 511 414 l 511 413 q 508 407 506 400 q 503 394 504 387 l 501 387 q 500 387 498 388 q 497 389 496 389 q 494 389 495 390 q 495 391 494 391 q 493 392 495 396 q 496 399 498 403 q 499 407 500 411 q 502 414 501 416 q 499 417 498 416 q 497 414 497 413 q 496 412 497 411 q 497 410 496 407 q 495 404 494 401 q 493 398 492 395 q 492 392 491 392 q 491 391 492 389 q 493 387 494 384 l 494 383 l 497 382 l 497 381 l 495 377 q 496 376 496 374 l 497 376 l 499 379 q 501 379 504 377 q 507 376 508 374 l 508 373 l 507 373 q 506 372 506 372 q 503 369 501 366 q 499 363 499 360 l 510 372 q 511 372 511 373 q 512 372 512 372 q 513 372 514 371 l 514 369 l 515 364 q 516 361 516 356 q 516 351 516 346 q 516 342 516 338 q 517 334 517 332 l 517 331 l 519 331 q 521 339 519 351 q 517 363 518 369 q 520 369 521 371 q 521 368 524 368 l 524 367 q 524 366 524 361 q 524 356 524 350 q 524 344 525 338 q 525 332 526 329 l 528 331 l 527 334 q 530 339 532 347 q 534 355 537 359 l 538 361 q 539 361 541 359 q 543 358 546 357 q 546 357 546 354 q 545 351 544 347 q 543 343 543 340 q 542 337 542 336 q 541 333 542 331 q 542 329 542 328 l 543 328 l 547 326 q 547 327 547 328 q 546 329 545 332 q 544 332 545 336 q 545 340 546 344 q 547 350 548 356 l 551 356 q 552 354 554 354 q 557 353 559 352 q 561 345 559 338 q 558 331 561 324 q 563 322 564 323 l 564 324 l 563 324 q 562 328 562 331 q 562 335 562 339 l 562 340 q 562 341 561 341 q 562 342 562 345 q 562 348 561 349 q 562 350 562 350 q 561 349 562 351 l 562 352 q 564 352 564 352 l 566 352 q 565 351 565 349 l 565 346 q 565 343 566 342 l 566 341 q 564 341 565 340 q 566 338 566 337 l 566 336 q 566 334 567 329 q 567 324 566 323 q 567 322 568 322 q 568 323 569 323 l 569 325 q 568 326 568 329 q 568 333 568 338 q 567 342 567 346 q 567 350 567 351 l 569 352 q 569 351 571 351 q 572 351 573 350 q 573 349 575 349 q 576 348 576 348 l 576 348 l 576 347 l 578 344 l 581 339 q 582 337 584 334 q 586 332 587 331 l 588 331 l 589 332 q 584 339 579 347 l 581 347 q 583 344 587 340 q 590 337 594 333 q 594 332 596 333 l 597 334 q 594 336 592 338 q 591 340 589 341 l 589 344 q 588 344 588 345 q 588 346 587 346 q 587 347 588 347 q 589 346 592 344 q 596 343 597 343 q 600 344 607 342 q 614 341 618 341 l 618 342 q 613 344 608 346 q 602 347 597 349 l 596 349 q 598 352 601 353 q 604 354 607 357 z m 690 469 q 686 475 678 477 q 671 479 666 483 q 670 482 674 480 q 678 477 682 476 l 683 477 q 681 479 677 481 q 672 483 667 485 q 662 487 657 489 q 652 490 649 491 q 651 491 654 490 q 658 489 662 488 q 666 486 669 485 q 673 484 673 484 q 672 487 664 489 q 657 492 653 493 q 648 496 643 497 q 639 498 633 500 q 613 503 592 501 q 572 500 552 493 l 534 486 l 534 484 q 536 484 536 485 q 537 486 538 484 l 539 484 q 542 485 546 486 q 549 487 552 488 q 548 487 545 484 q 541 482 537 481 l 536 481 q 536 481 535 481 q 534 480 534 480 q 533 480 533 479 l 532 479 q 533 479 533 478 q 533 478 532 478 l 531 478 q 529 478 523 475 q 517 472 516 471 l 516 471 q 516 470 515 469 l 517 468 l 519 469 l 519 469 l 519 470 l 519 471 q 521 471 521 472 q 522 472 523 472 l 524 472 q 526 472 528 473 q 529 474 530 474 q 531 475 531 476 q 533 475 535 476 q 537 476 539 477 l 538 477 l 538 478 l 538 479 q 540 479 541 478 l 514 464 q 518 466 522 467 q 526 468 530 469 q 532 471 536 471 q 542 475 555 478 q 568 481 583 483 q 597 485 610 486 q 623 487 630 486 q 633 484 637 484 q 641 484 645 484 q 652 483 658 481 q 663 478 670 476 q 673 476 676 475 q 678 473 681 472 q 683 471 686 470 q 688 469 691 468 q 691 469 691 469 z m 343 442 q 344 441 344 441 q 343 441 346 442 q 347 443 349 447 q 351 450 352 454 l 354 457 l 363 474 q 364 477 364 478 q 364 479 366 482 l 366 483 q 367 483 369 482 q 371 482 372 481 l 372 480 q 372 479 371 474 q 369 470 368 464 q 366 459 364 454 q 362 449 361 447 q 361 446 359 444 q 358 442 357 441 q 357 441 357 439 q 357 439 357 439 q 358 439 359 440 q 361 442 362 444 q 363 447 364 449 q 367 454 369 464 q 372 474 373 478 l 373 479 l 374 479 l 374 467 q 373 464 372 462 q 371 460 371 456 q 372 457 373 459 q 374 461 375 461 q 376 465 377 468 q 377 472 377 474 l 377 477 q 379 477 382 476 q 384 475 386 474 l 386 472 q 387 473 389 473 q 392 473 393 476 l 392 476 l 391 477 l 391 480 q 391 481 391 480 q 391 479 389 481 l 389 479 q 388 478 388 478 l 388 478 q 387 479 384 481 l 383 483 q 383 484 384 485 l 384 486 q 383 484 382 485 q 382 485 381 486 l 381 484 l 379 484 l 378 484 q 377 484 376 485 q 376 487 374 487 q 373 487 372 488 l 371 488 l 373 489 l 375 491 q 374 492 373 492 l 373 492 l 371 491 l 371 489 l 369 489 q 368 491 368 490 q 367 489 366 491 q 364 493 364 496 q 364 498 363 499 l 362 499 q 362 497 362 495 q 363 493 362 492 l 362 491 l 361 492 q 359 492 359 492 q 358 493 357 493 l 356 493 q 355 497 355 500 q 356 504 354 507 q 353 508 352 509 q 352 505 353 502 q 354 499 354 496 l 353 494 q 352 493 352 494 q 351 496 349 496 q 347 496 346 497 q 346 498 345 497 l 346 499 q 347 502 348 504 q 348 507 349 511 l 348 512 q 347 509 346 505 q 346 502 343 499 l 336 501 q 336 502 336 504 q 337 507 337 509 q 337 512 337 515 q 337 517 337 517 l 337 518 l 334 518 q 333 515 333 511 q 334 507 333 503 l 332 503 l 322 506 q 323 508 323 515 q 323 522 322 523 l 319 524 q 317 522 319 518 l 319 516 q 319 514 320 511 q 321 508 320 507 l 321 504 l 319 504 q 319 506 318 505 q 318 504 318 505 q 318 507 317 509 q 316 512 316 514 l 316 521 q 315 522 315 523 q 316 524 314 526 l 314 527 l 313 527 q 312 526 312 522 q 313 519 314 516 q 314 512 315 509 q 316 507 315 506 l 307 508 l 307 509 q 307 510 302 515 q 298 519 297 521 q 296 522 294 523 l 293 523 q 294 522 296 518 q 298 514 301 511 l 302 509 l 296 515 l 289 521 l 287 521 l 287 519 l 294 512 q 294 511 295 510 q 296 509 297 508 l 294 508 q 293 509 291 510 q 288 511 287 511 l 287 510 q 283 511 278 511 q 272 511 268 511 q 272 508 277 508 q 283 507 287 506 l 288 505 q 287 503 284 502 q 282 501 279 499 l 276 497 q 277 496 278 496 q 278 495 279 494 q 283 496 288 500 q 293 504 297 504 l 298 504 q 299 503 299 502 l 296 502 q 296 501 294 499 q 292 497 290 494 q 287 492 285 491 q 283 489 283 487 l 283 486 q 287 487 289 490 q 292 493 294 496 q 296 496 296 497 l 296 495 q 293 491 292 487 q 291 483 288 479 l 289 477 l 291 476 q 292 480 293 482 q 294 485 295 489 q 297 492 298 495 q 299 498 301 502 l 302 503 q 305 503 311 502 q 317 501 318 502 l 318 501 q 319 501 319 502 q 320 502 320 501 l 322 501 q 319 498 315 495 q 311 492 308 489 q 304 485 300 481 q 297 477 294 473 l 293 473 l 296 471 q 297 475 300 477 q 303 479 306 482 q 307 483 310 485 q 313 488 316 491 q 319 494 322 496 q 325 498 326 499 l 327 498 q 332 497 336 496 q 340 496 344 493 q 345 493 346 493 q 346 494 346 493 l 340 489 q 337 487 334 485 q 331 484 328 483 q 323 480 319 478 q 316 475 311 472 l 307 470 q 306 469 306 469 q 305 469 304 468 l 303 467 l 303 466 l 302 466 l 302 465 q 303 466 303 465 q 303 464 304 464 q 304 463 306 463 q 307 464 313 468 q 319 472 327 477 q 334 481 341 485 q 347 489 349 490 l 351 490 l 352 490 q 352 489 353 489 l 353 488 l 354 488 q 353 487 348 482 q 343 477 337 471 q 331 464 325 459 q 319 454 319 452 q 321 450 323 450 q 323 451 324 451 l 324 452 q 327 453 327 455 q 328 456 329 457 q 335 464 341 471 q 346 478 352 483 q 353 483 354 484 q 354 484 355 485 l 356 486 q 359 488 364 484 q 364 483 361 478 q 358 472 355 465 q 352 458 348 452 q 345 446 344 445 l 344 444 q 344 443 343 443 q 343 443 343 442 z m 559 459 l 558 461 l 558 462 q 555 461 549 461 l 547 457 q 548 457 549 457 q 551 457 552 458 q 554 459 558 459 q 555 458 553 457 q 551 456 548 454 q 556 454 567 456 q 577 459 581 460 q 581 459 578 458 q 576 457 572 456 q 569 456 566 455 q 562 455 561 455 l 559 454 q 562 453 566 452 q 569 452 572 452 l 574 452 q 576 452 581 455 q 586 457 592 460 q 597 463 602 466 q 606 468 607 469 q 608 471 612 471 q 616 472 617 473 q 631 474 641 473 q 644 473 648 472 q 652 472 654 469 q 657 468 662 467 q 668 465 674 463 q 680 462 685 461 q 691 460 693 461 q 688 462 682 464 q 677 467 672 469 l 693 462 q 693 462 694 462 q 694 463 693 464 q 685 468 677 471 q 669 474 661 479 q 657 481 654 481 q 651 481 648 481 q 628 484 608 483 q 588 482 568 479 q 561 478 555 475 q 549 472 542 469 q 534 467 526 464 l 518 461 q 519 460 519 459 l 519 459 q 527 462 532 464 q 538 467 544 469 l 547 469 q 547 469 548 469 q 548 469 549 469 q 566 473 584 478 q 602 482 618 479 l 604 479 q 583 477 562 471 l 562 470 l 563 469 q 563 470 563 470 l 564 470 l 565 469 q 567 469 569 469 q 572 470 574 469 l 572 469 q 574 469 572 467 q 569 468 568 468 q 567 468 563 467 l 562 466 l 561 466 l 559 467 q 558 466 555 466 q 552 466 551 464 q 549 464 548 463 q 547 463 547 463 q 546 463 542 462 q 541 462 541 462 q 541 461 539 461 l 534 461 l 521 456 l 521 454 l 528 454 l 528 455 q 528 456 528 456 q 529 456 528 457 l 529 457 q 529 457 530 457 q 531 456 532 456 l 532 459 q 533 459 533 460 q 534 459 534 459 q 535 460 536 459 l 536 458 q 537 458 537 458 q 537 457 536 457 q 537 458 539 459 q 542 459 544 461 q 548 461 549 462 q 553 463 557 463 q 562 463 566 465 l 566 467 l 567 467 l 568 466 q 574 466 579 467 q 584 467 589 468 l 588 467 q 583 466 575 464 q 567 463 561 462 l 561 461 l 566 461 z m 589 397 q 588 399 586 402 q 583 404 582 407 q 578 411 572 416 q 566 422 561 424 q 557 426 552 428 q 548 429 544 432 l 529 435 q 526 436 521 436 q 516 437 510 438 q 504 439 499 441 q 494 443 492 446 q 491 446 490 447 q 489 448 489 451 q 488 451 488 452 l 488 452 l 484 449 q 479 445 481 441 q 482 437 486 432 q 487 431 492 427 q 497 423 499 422 q 502 421 505 422 q 508 424 511 424 q 509 426 508 425 q 506 424 504 426 q 499 428 494 431 q 489 433 485 437 q 484 438 484 438 q 484 439 483 439 q 483 440 483 441 q 484 441 484 440 q 490 434 498 431 q 505 427 513 426 l 514 426 l 516 425 l 521 427 l 512 429 q 506 431 500 433 q 493 435 489 439 l 488 439 q 488 438 488 438 q 487 438 487 439 q 486 439 486 440 q 486 441 486 442 q 486 443 485 443 l 484 443 q 483 443 483 443 q 483 444 483 446 l 484 447 q 485 446 486 446 l 486 446 q 486 445 487 444 q 487 444 487 443 q 487 442 490 441 q 492 439 493 438 l 493 439 l 494 440 l 494 441 q 494 442 493 442 q 493 442 492 443 l 491 442 l 488 443 q 488 443 488 444 q 487 444 487 445 l 487 446 l 488 447 l 489 446 q 489 445 491 444 q 493 442 496 441 l 498 441 q 501 438 506 438 q 512 437 514 436 l 515 436 q 516 436 519 435 q 522 434 525 434 q 528 433 531 432 q 533 432 534 431 q 539 430 549 425 q 559 420 562 416 q 563 414 565 413 q 566 412 567 411 l 568 409 q 561 416 552 421 q 547 425 541 427 q 536 429 529 431 q 527 432 523 432 q 519 432 515 433 l 514 433 q 510 434 506 436 q 502 437 499 438 q 498 437 498 437 q 499 437 498 436 l 497 436 l 499 434 l 503 434 l 503 436 q 504 435 505 435 q 506 436 507 433 q 508 432 508 432 q 509 431 513 431 l 514 432 l 514 432 q 515 432 516 431 l 516 432 q 520 429 523 428 q 527 428 530 428 q 534 427 538 426 q 543 424 549 419 q 548 419 549 418 q 549 417 551 417 l 551 416 q 552 416 554 414 q 556 412 558 411 l 565 403 l 570 397 l 573 392 l 568 398 l 561 406 q 559 408 557 410 q 554 411 554 412 l 553 412 l 562 398 q 561 398 561 398 q 561 398 560 398 q 563 396 566 392 q 570 389 571 386 q 572 383 575 379 q 578 376 580 373 q 584 368 589 366 q 594 363 599 366 q 601 367 601 368 q 602 368 603 369 q 603 371 601 374 q 599 378 597 383 q 594 387 592 391 q 589 396 589 397 z m 540 521 l 533 510 l 531 508 q 528 505 527 502 q 526 498 523 496 l 524 495 q 530 501 535 507 q 539 513 544 520 q 546 522 549 526 q 552 529 553 532 q 552 529 549 524 q 546 518 542 513 q 538 508 534 504 q 531 499 529 498 l 525 494 q 523 493 521 491 l 521 490 q 521 489 520 488 l 521 488 l 533 500 q 537 504 542 509 q 546 513 550 517 q 552 518 553 521 q 554 524 557 527 q 554 523 553 521 q 552 518 551 516 q 549 513 548 510 q 546 507 543 506 q 538 501 532 496 q 526 491 521 486 q 526 487 534 493 q 542 499 546 502 l 561 520 q 561 519 562 522 q 561 519 560 518 q 558 516 557 514 q 554 510 552 507 q 550 504 547 501 q 544 499 542 498 q 541 496 538 493 q 535 492 533 492 q 532 492 530 489 q 536 491 542 492 q 549 494 554 499 q 565 509 569 518 q 574 527 577 541 q 577 546 578 551 q 579 557 577 561 q 577 562 577 568 q 577 573 576 574 q 573 573 572 570 q 570 567 567 566 l 567 564 q 576 554 564 546 q 563 544 559 544 l 559 545 l 558 546 q 557 547 554 547 q 553 546 549 541 q 546 536 542 531 q 538 525 536 520 q 533 514 533 512 q 536 515 539 521 q 542 528 546 531 q 544 527 542 525 q 541 522 540 521 z m 280 398 q 279 398 279 399 l 279 401 l 278 402 l 277 401 q 276 399 277 400 q 277 400 277 399 l 277 369 l 269 369 l 269 369 q 269 370 268 371 l 268 377 l 266 382 l 266 388 q 266 391 265 393 q 263 396 262 397 l 262 398 q 261 398 260 398 q 259 398 258 397 l 257 397 q 258 396 259 395 q 260 394 261 393 q 261 391 262 388 q 263 384 264 381 q 264 378 265 375 q 266 372 266 371 l 263 371 q 261 371 259 371 q 257 371 254 370 q 253 372 253 372 q 254 373 253 374 q 253 376 252 378 q 251 381 250 384 q 249 387 248 390 q 247 392 247 393 q 246 394 245 395 q 244 396 244 396 q 243 397 243 396 q 242 396 241 396 l 241 394 q 243 392 245 387 q 247 382 249 379 l 249 376 q 252 373 252 372 q 252 371 253 369 l 252 368 q 251 369 251 368 q 250 368 250 369 q 250 372 249 373 q 247 375 246 379 l 244 382 q 243 382 243 384 q 242 386 241 388 l 239 394 l 237 394 l 236 393 q 237 392 239 387 q 241 383 242 380 l 243 378 q 243 378 244 376 q 244 374 245 373 q 246 371 246 369 q 247 368 246 368 q 246 368 245 368 q 244 368 244 369 q 243 369 243 369 q 242 368 241 368 q 241 369 238 369 l 239 369 q 235 373 231 376 q 227 378 223 381 q 222 379 222 380 q 222 381 221 380 l 221 379 q 222 377 226 375 q 230 373 233 369 l 234 368 l 233 368 q 230 371 226 372 q 221 374 218 377 q 217 377 217 376 l 215 376 q 216 374 219 373 q 222 371 223 371 q 224 370 224 368 q 226 367 228 368 l 228 366 l 219 366 q 215 364 209 363 q 203 362 199 361 l 198 361 q 202 360 208 361 q 214 361 219 361 l 219 359 q 219 358 218 358 q 217 357 214 355 q 213 354 212 352 q 212 351 211 349 q 212 349 213 348 q 214 348 213 347 l 214 348 q 217 351 220 354 q 223 357 225 359 q 228 362 229 362 q 230 361 231 361 l 231 361 q 231 359 230 360 q 229 361 229 359 q 227 354 225 350 q 223 347 222 344 q 221 341 220 340 l 221 339 l 225 346 q 229 351 229 354 l 231 355 l 231 354 q 230 351 229 344 q 229 338 228 334 l 228 333 q 229 332 230 332 l 231 333 q 232 336 232 339 q 232 343 233 347 q 233 351 233 355 q 233 358 234 361 l 234 362 q 237 363 240 363 q 243 363 246 364 q 249 364 250 366 q 251 364 251 365 q 251 366 252 364 l 253 365 l 254 366 l 254 364 q 252 362 249 358 q 247 353 243 348 q 240 343 237 338 q 234 333 234 331 l 235 330 q 236 329 237 329 l 237 330 q 237 332 240 337 q 243 342 247 348 q 251 353 254 358 q 258 363 259 364 l 259 366 q 262 365 262 364 q 263 364 264 365 q 266 364 267 365 q 271 366 274 366 q 276 365 279 364 l 281 365 l 281 366 l 282 364 l 281 364 q 275 358 270 352 q 264 347 259 341 q 264 343 266 343 l 267 344 q 274 351 281 359 q 282 361 283 361 q 283 362 286 363 l 288 364 l 289 363 l 289 362 q 290 359 286 355 q 283 351 283 349 l 286 349 q 286 351 287 352 q 288 353 289 356 q 289 358 291 359 q 292 361 294 361 q 296 361 298 362 q 299 362 301 361 l 301 352 q 302 351 302 352 l 303 352 q 304 352 303 355 q 303 358 304 360 l 303 361 q 301 363 299 365 q 297 367 296 368 q 293 367 293 368 q 292 368 291 367 q 291 368 291 368 q 290 369 291 369 q 289 372 289 372 q 289 373 288 374 l 286 379 q 284 377 283 381 q 284 377 285 375 q 286 373 287 371 l 288 369 q 287 368 287 368 q 286 369 284 369 q 281 370 280 369 l 279 369 q 279 372 280 375 q 281 378 280 381 q 278 386 279 389 q 279 393 280 398 z m 352 351 q 349 359 344 364 q 335 374 322 381 q 308 388 294 389 q 292 389 289 390 q 287 391 284 391 l 289 379 q 295 374 301 369 q 307 364 312 359 q 313 358 316 357 q 318 356 319 354 q 321 352 322 352 q 324 351 327 350 q 330 349 333 349 q 332 352 329 353 q 327 354 325 356 l 327 356 l 330 353 q 333 350 334 349 q 339 349 341 348 q 339 351 338 353 q 337 356 334 357 q 333 358 332 359 q 331 361 331 362 l 336 356 q 337 358 338 358 l 339 358 l 340 358 q 341 357 341 357 l 340 357 l 339 356 l 338 355 l 337 355 l 339 352 q 341 351 341 349 q 342 349 342 349 q 342 348 342 348 q 342 348 343 348 q 344 347 344 348 q 344 348 346 348 l 349 346 l 349 347 q 347 348 345 351 q 343 353 342 356 l 343 356 l 344 354 q 344 356 343 357 l 347 357 q 347 357 349 355 l 348 354 q 347 353 346 352 l 350 347 q 351 346 352 346 q 352 347 352 344 q 354 344 355 343 l 356 344 z m 494 603 q 494 604 497 607 q 499 610 501 614 q 503 617 504 621 q 505 624 504 626 q 503 626 502 627 l 501 626 l 493 619 q 491 616 488 614 q 486 611 486 610 q 486 608 485 607 q 484 606 483 603 l 483 602 q 482 601 482 597 q 481 593 482 592 q 483 592 483 592 q 484 591 484 592 q 484 593 485 596 q 486 598 487 598 l 488 601 q 489 598 488 598 q 487 598 488 597 q 487 593 485 589 q 484 585 484 581 q 484 573 486 567 q 487 560 488 553 q 487 554 486 557 q 486 559 485 560 l 484 561 l 482 558 q 482 557 480 555 l 479 554 q 477 549 475 542 q 473 534 476 529 l 477 528 q 476 537 477 544 l 478 544 l 478 541 q 477 541 478 540 q 478 539 478 538 q 478 537 478 534 q 478 532 478 528 q 478 525 479 522 q 480 519 481 518 q 482 526 481 532 q 480 539 481 547 q 481 544 482 543 q 482 542 482 539 l 482 532 q 483 528 483 524 q 484 519 483 514 q 483 513 483 513 q 483 513 483 512 l 484 513 q 485 519 486 524 q 487 530 488 537 q 488 536 488 531 q 487 526 487 521 q 486 516 486 512 q 485 508 486 507 l 486 506 l 487 506 q 488 511 490 517 q 491 523 492 528 l 493 528 q 492 524 490 516 q 488 508 487 502 q 491 510 494 519 q 497 529 497 538 l 496 538 q 492 539 492 540 q 491 539 491 540 q 490 541 490 541 q 487 545 488 547 q 488 548 488 552 l 488 553 q 491 556 492 559 q 493 562 494 564 q 490 572 489 581 q 488 590 491 597 z m 407 272 q 406 273 406 276 q 406 278 404 280 q 402 293 395 304 q 388 316 379 325 q 377 327 377 327 l 376 326 l 376 324 q 378 321 384 314 q 389 307 392 303 q 393 299 396 297 q 397 294 398 292 q 398 290 401 286 q 401 283 402 282 q 403 280 402 277 l 403 277 l 405 272 q 406 272 406 272 l 406 271 l 409 271 l 411 269 q 411 268 411 268 q 412 267 412 267 l 414 271 q 418 275 421 278 q 425 282 429 284 q 433 288 436 291 q 439 293 444 296 q 446 296 446 297 l 447 298 l 448 298 l 448 297 l 448 297 q 448 296 448 296 q 448 294 448 294 q 449 293 448 292 l 451 292 l 451 290 l 452 291 l 453 289 l 454 292 q 458 297 458 302 q 458 308 457 312 q 457 316 456 317 l 456 318 l 454 317 q 456 314 455 311 q 454 307 454 304 q 454 308 453 310 q 453 313 454 315 q 452 317 452 317 l 451 318 q 448 317 449 312 q 449 308 448 306 q 449 304 448 303 q 448 301 447 298 q 447 302 448 303 q 447 304 447 304 q 447 302 444 303 q 442 302 439 300 q 436 298 433 295 q 431 292 428 290 q 426 287 424 286 l 417 279 q 414 278 414 276 q 413 274 412 274 l 411 273 q 412 274 413 275 q 413 276 414 277 q 414 278 415 279 l 416 281 l 416 282 l 419 294 q 420 297 422 303 q 423 309 425 315 q 427 321 428 326 q 429 331 429 334 q 429 336 430 337 q 431 338 431 341 l 432 341 q 431 337 430 333 q 429 330 430 326 l 431 326 q 432 327 432 328 q 432 329 433 329 q 436 333 436 336 q 436 339 436 342 l 436 347 l 435 347 q 436 349 436 351 l 433 354 l 433 353 q 432 354 432 354 l 431 353 q 426 348 423 341 q 421 334 421 328 q 422 329 425 334 q 427 340 427 341 l 428 341 q 427 338 427 336 q 427 333 425 331 l 422 321 l 416 296 q 413 288 411 281 l 409 273 q 409 273 408 272 l 407 271 z m 519 508 q 519 508 521 510 q 522 512 524 515 q 525 517 526 519 q 528 522 528 522 q 529 524 533 530 q 536 535 539 541 q 543 547 546 552 q 548 558 549 561 l 547 563 q 544 559 543 556 q 542 553 541 549 l 531 534 q 528 529 525 524 q 522 519 518 514 q 515 510 509 501 q 502 493 496 483 q 489 474 484 465 q 479 457 479 453 l 479 452 q 478 451 478 452 q 478 452 478 451 q 477 452 477 453 q 478 457 480 462 q 482 468 483 472 q 491 490 498 508 q 504 525 504 546 q 503 544 502 542 q 501 541 501 539 q 499 531 498 522 q 496 514 493 506 q 491 502 487 493 q 483 485 480 476 q 476 467 474 459 q 471 451 473 448 l 474 447 q 477 446 478 444 l 479 444 q 478 446 478 447 q 479 448 480 448 l 484 451 l 487 453 q 488 455 489 459 q 491 463 493 468 q 495 472 497 476 q 499 479 501 481 q 502 482 504 486 q 507 490 511 495 q 514 499 516 503 q 519 507 519 508 z m 576 584 q 577 587 577 588 q 576 589 575 592 l 567 582 q 566 582 564 580 q 567 583 569 586 q 572 589 574 592 q 573 593 568 594 q 563 594 558 593 q 552 593 546 592 q 540 592 538 591 q 537 589 536 589 q 536 589 534 588 q 533 587 532 580 q 532 573 532 571 q 532 568 532 564 q 531 560 530 556 q 529 551 527 542 q 526 534 523 529 q 524 530 524 531 q 524 532 525 533 l 526 536 q 526 534 527 534 q 528 534 528 536 q 529 537 529 538 q 531 538 532 541 q 533 542 534 544 q 534 546 535 548 q 537 550 538 551 q 538 555 541 558 l 542 561 q 542 562 542 562 q 543 562 543 562 l 543 563 q 542 563 542 564 q 542 564 541 566 q 539 567 539 568 q 537 573 539 576 q 541 577 541 579 q 545 582 548 581 q 551 581 555 579 q 557 578 558 576 q 559 573 562 571 q 565 573 568 576 q 570 579 573 581 z m 535 593 q 537 596 539 598 q 541 599 541 602 q 543 606 543 615 q 543 624 542 627 q 540 630 538 628 l 536 628 q 533 627 532 619 q 531 612 531 609 q 531 606 530 604 q 529 600 528 596 q 527 593 529 589 q 530 592 531 593 q 531 595 532 598 l 533 599 q 530 582 524 561 q 519 540 511 524 q 507 519 505 513 q 503 507 501 502 q 497 495 494 488 q 490 482 487 474 q 487 474 489 477 q 491 479 492 482 q 494 486 496 488 q 498 491 499 493 q 502 496 504 498 q 507 500 509 504 q 515 516 521 532 q 527 548 528 563 q 529 570 530 578 q 531 586 534 593 z m 618 509 q 619 514 615 520 q 612 526 608 531 q 607 532 605 534 q 603 535 601 536 q 598 538 592 541 q 586 543 583 543 l 582 542 q 582 541 582 539 q 582 537 581 536 q 582 535 584 534 q 586 532 587 531 q 592 527 592 522 q 593 517 593 512 q 593 509 592 509 q 591 508 592 508 q 599 509 605 509 q 611 509 618 509 z m 424 564 q 426 566 426 571 q 427 577 427 579 q 429 591 428 601 q 427 610 425 619 q 423 628 421 637 q 418 646 416 656 q 416 652 415 651 q 413 646 414 637 q 415 628 416 619 q 418 609 420 601 q 422 592 423 586 q 424 580 424 575 q 424 569 424 564 z m 507 524 q 508 527 511 529 q 512 533 514 538 q 515 543 518 547 l 525 575 q 526 577 527 579 q 528 582 527 584 l 526 586 l 526 587 q 524 587 521 585 q 518 584 517 583 l 516 582 q 516 576 514 571 q 512 566 511 560 q 511 558 509 555 q 507 552 506 549 l 506 545 l 507 544 q 506 540 506 537 q 506 533 506 529 q 506 528 504 526 q 503 524 504 522 q 507 530 509 537 q 512 543 514 551 q 514 550 513 546 q 512 542 511 538 q 509 533 508 528 q 506 524 506 523 z m 702 666 q 699 663 696 662 q 693 661 691 658 q 681 649 682 639 q 683 628 691 619 q 695 615 702 613 q 709 612 714 613 l 717 613 l 721 614 l 719 613 l 717 611 q 707 604 698 609 l 696 611 l 696 612 q 693 613 691 612 q 688 612 687 613 q 686 614 684 617 q 682 619 679 622 q 679 625 680 627 q 681 628 681 631 q 678 630 677 632 q 677 633 676 633 l 676 634 q 673 640 676 647 q 679 653 684 658 q 687 661 692 664 q 698 667 702 666 z m 497 541 q 500 543 503 549 q 506 555 509 562 q 511 568 512 575 q 513 581 512 584 q 511 584 510 585 l 509 586 q 508 584 506 575 q 503 566 502 561 q 501 562 502 562 q 503 567 503 570 q 503 573 504 578 q 504 581 505 582 q 506 583 507 586 l 505 586 q 504 586 504 585 q 503 583 502 582 l 499 568 q 497 563 494 559 q 492 554 490 549 q 491 548 491 546 q 491 544 491 543 l 493 543 l 496 546 l 496 541 z m 409 284 q 411 291 410 295 q 409 300 407 306 q 406 307 406 309 q 405 310 404 311 l 402 313 l 402 314 q 401 318 399 321 q 397 323 395 326 q 394 327 393 330 q 392 332 391 335 q 391 336 390 338 q 389 339 391 341 l 390 341 q 388 337 387 334 q 386 332 386 329 q 386 327 386 324 q 386 322 387 319 q 388 317 391 314 q 392 317 392 319 q 392 322 393 323 l 394 324 q 394 320 392 318 q 391 315 392 311 q 393 311 394 309 q 394 312 396 314 l 396 307 l 396 307 q 396 306 397 305 l 398 303 q 399 304 399 305 q 399 306 401 307 q 399 304 399 301 q 399 297 402 296 q 402 297 402 298 q 403 298 403 299 q 404 298 404 298 l 404 298 l 403 296 q 403 292 404 291 l 405 291 q 406 292 406 297 q 406 298 407 298 l 407 292 q 407 289 407 288 q 406 287 406 286 q 406 286 407 284 q 407 283 407 283 q 407 282 408 282 q 408 282 408 282 q 409 283 409 284 z m 409 401 q 409 402 410 402 q 411 403 411 404 q 411 406 409 411 q 406 417 406 418 l 405 419 q 404 419 403 418 l 404 417 q 405 414 406 411 q 408 408 409 406 l 408 406 l 408 404 q 407 404 405 405 q 403 406 402 405 q 402 406 401 406 q 403 411 402 416 l 401 416 q 401 413 401 411 q 401 408 399 405 q 397 403 394 406 q 392 408 393 410 q 393 411 391 411 q 391 409 391 408 q 390 407 391 406 l 389 406 q 388 406 386 406 q 383 406 382 404 l 382 406 l 381 406 l 381 404 l 380 403 q 378 404 374 402 q 371 401 368 399 q 371 399 374 399 q 377 399 379 401 l 381 402 l 382 401 q 379 398 378 395 q 377 392 376 391 l 374 389 q 376 389 376 388 q 376 388 377 387 q 380 390 382 394 q 383 398 386 401 l 387 401 q 391 401 395 402 q 399 402 403 401 l 404 402 l 404 401 q 399 396 393 391 q 388 386 384 380 l 384 379 l 386 378 l 385 377 l 386 377 q 390 380 395 387 q 399 393 404 398 l 407 401 q 408 400 408 401 q 408 401 409 401 z m 596 457 q 598 458 601 458 q 603 459 606 459 q 614 462 621 462 q 628 463 634 464 q 637 464 645 464 q 653 465 658 464 l 663 464 l 660 466 l 655 466 q 649 467 644 467 q 639 466 633 466 l 634 467 l 643 468 q 644 469 645 469 q 646 469 647 469 q 636 472 630 472 q 624 472 614 469 l 607 466 l 607 464 q 611 466 616 466 q 622 467 626 467 q 620 466 613 465 q 606 463 601 461 l 601 462 q 598 461 597 460 q 596 458 594 457 z m 619 429 q 619 443 615 454 q 614 456 613 456 l 613 457 q 612 456 606 454 q 600 452 597 451 q 601 448 605 446 q 609 444 613 440 q 613 439 613 439 q 614 439 614 438 q 609 441 604 444 q 599 448 593 451 q 592 450 590 449 q 588 448 586 448 q 597 445 604 441 q 610 437 618 429 z m 559 568 q 558 569 558 571 q 557 573 556 574 q 552 578 547 578 q 547 577 546 577 l 551 574 l 551 573 q 551 572 552 572 l 552 571 l 551 571 l 544 576 q 543 576 543 576 q 543 575 542 576 l 541 574 q 541 573 540 572 q 539 571 541 571 q 542 568 544 567 q 547 566 548 564 q 552 560 553 556 q 555 552 559 549 q 559 547 560 547 l 561 548 l 562 549 q 563 551 563 552 q 563 554 562 557 l 563 557 q 564 556 564 554 q 564 552 564 551 q 566 553 565 555 q 564 558 563 560 q 562 562 560 564 q 559 566 559 568 z m 554 550 l 552 552 l 542 539 q 538 534 536 529 q 533 524 530 519 q 524 511 518 502 q 511 493 506 484 q 504 482 504 480 q 503 478 501 476 q 505 478 507 479 q 509 481 511 482 q 513 484 517 491 q 521 498 525 506 q 529 514 534 521 q 538 529 540 533 z m 589 564 q 589 567 591 568 q 592 570 592 571 q 592 572 593 578 q 593 584 592 584 l 592 586 l 589 586 l 589 585 l 589 584 l 588 586 q 588 587 586 588 l 584 586 q 583 586 578 583 q 573 579 572 577 q 569 574 568 572 q 567 571 564 568 l 566 567 q 567 568 569 571 q 570 574 573 576 l 581 582 l 581 581 l 583 583 l 583 584 l 584 583 q 584 578 582 574 q 579 569 581 564 l 582 563 l 586 567 q 586 566 585 565 q 584 564 585 563 q 586 562 586 561 q 588 564 589 564 z m 702 551 q 701 550 701 549 q 701 549 699 548 q 698 549 697 548 q 696 549 696 548 q 696 548 696 549 q 695 548 695 548 q 696 547 694 547 l 694 551 l 692 554 q 688 556 686 554 q 683 552 681 551 q 678 552 672 553 q 667 554 661 556 q 655 557 650 559 q 645 561 643 563 l 643 564 q 649 563 656 561 q 663 558 669 557 q 672 557 673 558 q 680 557 686 557 q 693 557 699 554 q 701 553 700 553 q 700 554 701 553 l 701 552 l 702 552 z m 338 523 l 346 518 l 353 514 q 357 512 358 511 q 361 509 366 505 q 370 501 375 497 q 380 493 384 489 q 389 486 392 484 q 389 488 386 491 q 382 493 380 497 q 378 498 378 501 q 377 503 374 504 l 366 513 q 363 516 357 518 q 350 519 344 521 z m 473 471 l 473 472 q 474 473 473 475 q 473 476 474 476 q 476 480 477 483 q 478 487 479 491 q 479 494 481 496 q 481 491 478 483 q 474 476 474 473 q 479 481 481 489 q 483 497 482 507 q 481 510 479 512 q 477 514 476 517 l 475 519 q 474 521 474 521 l 473 522 q 474 519 474 518 q 473 516 476 513 q 476 508 475 502 q 474 496 474 491 q 476 493 476 496 q 476 499 477 502 q 477 501 476 496 q 476 491 475 486 q 474 481 473 476 q 472 472 472 472 z m 398 242 q 398 244 398 248 q 397 252 395 257 q 393 262 391 266 q 389 270 388 271 q 387 268 388 265 q 389 263 390 261 q 388 263 388 265 q 387 267 386 271 l 386 272 q 386 272 385 272 q 383 267 386 258 q 388 249 391 244 l 393 242 q 393 241 393 241 l 394 241 q 394 242 394 244 q 394 247 393 248 q 394 247 396 245 q 397 244 397 242 l 398 241 z m 194 222 q 184 211 178 202 q 172 192 169 178 q 169 174 168 170 q 167 167 166 163 q 166 170 167 176 q 168 181 169 187 l 169 189 q 167 188 165 185 q 163 182 162 181 l 162 181 q 161 181 161 182 l 169 190 l 169 191 l 171 194 l 166 191 l 173 199 q 173 198 173 199 l 173 199 q 173 200 173 200 q 173 201 173 201 q 170 198 166 196 l 172 202 q 176 203 177 207 q 176 206 173 204 q 170 202 169 201 q 169 202 171 204 q 172 205 174 206 q 177 208 178 209 q 177 209 176 209 q 178 214 184 214 q 186 216 189 219 q 192 222 194 223 z m 293 244 q 294 244 295 245 q 296 246 297 247 q 296 247 295 247 q 293 247 292 246 q 281 245 275 243 q 269 241 261 233 l 283 233 q 283 234 284 236 q 286 236 288 239 q 287 239 284 238 q 282 238 279 237 l 273 236 l 274 237 q 273 237 272 237 q 271 236 269 236 q 276 239 278 239 q 287 243 288 243 q 289 242 291 242 q 292 243 293 244 z m 476 439 l 476 441 q 476 442 474 442 q 473 441 472 442 q 472 442 472 441 l 471 440 l 471 439 q 471 435 472 430 q 473 426 473 421 q 474 418 477 418 q 477 419 478 419 q 478 419 477 420 q 478 422 477 424 q 477 427 478 428 l 478 415 q 478 414 478 414 l 480 414 q 478 417 480 420 l 481 425 l 481 416 q 482 416 483 418 q 484 419 487 419 q 487 421 486 422 q 485 424 484 426 q 482 428 480 430 q 478 432 477 436 q 476 429 477 424 l 476 423 l 475 424 q 474 426 475 431 q 476 437 476 439 z m 302 127 q 302 130 304 136 l 304 137 q 302 136 298 137 q 298 136 296 136 q 293 136 291 134 q 288 133 287 133 q 286 133 283 132 q 282 131 282 131 l 282 130 q 282 129 283 129 l 283 128 q 284 128 284 129 q 288 129 291 130 q 293 131 297 131 q 297 130 296 127 q 294 124 292 121 q 291 118 289 115 q 287 112 287 111 l 288 111 q 292 115 295 120 q 298 124 302 127 z m 445 262 q 446 263 444 268 q 443 273 442 274 l 441 276 l 441 274 l 440 274 l 439 273 l 438 274 l 438 272 l 437 272 q 436 272 436 272 l 436 271 q 436 264 439 259 q 438 258 438 255 q 438 253 439 252 l 439 252 q 439 253 439 253 q 440 254 440 255 q 441 254 441 253 q 441 252 442 251 l 443 250 q 443 251 443 251 l 444 251 q 446 252 446 256 q 446 259 446 261 l 446 262 q 446 262 445 262 z m 367 321 q 369 322 371 324 q 372 327 373 328 q 376 332 379 335 q 381 338 382 343 l 381 344 l 381 343 q 379 343 379 343 q 378 342 378 341 q 377 341 376 338 l 376 340 q 376 341 377 342 q 377 343 377 344 l 377 346 q 377 346 377 346 q 376 345 376 344 q 372 341 369 334 q 366 327 366 322 z m 384 274 q 386 276 387 275 q 388 274 389 275 q 388 276 385 278 q 382 280 378 282 q 375 284 372 286 q 369 287 367 287 q 367 288 366 287 q 362 287 361 287 q 361 287 358 286 l 366 282 q 369 281 372 279 q 375 277 379 275 l 381 274 l 382 273 z m 309 196 q 313 196 309 199 q 301 198 294 198 q 286 198 278 197 l 277 197 l 276 197 q 274 197 274 194 l 276 193 q 278 193 283 193 q 288 193 292 194 q 297 194 302 194 q 306 195 309 196 z m 556 404 q 553 408 552 411 q 550 414 547 418 q 539 426 531 426 q 523 427 514 423 q 513 422 512 422 q 511 422 509 421 l 505 421 q 507 420 511 420 q 514 421 518 421 q 522 422 526 423 q 529 424 531 424 q 533 423 535 422 q 537 422 539 421 q 541 418 544 416 q 547 413 549 411 q 552 409 552 408 q 553 406 556 404 z m 403 269 q 403 273 401 273 q 399 276 395 279 q 391 282 386 284 q 382 287 378 288 q 373 289 371 289 l 369 289 q 371 288 375 286 q 379 283 383 281 q 388 278 392 276 q 396 274 397 272 l 401 267 q 401 267 402 268 q 402 269 403 269 z m 726 549 q 724 549 721 548 q 717 547 713 546 q 709 544 706 544 q 703 543 703 544 l 704 546 q 703 546 701 544 q 698 543 697 544 l 698 545 l 742 556 q 747 557 752 559 q 758 561 760 562 q 758 560 754 558 q 749 556 744 554 q 739 553 734 551 q 728 550 726 549 z m 304 179 l 305 184 q 304 184 300 182 q 296 181 291 179 q 287 177 282 176 q 277 174 275 174 l 274 174 q 274 171 273 169 q 275 171 277 169 q 280 170 282 171 q 283 172 286 172 q 290 175 295 176 q 299 177 304 179 z m 266 251 l 264 251 q 256 248 249 248 q 243 247 236 245 q 232 244 229 242 q 225 241 221 240 q 222 241 225 242 q 228 244 229 244 q 234 247 238 247 l 245 249 q 242 249 238 249 q 234 249 233 248 l 233 249 l 232 249 q 237 252 241 252 q 246 252 252 252 q 255 252 258 252 q 262 251 264 252 q 266 252 266 251 z m 526 439 q 526 441 526 441 q 525 441 526 442 q 524 442 519 442 q 513 443 512 444 q 509 444 509 445 q 508 446 507 446 q 506 446 506 445 q 504 444 504 445 q 503 446 502 447 q 502 448 500 448 q 503 449 506 448 q 509 446 512 447 q 511 448 512 448 q 512 448 511 449 l 509 449 l 508 451 l 506 451 q 500 449 498 450 q 495 451 491 451 q 496 445 506 442 q 517 440 526 439 z m 391 297 q 387 305 383 310 q 379 315 374 321 l 373 322 l 371 321 l 369 317 q 370 317 373 314 l 377 310 q 379 308 381 305 q 383 303 385 302 q 387 299 388 299 q 388 298 391 297 z m 442 213 l 442 211 l 441 211 l 441 209 q 442 208 444 204 q 447 201 450 196 q 453 192 455 188 q 457 184 457 183 q 454 186 452 189 q 451 193 449 195 q 447 199 444 203 q 441 207 438 211 l 437 212 q 438 212 438 214 l 439 214 q 439 215 440 215 q 441 214 442 214 l 437 220 q 437 221 437 221 l 436 221 l 436 221 q 435 221 434 222 l 433 224 q 432 228 429 231 q 426 233 424 236 l 426 236 q 428 233 430 231 q 432 228 436 226 l 437 226 q 438 223 437 223 l 442 217 l 443 216 l 448 208 l 451 204 z m 388 236 q 387 233 385 232 q 383 230 382 227 q 382 226 383 224 q 384 222 383 221 l 381 220 l 381 219 l 379 218 q 378 219 378 220 l 373 214 q 374 213 374 211 q 374 211 374 210 q 373 210 373 209 l 373 209 l 371 209 l 371 210 q 370 209 369 208 q 368 206 367 204 q 365 202 364 199 q 361 197 361 196 l 359 196 q 359 197 361 199 q 362 201 364 203 q 366 206 368 208 q 369 211 370 213 q 372 216 375 218 q 377 221 378 223 l 378 224 q 377 226 378 226 l 381 229 l 382 228 q 383 229 384 230 q 384 232 386 232 q 384 233 384 235 l 384 236 q 384 237 386 238 q 387 237 387 238 l 387 236 l 388 237 z m 461 463 l 458 464 q 454 467 448 469 q 443 472 439 472 q 442 467 446 465 q 446 464 447 464 q 448 463 449 462 l 453 461 q 456 458 460 456 q 464 454 464 453 q 466 455 466 453 l 467 453 q 464 457 459 459 q 454 462 450 465 q 452 465 457 462 q 462 460 463 460 q 461 461 461 463 z m 299 221 l 289 222 q 287 222 285 222 q 284 223 283 222 q 282 222 282 221 l 282 219 l 283 219 q 284 220 284 219 q 284 219 286 219 l 286 219 q 287 219 287 219 q 288 219 291 219 q 293 219 294 218 q 298 217 301 217 q 305 217 309 214 q 311 214 312 213 q 313 213 314 213 q 315 214 315 215 q 315 216 316 216 z m 371 236 q 368 233 367 232 q 366 231 364 229 l 363 228 l 329 196 q 328 194 326 193 q 325 192 324 191 q 322 188 320 186 q 318 183 316 182 q 315 182 314 182 q 314 181 313 181 l 312 181 q 319 189 324 194 q 330 200 338 206 l 363 229 q 364 232 366 233 q 368 234 371 236 z m 536 361 q 533 358 532 353 q 531 348 529 344 l 527 342 q 526 345 527 348 q 528 351 527 355 q 527 356 527 359 q 527 361 526 362 q 527 363 527 364 q 526 364 526 366 l 528 366 q 531 365 532 364 q 533 363 536 362 z m 533 481 q 532 482 533 484 q 531 484 526 481 l 517 476 l 517 473 q 516 473 516 473 q 515 474 514 474 q 510 472 505 467 q 499 463 494 459 l 494 458 q 496 458 497 459 q 498 460 499 461 q 500 462 503 464 q 506 466 509 468 q 513 469 516 471 q 518 473 519 474 l 521 474 q 520 474 519 475 q 519 476 520 476 q 521 476 522 477 q 523 478 523 477 q 523 476 524 476 q 526 477 528 478 q 529 478 531 481 z m 138 87 q 141 86 145 87 q 148 87 151 90 l 152 92 q 154 93 154 95 q 153 96 151 96 l 147 98 z m 161 109 l 163 108 q 167 112 170 117 q 173 123 174 129 q 170 124 166 121 q 163 117 159 112 z m 364 290 q 367 291 367 292 q 368 293 369 294 q 368 296 364 294 q 361 292 358 293 l 359 294 l 367 297 q 367 298 366 298 q 363 299 358 296 q 353 292 352 291 q 351 289 351 289 q 350 289 350 288 l 352 286 q 353 285 354 286 q 356 287 357 288 z m 298 161 l 298 161 q 299 162 299 162 l 301 163 q 298 163 297 162 q 296 162 294 162 q 288 162 284 162 q 279 161 274 161 l 274 158 q 277 157 283 158 q 290 158 294 159 l 298 159 z m 527 296 q 523 296 521 294 q 519 294 515 293 q 510 292 505 291 q 499 290 495 289 q 490 288 489 289 q 490 291 492 291 q 494 292 496 292 l 497 292 l 497 293 l 499 293 l 499 292 q 505 292 512 295 q 520 297 527 297 l 528 296 z m 317 224 l 319 226 l 319 227 q 315 229 307 231 q 299 233 294 234 q 292 235 291 235 q 291 236 291 234 q 290 233 289 233 l 289 232 q 292 232 296 231 q 300 231 304 229 q 308 228 312 226 q 316 224 317 224 z m 586 491 l 594 492 q 597 492 603 492 q 609 493 616 492 q 623 492 629 492 q 635 492 638 491 l 637 490 l 604 491 q 599 491 594 491 q 589 491 585 490 z m 542 479 l 543 479 q 542 479 542 481 l 542 482 l 543 482 q 544 482 545 481 q 552 483 560 486 q 563 487 566 488 q 570 488 573 489 q 572 489 573 491 l 574 491 q 573 491 574 492 l 574 492 q 575 492 575 492 q 576 492 576 492 l 576 492 q 576 491 577 491 l 577 491 q 577 490 576 489 l 579 489 l 569 487 q 568 486 565 485 q 562 484 559 484 l 559 483 q 559 483 558 483 l 556 482 l 556 483 q 555 482 554 482 q 553 482 553 481 l 549 478 l 547 478 l 547 479 l 546 480 l 541 478 z m 711 633 l 709 631 q 709 632 708 632 q 708 632 707 631 l 706 630 l 706 629 l 704 628 l 703 628 q 703 627 702 628 q 701 629 699 629 q 697 631 697 631 q 696 633 696 636 q 697 638 699 639 l 699 640 l 701 636 l 701 634 l 707 634 l 710 633 z m 356 233 l 349 227 q 341 223 334 216 q 327 209 322 204 l 321 204 q 326 209 329 213 q 333 217 337 221 q 338 222 341 224 q 343 226 347 228 q 350 231 354 233 q 358 236 361 237 z m 212 238 q 212 236 209 235 q 206 234 202 234 q 198 233 194 233 q 191 232 189 232 q 188 232 186 231 q 184 229 182 229 q 183 231 186 232 q 188 233 192 234 q 196 236 199 237 q 203 238 205 238 z m 321 230 q 321 231 322 231 l 321 233 l 319 234 q 317 234 315 235 q 313 236 312 237 q 309 238 307 240 q 305 242 301 243 q 298 243 298 241 l 297 241 l 298 239 l 299 239 l 301 240 q 310 234 321 230 z m 454 251 q 453 251 453 249 l 454 249 q 457 245 460 241 q 464 237 468 233 q 468 234 469 234 l 469 235 l 472 235 q 472 233 473 232 q 472 231 471 231 q 472 229 475 226 q 477 223 477 222 l 476 222 q 476 222 474 224 q 470 228 467 232 q 463 237 459 241 q 458 243 456 244 q 453 246 452 247 q 452 248 451 248 q 450 248 449 248 l 451 249 l 451 251 q 452 252 454 251 z m 524 484 q 524 484 525 484 q 526 486 526 486 q 519 483 514 480 q 508 477 503 472 l 494 463 q 499 467 504 470 q 508 474 512 477 q 515 478 518 480 q 522 482 524 484 z m 432 264 q 433 264 433 265 l 433 266 q 428 267 422 267 q 417 266 412 265 l 409 262 q 415 263 422 263 q 428 262 433 263 z m 591 515 q 592 519 590 524 q 588 528 586 531 q 583 531 583 533 q 583 534 582 533 q 582 533 582 534 l 580 531 q 582 528 584 526 q 587 523 588 521 q 589 519 589 518 q 589 517 589 516 z m 586 519 l 586 521 q 583 521 582 522 q 580 522 577 522 l 577 521 q 577 520 578 519 l 576 519 l 576 517 q 578 516 582 514 q 587 513 588 514 l 588 516 q 587 517 587 517 l 583 519 z m 351 315 q 348 317 345 318 q 342 319 339 322 q 334 326 328 328 q 322 329 317 333 q 319 333 325 330 q 332 327 339 323 q 347 319 353 315 q 360 312 361 311 l 362 309 l 361 309 q 358 311 357 312 q 355 313 351 315 z m 409 267 l 408 267 l 408 269 q 407 268 406 269 q 406 268 405 268 q 404 267 404 267 q 401 264 400 262 q 398 259 397 255 q 397 254 398 254 q 398 253 397 252 l 399 254 q 398 254 399 255 q 399 256 401 256 l 403 259 q 407 262 408 266 z m 632 496 l 633 494 q 630 496 628 496 q 625 496 621 496 q 610 497 594 496 q 579 495 568 492 q 567 492 565 492 q 582 496 599 498 q 616 499 632 496 z m 453 241 l 453 240 q 454 240 454 239 l 454 238 l 461 232 q 461 231 461 231 q 460 231 459 230 q 458 232 456 234 q 453 237 452 238 q 451 239 451 238 l 450 238 q 449 238 449 238 q 448 239 447 239 q 446 241 446 244 l 447 244 q 447 245 447 245 q 447 246 447 246 l 446 247 l 447 247 l 449 246 q 449 246 450 246 q 451 245 451 245 q 452 244 452 244 l 453 243 q 452 243 453 242 q 454 242 453 241 z m 379 252 q 369 249 357 242 q 344 235 336 227 q 333 224 330 221 q 326 218 322 216 q 324 218 326 220 q 327 222 329 223 q 338 231 348 238 q 358 246 371 250 q 373 252 379 252 z m 381 266 l 379 266 l 379 264 q 378 265 378 266 l 378 266 q 377 264 377 264 q 376 263 376 264 l 374 266 q 373 266 373 267 l 374 267 q 373 268 373 268 l 373 269 q 372 269 370 271 q 367 272 366 272 q 364 271 364 272 q 364 272 363 271 q 362 272 362 272 q 362 271 361 271 q 360 272 360 272 q 361 272 359 273 q 360 274 361 274 q 361 274 361 276 l 360 277 q 362 277 364 276 q 366 275 367 274 q 368 273 370 272 q 373 271 374 270 q 374 271 375 271 q 376 271 376 270 l 379 268 q 379 268 380 267 q 381 266 381 266 z m 453 201 l 454 201 l 456 202 l 457 201 l 457 196 q 460 192 463 188 q 467 183 469 179 l 469 178 q 467 181 465 182 q 464 184 463 187 q 462 188 460 190 q 458 192 456 193 l 453 198 l 451 203 z m 378 181 q 378 179 374 175 q 371 170 366 165 q 361 161 357 156 q 353 152 352 151 q 349 149 349 149 q 349 148 347 148 l 346 148 l 346 149 l 353 154 l 368 169 q 371 169 372 173 q 374 178 376 179 q 376 180 377 181 q 377 181 378 181 z m 311 121 l 311 122 q 311 125 312 127 q 312 129 311 132 l 311 134 q 309 136 309 135 q 308 135 307 135 q 307 133 307 132 q 307 132 308 130 l 307 129 q 308 127 308 125 q 308 123 309 121 l 310 120 q 311 120 311 121 z m 459 517 q 459 518 459 521 q 459 524 459 528 q 458 531 458 534 q 457 538 456 539 l 456 538 l 454 537 q 454 534 455 531 q 456 528 456 526 l 457 524 q 458 523 458 522 q 458 522 458 521 l 457 521 l 457 518 l 458 518 l 458 518 z m 490 231 q 491 230 493 227 q 495 224 497 221 q 499 218 501 216 q 502 213 502 213 q 501 214 496 220 q 491 227 490 229 q 486 233 481 238 q 477 243 474 247 z m 298 301 q 299 301 302 300 q 306 299 310 298 q 314 297 318 296 q 322 294 324 294 l 323 293 q 321 293 317 294 q 313 295 309 296 q 305 297 302 299 q 298 300 298 301 z m 514 466 q 514 467 514 467 q 514 466 513 466 l 513 468 q 512 467 512 468 q 512 468 511 467 l 511 466 q 511 464 509 464 l 508 464 q 505 463 500 460 q 496 457 493 456 l 491 454 l 496 454 q 496 453 497 454 l 497 454 q 497 455 497 455 q 497 456 497 456 q 500 457 505 460 q 510 463 514 466 z m 341 364 q 342 363 342 362 q 341 361 341 358 l 338 360 q 335 363 332 366 q 328 369 325 372 l 328 371 q 331 370 332 368 q 333 367 335 364 q 336 365 337 366 q 337 367 337 367 l 338 367 z m 418 216 q 418 216 418 215 q 418 214 418 214 q 421 210 423 208 q 426 205 428 201 q 430 197 432 195 q 434 192 436 189 q 430 196 426 201 q 422 207 418 213 q 417 213 414 218 q 411 223 409 224 q 409 226 410 226 q 410 225 411 224 q 411 224 411 224 q 412 223 413 221 q 414 218 416 217 l 417 218 q 417 218 419 217 z m 544 441 l 544 444 q 542 445 540 444 q 538 444 536 444 q 533 446 529 446 q 524 446 523 446 l 522 446 l 522 444 l 523 444 q 523 443 525 443 q 526 443 526 444 q 531 443 535 442 q 539 442 543 441 z m 455 507 q 456 510 456 516 q 456 522 454 524 q 453 524 453 523 q 453 522 451 521 q 452 518 452 516 q 452 513 453 509 q 454 509 454 508 q 454 508 455 507 z m 364 172 l 361 169 l 357 166 q 356 164 351 161 q 347 157 345 156 l 344 156 l 344 157 q 347 159 348 161 q 349 163 352 164 q 355 167 357 168 q 359 170 362 173 q 362 173 364 173 z m 556 469 q 552 468 549 468 q 545 467 541 466 q 542 464 543 464 q 543 463 546 464 q 548 464 551 466 q 553 467 556 468 q 558 468 559 469 q 561 469 562 471 z m 504 298 q 503 299 501 298 q 498 298 496 298 q 494 297 491 297 q 488 297 486 296 q 483 296 482 295 q 480 294 477 294 q 477 294 482 296 q 486 297 491 298 q 496 299 500 300 q 504 301 505 301 l 506 301 z m 313 288 q 312 289 310 289 q 309 289 308 289 q 303 291 300 292 q 296 293 292 294 l 291 295 l 292 295 q 293 295 296 294 q 299 294 303 293 q 306 292 309 291 q 312 289 313 289 z m 502 321 q 505 322 509 322 q 512 323 515 324 l 511 326 q 508 326 507 327 l 504 325 l 502 323 z m 592 566 l 597 566 q 600 566 602 567 q 605 567 609 567 l 614 567 l 613 568 q 609 569 603 569 q 598 569 595 569 q 594 569 594 568 q 592 568 592 566 z m 544 278 q 541 279 539 279 q 537 279 534 279 l 516 276 q 512 277 509 276 q 505 274 501 273 l 502 274 l 501 274 l 502 275 q 503 275 506 275 q 508 275 509 276 q 512 277 517 278 q 522 278 527 279 q 532 279 537 279 q 542 279 544 279 z m 296 146 q 294 147 292 148 q 289 148 288 148 l 286 149 l 274 154 q 274 152 276 151 q 285 146 294 146 z m 371 374 l 371 371 q 370 372 370 372 l 368 373 l 369 373 l 369 374 q 366 378 362 382 q 358 386 354 390 l 356 391 l 356 389 q 357 388 359 386 q 362 385 363 382 q 364 381 366 379 q 368 377 369 376 l 371 376 l 372 375 z m 433 271 l 433 273 q 432 273 426 272 q 421 271 420 271 q 419 271 419 269 l 419 268 q 421 269 422 269 q 424 269 426 269 z m 232 164 q 229 162 228 163 q 223 163 221 162 q 218 161 217 160 l 218 163 q 224 167 232 164 z m 398 234 q 401 226 403 221 q 405 216 408 209 l 407 209 q 406 210 404 214 q 403 217 401 221 q 400 225 399 228 q 398 232 398 233 z m 446 169 q 443 169 442 171 l 434 181 l 434 182 q 437 179 439 177 q 442 175 445 171 q 447 169 448 168 l 448 166 q 447 167 447 168 q 446 168 446 169 z m 326 277 l 325 277 q 318 280 312 281 q 305 283 297 284 q 296 284 296 285 q 296 286 297 286 l 297 286 q 304 284 312 282 q 320 280 326 277 z m 369 367 l 369 366 l 371 366 q 372 365 372 364 q 372 363 371 363 l 371 362 l 369 362 l 368 364 q 368 368 364 370 q 363 371 363 371 l 363 371 l 361 371 l 361 372 q 360 372 360 373 q 359 373 361 374 q 361 373 362 374 q 362 374 363 376 q 363 374 364 373 z m 439 307 l 437 306 q 436 303 434 301 q 432 298 432 297 l 434 298 l 436 299 q 438 301 439 302 q 439 303 441 305 q 441 306 440 307 q 441 307 441 308 q 439 308 439 307 z m 466 369 q 466 363 464 357 q 461 351 458 345 q 459 350 462 358 q 464 366 466 370 z m 347 267 q 346 267 344 268 q 343 269 342 269 q 341 268 341 268 q 341 269 341 268 l 339 269 l 337 271 l 327 276 q 330 277 334 275 q 338 272 341 271 q 342 270 343 269 q 344 269 346 268 l 347 268 z m 532 308 l 523 308 q 520 308 518 308 q 517 308 514 307 q 514 306 511 306 q 509 305 509 306 l 509 307 l 511 307 q 516 308 522 309 q 528 310 533 309 q 532 308 532 308 z m 317 125 q 318 127 317 130 q 317 133 314 136 l 314 136 q 314 135 313 135 q 313 134 314 130 q 315 126 315 124 l 316 124 z m 538 301 q 537 301 535 302 q 533 303 532 303 q 529 303 521 301 q 513 300 511 301 q 515 302 524 303 q 534 304 538 302 z m 293 141 l 293 143 q 292 142 289 142 q 287 142 286 142 l 277 142 l 277 142 l 277 141 l 277 140 q 278 142 279 140 q 281 139 281 140 q 283 139 287 140 q 291 141 293 141 z m 346 386 q 343 388 341 391 q 338 393 337 395 l 348 386 q 351 383 353 380 q 356 377 358 373 q 358 372 358 372 q 359 371 360 369 q 354 379 346 386 z m 226 149 q 224 149 225 148 q 226 148 224 147 l 224 146 l 221 148 q 219 148 219 149 q 219 149 218 151 l 219 151 q 221 152 223 152 l 224 151 l 226 151 z m 426 243 q 423 246 422 247 q 421 248 418 250 q 417 250 415 251 q 414 251 413 251 l 412 251 q 413 249 415 248 q 416 247 417 246 l 418 248 q 421 247 422 246 q 423 244 424 243 l 424 241 q 426 242 426 243 z m 357 382 l 356 382 q 356 381 353 384 q 351 387 348 389 l 346 391 l 346 392 l 345 393 l 344 394 l 345 394 q 347 393 349 391 q 352 388 354 386 q 354 384 356 384 q 357 383 357 382 z m 586 437 l 584 437 q 580 440 575 442 q 569 444 564 446 q 566 446 569 445 q 573 444 576 443 q 579 442 582 441 q 585 439 586 439 z m 331 289 l 330 290 l 331 291 q 332 291 338 288 q 344 286 349 283 l 352 281 q 352 281 349 282 q 346 283 342 285 q 339 287 336 288 q 332 289 331 289 z m 568 536 l 567 535 q 566 536 567 537 q 568 537 567 538 q 570 542 571 546 q 571 549 572 554 l 573 556 l 573 555 q 572 551 571 544 q 570 537 568 536 z m 366 311 l 359 316 l 355 319 l 353 321 l 354 321 q 356 321 360 318 q 364 314 367 313 q 366 312 366 312 z m 366 551 l 364 550 q 359 554 352 557 q 345 559 337 562 q 339 562 344 561 q 348 559 352 558 q 357 556 361 554 q 364 552 366 551 z m 601 474 q 598 473 592 472 q 585 472 578 471 q 584 472 589 474 q 595 475 601 474 z m 460 501 q 461 503 461 506 q 461 509 461 511 l 458 511 q 458 509 458 506 q 459 502 459 501 z m 334 168 q 332 164 328 162 q 325 161 322 158 q 322 158 321 158 q 321 157 320 157 l 319 157 l 318 157 l 324 161 q 327 163 328 165 q 330 167 334 168 z m 392 204 q 391 199 388 197 l 387 196 q 388 197 389 199 q 390 201 390 202 l 387 202 l 387 204 l 389 207 l 391 206 l 391 204 q 391 206 393 208 l 393 208 q 392 206 392 204 z m 463 335 q 463 333 461 332 l 458 332 l 458 331 l 458 331 q 458 330 458 330 q 457 329 457 329 l 456 331 l 458 335 q 458 336 461 337 l 462 336 q 463 336 463 335 z m 421 223 q 422 223 423 221 q 424 219 427 218 q 427 217 426 217 q 427 214 430 211 q 432 208 433 207 l 432 206 q 432 207 432 207 l 431 207 q 429 209 428 211 q 427 213 426 216 l 424 216 l 424 217 q 423 217 423 218 q 423 218 424 219 q 421 222 421 223 z m 409 232 q 408 231 408 231 q 409 231 409 229 l 408 229 q 406 229 406 231 l 405 231 l 403 234 q 404 234 404 234 l 404 235 l 406 236 q 407 236 407 236 q 407 236 407 236 q 407 235 408 235 l 408 234 q 409 233 408 233 q 408 233 409 232 z m 327 365 q 326 364 325 364 q 325 366 324 366 q 324 367 321 369 q 318 370 317 371 q 316 372 315 372 q 314 373 314 374 q 317 372 320 371 q 323 370 326 367 q 326 366 327 365 z m 639 477 q 635 478 632 478 q 630 478 626 478 l 626 479 q 627 481 632 480 q 638 479 639 479 q 639 478 639 478 q 639 477 639 477 z m 415 414 q 413 416 413 418 q 412 420 411 423 q 411 422 410 422 q 409 421 409 421 q 409 418 411 417 q 413 415 414 411 l 414 412 q 415 413 416 413 q 416 414 415 414 z m 344 278 l 346 277 q 346 276 348 276 l 348 274 q 346 276 341 277 l 341 277 l 341 276 l 339 276 l 337 277 q 337 277 338 279 l 341 279 l 341 281 l 343 281 q 343 280 343 279 q 343 279 344 279 z m 473 343 q 471 342 471 339 q 470 338 469 338 l 469 337 l 466 329 l 464 331 l 466 334 q 468 338 469 339 q 470 340 471 341 q 471 343 472 344 z m 435 388 q 436 387 435 385 q 435 382 435 379 q 434 376 434 374 q 434 372 434 371 q 434 364 433 362 q 434 368 434 376 q 433 384 435 388 z m 456 483 l 451 489 l 449 491 l 448 489 l 448 488 l 451 486 l 453 482 q 453 483 453 483 l 454 483 z m 477 211 l 482 204 l 484 201 l 486 198 l 486 197 l 484 199 q 483 200 481 203 q 478 207 477 209 l 476 211 z m 356 189 l 353 185 l 344 177 q 345 178 346 180 q 347 182 348 183 l 354 188 q 354 188 355 189 q 356 189 356 191 z m 509 457 l 504 454 l 503 454 q 506 453 509 454 q 512 456 513 457 l 513 458 l 517 461 z m 439 464 l 439 465 l 439 466 q 438 466 438 466 q 437 466 435 467 q 434 467 433 467 q 433 466 432 466 q 432 466 432 465 l 432 464 q 433 463 435 463 q 438 463 439 464 z m 296 301 q 294 301 288 303 q 282 304 282 306 q 284 306 289 304 q 293 303 294 302 l 296 302 z m 407 433 l 404 433 q 402 432 402 431 q 399 429 399 428 q 398 427 397 425 q 396 425 396 426 l 396 426 l 397 426 q 398 427 398 428 q 398 429 399 431 l 400 431 l 401 433 q 402 434 403 433 q 404 433 406 434 l 406 436 l 407 436 z m 456 619 q 457 618 458 616 q 458 613 459 611 q 461 608 462 605 q 463 602 463 601 l 457 613 q 458 613 457 616 q 456 619 454 621 l 455 621 z m 381 346 l 384 346 l 384 343 q 384 344 385 344 q 386 344 386 346 q 386 347 384 348 q 383 349 384 351 q 383 350 383 349 l 382 349 l 381 349 l 379 349 q 381 346 381 346 z m 351 265 l 351 266 q 352 266 357 263 q 362 259 366 258 l 354 263 q 351 264 351 265 z m 314 288 q 316 289 319 287 q 323 286 328 284 q 329 283 329 283 q 330 283 331 282 l 324 284 z m 447 352 q 446 351 446 349 q 445 348 445 347 q 442 347 442 348 l 442 350 q 442 352 443 352 l 444 352 l 444 353 l 446 353 z m 547 296 l 533 296 q 533 297 534 298 q 537 298 541 298 q 546 297 547 296 z m 454 337 q 453 336 453 335 q 453 334 452 334 l 451 333 l 451 334 l 454 339 l 454 340 q 454 341 453 341 q 453 340 453 339 l 452 341 q 452 343 453 343 q 454 344 455 343 q 456 343 457 343 z m 487 211 q 487 209 489 206 q 491 203 492 201 q 489 203 488 206 q 487 209 484 211 l 484 212 l 485 212 z m 335 307 l 334 306 q 333 307 327 309 q 325 310 322 311 l 321 312 q 321 313 322 312 q 322 312 321 313 q 325 312 329 310 q 332 308 335 307 z m 477 237 q 478 233 483 229 l 482 228 l 481 229 q 478 232 477 234 q 476 237 474 239 q 473 239 472 240 q 471 242 469 243 q 472 242 473 241 q 474 241 475 238 q 476 238 477 237 z m 444 456 l 443 456 l 444 457 l 446 458 q 444 458 442 458 q 440 458 439 458 l 438 457 l 438 456 l 437 454 z m 474 204 l 473 202 l 471 204 q 471 206 470 206 q 469 207 469 208 q 471 208 470 207 q 469 206 472 207 l 474 207 l 476 206 q 475 206 474 205 q 474 204 474 204 z m 503 264 l 503 262 l 502 261 l 501 260 q 500 259 499 259 l 499 259 l 499 261 l 498 262 l 499 264 z m 377 282 l 377 279 l 376 279 q 374 279 373 280 l 373 281 l 373 282 q 372 282 373 282 l 374 283 q 375 283 375 283 q 374 284 376 283 z m 451 493 q 449 496 447 498 q 444 499 443 502 l 442 502 l 442 500 q 442 499 447 496 z m 477 274 l 477 273 q 478 272 478 272 q 477 272 477 272 l 477 271 l 474 271 l 474 272 q 473 272 473 273 l 473 274 l 474 276 z m 421 234 l 426 227 q 423 230 421 232 q 418 235 416 238 l 417 238 l 419 236 q 419 237 419 237 q 421 237 421 236 z m 461 247 l 461 244 l 459 244 q 458 246 458 245 q 457 245 457 246 l 456 249 l 457 249 l 458 249 q 459 249 459 248 q 460 248 460 248 q 460 247 461 247 z m 378 371 l 378 371 q 378 370 379 370 q 379 369 379 369 l 378 369 q 377 368 377 368 q 376 369 376 368 l 374 369 q 375 371 374 372 l 376 373 q 377 373 378 371 z m 596 431 l 596 429 l 594 431 q 593 431 591 434 q 589 435 588 435 q 587 435 586 436 l 587 437 q 588 437 591 435 q 594 432 596 431 z m 313 366 l 303 372 l 303 373 q 304 372 308 370 q 311 368 314 365 q 318 362 321 360 q 323 358 324 357 l 324 357 z m 469 351 q 467 348 466 345 q 465 342 462 340 l 461 340 q 462 341 464 344 q 466 348 466 349 q 466 348 467 349 q 467 349 468 351 z m 534 456 l 534 454 q 536 454 537 454 q 538 455 541 456 l 541 457 z m 351 251 q 349 251 345 253 q 341 255 339 255 q 338 256 334 257 q 331 258 329 259 q 333 258 341 255 q 348 252 351 251 z m 433 361 l 434 362 q 435 362 436 362 l 436 361 l 437 361 q 437 361 437 360 q 436 359 436 358 l 433 359 z m 431 186 l 431 184 l 428 188 q 426 189 422 194 q 418 199 414 205 q 418 201 422 196 q 426 191 431 186 z m 352 273 l 351 272 l 351 271 l 350 271 q 349 272 349 273 l 351 273 q 352 274 356 272 q 359 271 361 269 q 358 269 356 271 q 353 272 352 273 z m 323 261 l 307 266 q 311 265 315 264 q 319 263 322 262 q 323 262 323 261 z m 473 403 q 473 402 473 400 q 473 398 473 396 q 472 394 472 391 l 471 390 l 471 391 q 471 392 472 394 q 472 396 472 398 q 472 399 472 401 l 472 403 z m 467 224 q 468 223 470 221 q 471 218 472 217 l 461 229 l 462 229 q 463 228 464 227 q 466 226 467 224 z m 315 378 l 309 381 q 308 381 306 382 q 305 383 304 383 l 304 384 q 307 383 311 380 q 316 378 321 375 z m 571 461 l 571 462 q 572 462 572 463 l 574 462 l 581 462 l 575 461 q 573 461 572 461 q 571 460 568 461 z m 394 284 l 394 283 q 395 283 394 282 q 394 282 396 282 q 397 281 398 280 q 397 281 398 282 q 398 283 398 284 q 397 284 397 283 q 397 283 396 284 q 394 284 394 284 q 394 285 393 286 q 393 285 393 284 q 393 284 394 284 z m 507 306 q 504 305 502 304 q 501 304 498 304 q 501 306 503 306 q 504 306 507 306 z m 376 366 l 376 365 l 375 365 q 374 366 373 367 q 373 369 372 371 z m 646 574 q 647 573 648 573 q 649 574 649 573 l 651 574 l 651 573 q 652 573 652 572 q 653 572 654 571 q 653 571 652 572 q 652 572 651 571 l 651 572 q 648 572 648 572 q 647 573 646 573 z m 334 341 q 336 341 336 342 q 337 341 339 339 q 341 338 344 336 z m 407 218 l 413 208 q 407 216 407 218 z m 574 469 l 574 472 l 576 471 l 577 471 q 575 469 574 469 z m 489 303 q 491 304 497 304 q 494 303 493 303 q 492 303 489 303 z m 664 576 l 664 574 q 663 575 661 576 q 659 577 658 577 q 660 577 661 577 q 663 577 664 576 z m 302 328 l 302 329 l 301 330 l 301 331 q 303 328 308 327 q 306 328 302 328 z m 511 556 q 511 554 510 553 q 509 552 509 551 l 507 545 q 508 548 508 551 q 508 553 511 556 z m 560 491 q 558 489 558 489 l 557 488 q 556 489 556 488 q 556 488 554 489 z m 363 399 l 365 397 l 366 397 l 366 396 l 367 396 q 366 397 367 397 q 367 397 366 398 l 366 399 z m 447 457 l 447 456 l 449 456 q 449 456 452 457 q 448 457 446 458 q 446 457 447 457 z m 164 193 l 164 194 l 166 196 q 166 193 164 193 z m 318 171 l 318 172 q 322 173 322 174 q 323 174 323 174 q 323 175 323 176 l 323 174 q 322 173 320 172 q 319 171 318 171 z m 319 323 l 319 322 q 317 322 316 323 q 314 324 313 326 l 318 323 z m 416 326 l 415 326 l 416 331 z m 494 199 q 494 198 493 198 q 493 198 493 197 l 493 199 q 492 199 492 200 l 492 201 q 492 201 493 199 z m 162 186 l 162 187 q 163 188 164 189 q 165 190 166 191 z m 546 457 l 544 458 q 543 457 541 457 q 542 458 543 457 q 544 456 544 457 z m 326 178 q 326 177 326 177 q 325 177 325 177 q 324 177 324 176 q 327 179 328 179 l 327 178 q 327 178 326 178 z m 362 238 q 363 239 364 239 q 364 240 365 241 l 361 237 q 362 237 362 238 q 362 238 362 238 z m 536 598 q 536 596 534 594 z m 746 573 q 747 572 748 573 q 747 574 746 573 z m 457 343 l 457 343 q 457 343 458 344 q 458 344 458 345 z m 487 498 q 488 499 488 500 q 487 501 487 502 q 486 499 487 498 z m 409 448 l 410 449 l 411 449 z m 227 247 l 226 246 l 226 247 z m 386 457 l 385 456 l 384 456 z m 566 528 q 566 527 564 525 z m 378 371 l 379 372 q 379 371 378 371 z m 344 177 l 343 176 q 343 177 344 177 z m 366 521 l 367 520 q 366 520 366 521 z m 394 457 l 397 458 q 395 457 394 457 z m 414 206 q 414 206 414 205 l 413 208 q 413 207 414 206 z m 564 492 l 560 491 q 561 491 564 492 z m 420 224 l 419 224 l 421 223 q 420 223 420 224 z m 368 519 l 367 520 l 367 519 l 368 518 z m 437 188 l 439 187 q 437 187 437 188 z m 482 603 q 482 602 482 602 l 483 603 z m 581 462 l 581 463 l 582 462 z m 546 532 l 547 533 l 547 532 z m 546 531 l 546 532 q 546 532 546 531 q 546 531 546 531 z m 325 356 l 324 357 q 324 356 325 356 z m 428 226 l 428 225 l 427 226 z m 557 403 q 557 402 559 399 q 558 401 558 401 q 558 402 557 403 z m 392 288 q 392 287 392 287 q 393 287 393 286 l 393 287 z m 402 312 l 401 311 l 401 312 q 402 312 402 312 z m 347 334 l 350 332 z m 401 308 l 401 309 q 401 308 401 308 q 401 308 401 307 z m 534 593 q 534 594 534 594 q 534 594 534 594 l 534 594 z m 489 303 q 488 302 487 302 z m 399 459 q 398 459 398 459 q 398 458 397 458 z m 563 523 l 564 525 l 562 522 q 562 522 562 522 q 563 522 563 523 z m 574 556 q 574 556 574 556 q 573 556 573 555 l 574 555 z m 602 587 q 603 587 604 588 z m 308 327 q 309 327 310 327 q 309 327 309 327 q 309 327 308 327 z m 178 210 l 178 209 z m 323 374 l 324 373 q 323 374 323 374 z m 451 203 l 451 204 z m 371 371 l 372 371 q 371 371 371 371 z m 312 327 q 312 326 313 326 q 312 326 312 327 z m 552 488 q 553 488 554 489 q 553 488 552 488 z m 344 336 l 347 334 z m 360 369 l 360 368 z m 366 241 q 366 241 365 241 q 366 241 366 241 z m 376 507 q 375 507 375 507 q 376 507 376 507 z m 404 528 l 404 527 q 404 528 404 528 z m 323 176 q 324 176 324 176 z m 311 327 l 312 327 z m 324 373 l 325 372 l 324 373 z m 341 191 l 341 192 z m 303 374 l 302 374 l 303 373 z m 367 257 l 366 258 q 366 257 367 257 z"},"x":{"x_min":0,"x_max":374,"ha":374,"o":"m 249 8 q 233 -1 221 -7 q 209 -12 198 -12 q 189 -13 183 -13 q 176 -13 171 -10 q 166 -7 163 0 q 161 6 161 18 q 161 21 161 28 q 161 35 161 48 q 161 61 161 80 q 161 99 161 129 q 148 114 131 97 q 114 80 96 62 q 78 44 61 26 q 43 9 28 -6 q 13 -21 2 -32 q -9 -43 -14 -47 q -17 -51 -20 -51 q -23 -51 -25 -48 q -27 -46 -28 -42 q -28 -39 -25 -36 q -20 -32 -7 -19 q 6 -7 28 15 q 51 37 83 70 q 116 103 162 149 q 163 194 163 230 q 164 266 164 291 q 164 317 164 331 q 164 344 163 346 q 161 348 158 349 q 155 351 151 349 q 148 348 140 343 q 133 338 120 323 q 107 308 87 280 q 67 253 39 208 q 36 206 33 206 q 31 207 29 210 q 27 212 28 215 q 28 218 31 221 q 43 242 58 265 q 73 288 91 311 q 99 323 110 335 q 120 347 131 357 q 142 366 153 372 q 164 378 174 379 q 183 379 191 378 q 198 377 204 374 q 211 371 214 364 q 218 358 218 346 q 217 306 218 274 q 218 243 219 210 q 247 237 271 262 q 295 286 315 306 q 335 326 350 341 q 365 357 374 366 q 380 370 383 365 q 386 359 381 355 q 376 350 364 338 q 353 326 336 309 q 320 292 299 270 q 279 249 256 225 l 219 188 q 219 172 220 159 q 220 147 220 131 q 220 116 220 95 q 220 73 220 41 q 220 28 225 25 q 230 21 233 21 q 246 22 264 36 q 283 51 307 79 q 330 107 358 148 q 385 188 416 241 q 423 246 426 241 q 430 237 426 231 q 411 207 391 174 q 371 142 348 110 q 325 78 300 51 q 274 23 249 8 z"},"v":{"x_min":0,"x_max":373,"ha":373,"o":"m 228 321 q 218 296 205 273 q 192 249 177 226 q 162 203 146 180 q 131 157 118 132 q 107 113 97 94 q 88 74 82 57 q 77 41 77 30 q 77 19 85 19 q 98 18 117 31 q 136 44 158 64 q 179 83 201 107 q 223 131 241 154 q 235 169 236 191 q 238 213 245 237 q 252 261 264 285 q 276 309 291 328 q 306 347 323 359 q 340 371 358 371 q 363 371 371 370 q 379 369 387 366 q 394 363 399 358 q 404 353 404 345 q 403 335 392 314 q 382 294 363 267 q 345 240 321 209 q 296 178 269 148 q 266 144 269 142 q 272 140 278 139 q 284 138 290 138 q 296 137 299 137 q 319 137 336 147 q 352 157 366 172 q 381 187 392 205 q 404 223 414 239 q 416 242 419 243 q 422 243 424 242 q 426 241 426 238 q 427 235 425 231 q 415 215 403 196 q 391 178 376 162 q 361 146 342 135 q 324 124 301 124 q 291 123 279 124 q 268 126 258 133 l 257 133 q 239 112 214 88 q 189 64 163 43 q 138 23 114 9 q 91 -4 75 -3 q 55 -1 44 6 q 33 13 29 26 q 25 38 27 54 q 29 69 36 88 q 47 121 63 152 q 79 182 97 211 q 116 240 134 269 q 153 298 168 328 q 171 335 171 338 q 172 342 170 343 q 166 350 156 346 q 146 341 132 329 q 119 317 105 299 q 91 282 78 265 q 64 247 54 232 q 44 217 39 208 q 36 206 33 206 q 30 207 28 208 q 27 210 26 212 q 26 215 29 217 q 43 239 59 266 q 76 292 95 314 q 113 337 134 353 q 156 368 179 369 q 187 369 198 366 q 208 362 217 356 q 225 350 229 341 q 233 332 228 321 z m 358 336 q 366 354 352 354 q 339 354 326 343 q 313 332 301 315 q 289 297 279 276 q 268 254 261 234 q 254 213 251 195 q 247 177 249 166 q 282 206 310 249 q 338 292 358 336 z"},"O":{"x_min":0,"x_max":744,"ha":744,"o":"m 187 -84 q 176 -84 158 -82 q 139 -79 119 -72 q 98 -65 78 -52 q 57 -40 41 -20 q 24 -1 13 27 q 3 54 3 91 q 3 168 24 236 q 44 303 78 362 q 112 420 154 468 q 197 517 241 555 q 270 614 312 666 q 355 719 409 758 q 464 797 530 820 q 596 843 673 844 q 714 844 743 831 q 772 818 791 795 q 810 772 819 740 q 827 707 827 668 q 827 622 814 566 q 800 511 775 452 q 751 392 716 332 q 681 271 639 214 q 597 157 549 107 q 501 56 449 17 q 498 14 545 30 q 592 46 634 74 q 676 103 712 141 q 748 179 776 221 q 778 226 782 227 q 785 228 788 227 q 790 226 791 223 q 792 220 789 216 q 762 175 726 136 q 691 96 646 66 q 601 35 546 16 q 491 -2 424 -2 q 369 -37 310 -58 q 251 -80 187 -84 z m 361 9 q 308 19 272 46 q 237 74 215 112 q 193 151 183 197 q 174 243 174 291 q 174 301 176 316 q 178 331 180 346 q 183 362 185 376 q 187 391 187 399 q 127 315 94 241 q 61 166 58 91 q 57 63 65 36 q 73 10 89 -10 q 106 -30 132 -41 q 158 -53 194 -51 q 211 -51 232 -45 q 253 -40 276 -32 q 298 -24 320 -13 q 342 -3 361 9 z m 266 476 q 242 419 229 362 q 217 306 217 253 q 217 211 226 173 q 234 135 253 105 q 271 74 300 53 q 328 32 369 24 q 419 63 468 116 q 518 168 563 228 q 608 288 647 352 q 686 416 714 478 q 743 540 759 596 q 775 653 775 698 q 775 754 749 788 q 723 821 664 822 q 626 823 582 807 q 539 791 497 764 q 454 737 415 703 q 376 669 346 634 q 373 649 390 658 q 407 668 418 674 q 428 679 434 682 q 439 684 442 686 q 449 686 460 685 q 471 684 483 682 q 495 679 506 676 q 517 673 525 670 q 533 667 536 664 q 538 661 534 659 q 506 647 473 629 q 441 612 406 589 q 372 566 336 537 q 301 509 266 476 z"},"C":{"x_min":0,"x_max":634,"ha":634,"o":"m 252 -48 q 278 -46 309 -40 q 339 -34 375 -19 q 410 -5 450 20 q 490 45 535 84 q 581 123 631 179 q 681 234 737 309 q 739 313 742 314 q 745 316 747 314 q 749 313 748 309 q 748 306 743 299 q 723 272 694 233 q 666 194 630 152 q 593 109 549 67 q 506 25 455 -8 q 404 -41 347 -60 q 290 -79 228 -77 q 177 -76 144 -53 q 111 -31 94 3 q 78 37 76 79 q 74 121 85 163 q 89 182 97 206 q 104 231 115 260 q 126 288 140 319 q 153 350 170 381 q 130 404 107 441 q 84 478 84 532 q 84 558 91 584 q 98 610 108 634 q 118 658 129 678 q 141 698 149 711 q 156 718 170 726 q 184 734 200 742 q 216 750 232 757 q 248 763 260 767 q 272 770 278 769 q 283 768 279 761 q 267 745 246 719 q 226 693 206 662 q 186 631 171 597 q 157 562 156 529 q 154 495 164 468 q 173 441 192 418 q 221 466 255 516 q 289 565 329 611 q 368 656 412 696 q 457 737 505 767 q 553 798 605 817 q 657 836 712 839 q 737 841 761 836 q 784 831 802 820 q 821 808 832 790 q 843 772 843 747 q 843 741 842 734 q 841 726 838 717 q 818 666 785 619 q 752 572 710 531 q 667 489 618 456 q 568 423 516 399 q 464 375 412 362 q 360 349 312 349 q 294 349 276 351 q 257 353 234 358 q 218 324 206 293 q 193 263 184 237 q 174 211 169 192 q 163 172 161 161 q 155 134 152 111 q 149 87 149 68 q 149 43 155 21 q 161 -1 174 -17 q 187 -33 206 -41 q 226 -50 252 -48 z m 709 828 q 658 824 611 804 q 564 783 521 750 q 477 717 438 674 q 399 631 365 583 q 331 535 301 484 q 272 434 248 386 q 262 382 275 381 q 288 380 302 380 q 347 380 400 395 q 452 410 505 436 q 558 462 607 497 q 657 532 696 572 q 736 613 761 656 q 787 699 792 741 q 794 766 789 783 q 783 801 772 811 q 760 821 744 825 q 728 829 709 828 z"},"W":{"x_min":0,"x_max":656,"ha":656,"o":"m 529 469 q 534 473 548 475 q 562 477 576 477 q 590 477 596 474 l 569 454 q 541 431 518 398 q 494 365 474 326 q 455 287 440 245 q 424 202 414 161 q 403 119 398 81 q 393 43 393 12 q 393 -6 398 -10 q 403 -14 410 -10 q 417 -6 425 5 q 433 16 439 28 q 481 94 527 166 q 573 237 623 310 q 672 383 724 456 q 775 528 827 594 q 879 661 931 719 q 983 778 1032 824 q 1082 871 1129 903 q 1176 935 1219 948 l 1218 948 q 1229 949 1240 946 q 1251 942 1260 936 q 1269 930 1275 922 q 1281 914 1281 907 q 1281 903 1277 900 q 1273 897 1264 896 q 1216 893 1162 864 q 1108 835 1051 786 q 994 738 935 674 q 877 609 819 537 q 761 465 706 388 q 651 311 601 238 q 551 164 508 97 q 466 30 433 -23 q 428 -30 425 -36 q 422 -43 418 -47 q 413 -52 407 -54 q 401 -57 390 -56 q 366 -54 350 -32 q 334 -9 334 31 q 334 54 338 87 q 342 120 352 162 q 363 204 382 256 q 401 307 431 368 q 408 344 379 313 q 349 282 319 246 q 289 210 260 171 q 231 132 206 93 q 182 54 166 16 q 149 -21 144 -54 q 139 -68 132 -77 q 125 -85 118 -84 q 106 -83 95 -76 q 84 -69 75 -58 q 67 -46 61 -29 q 56 -12 56 9 q 56 53 68 101 q 79 148 98 196 q 117 244 143 292 q 168 341 197 388 q 226 435 256 480 q 286 525 314 566 q 336 598 356 628 q 376 657 390 682 q 405 707 414 727 q 422 748 422 763 q 422 786 411 798 q 400 809 382 811 q 359 813 329 794 q 298 775 264 742 q 229 709 195 664 q 161 620 132 570 q 103 520 83 468 q 63 415 56 366 q 56 361 54 359 q 52 357 51 357 q 46 357 39 363 q 32 368 26 378 q 19 387 14 398 q 8 410 6 422 q 10 442 21 469 q 32 497 49 529 q 66 562 89 596 q 111 631 138 665 q 164 698 194 729 q 224 759 256 782 q 288 806 322 821 q 356 836 390 838 q 405 839 422 835 q 438 832 452 823 q 466 815 475 802 q 484 789 484 771 q 484 761 482 750 q 481 739 476 725 q 465 694 448 660 q 431 626 410 591 q 389 555 366 519 q 343 483 321 449 q 300 417 275 378 q 249 339 224 296 q 199 252 176 207 q 153 161 137 117 q 121 73 114 32 q 107 -9 114 -44 q 138 21 175 82 q 212 143 254 198 q 296 252 340 298 q 384 344 422 379 q 460 414 489 437 q 517 460 529 468 z"},"A":{"x_min":0,"x_max":898,"ha":898,"o":"m 974 712 q 997 733 1018 752 q 1038 771 1054 786 q 1071 801 1084 812 q 1096 823 1104 829 l 1106 831 q 1113 835 1129 840 q 1144 846 1159 850 q 1174 854 1186 857 q 1197 860 1198 859 q 1127 768 1065 677 q 1003 586 951 499 q 898 412 857 331 q 816 251 787 182 q 758 113 743 58 q 728 4 728 -31 q 728 -61 738 -78 q 739 -81 736 -82 q 733 -84 728 -84 q 723 -85 718 -85 q 713 -85 711 -84 q 708 -83 701 -79 q 694 -74 687 -64 q 681 -53 676 -37 q 671 -21 672 4 q 673 51 688 106 q 703 162 726 221 q 730 231 731 241 q 733 251 733 261 q 733 297 712 329 q 692 362 644 383 q 591 334 536 287 q 481 239 427 195 q 374 152 324 115 q 274 78 231 51 q 187 24 152 10 q 117 -5 94 -4 q 79 -3 64 2 q 50 7 38 18 q 27 28 19 44 q 12 60 12 82 q 12 106 26 140 q 41 174 69 212 q 97 249 140 286 q 183 323 241 352 q 298 382 369 401 q 441 421 526 422 q 560 422 588 418 q 615 414 639 406 q 674 437 711 470 q 747 503 788 540 q 828 577 874 620 q 921 662 974 712 z m 114 27 q 134 29 166 44 q 197 58 235 83 q 274 108 319 142 q 365 176 414 216 q 464 256 516 300 q 569 344 621 390 q 575 401 529 401 q 438 400 368 381 q 297 361 244 331 q 192 301 156 264 q 119 227 97 192 q 75 157 65 127 q 56 98 56 82 q 57 46 71 35 q 86 24 114 27 z m 659 397 q 682 386 698 370 q 713 355 723 338 q 733 321 739 303 q 744 286 747 269 q 768 313 794 361 q 821 408 849 455 q 877 502 906 548 q 935 594 962 635 q 990 677 1014 712 q 1039 747 1058 774 q 1014 732 967 686 q 919 639 869 592 q 818 544 765 495 q 712 446 659 397 z"},"f":{"x_min":0,"x_max":227,"ha":227,"o":"m 279 231 q 261 202 244 172 q 226 143 203 118 q 181 93 150 76 q 119 58 75 51 q 33 45 12 73 l -144 -194 q -147 -197 -158 -199 q -169 -200 -181 -200 q -193 -199 -202 -198 q -211 -196 -209 -192 q -200 -176 -184 -149 q -168 -122 -148 -87 q -128 -53 -104 -13 q -81 27 -57 69 q -32 111 -8 152 q 16 194 38 232 q 88 318 123 379 q 158 439 180 477 q 202 516 212 534 q 223 552 224 555 q 231 566 241 575 q 251 584 261 591 q 272 597 284 600 q 295 602 305 599 q 316 595 321 587 q 327 578 329 568 q 331 557 330 545 q 329 533 326 523 q 318 496 302 465 q 285 433 262 399 q 239 366 212 331 q 186 296 158 263 q 131 229 104 199 q 78 168 56 144 q 49 134 44 121 q 39 108 39 96 q 40 85 48 78 q 56 70 75 71 q 111 73 139 88 q 167 104 191 128 q 214 152 233 181 q 252 211 270 241 q 276 246 279 241 q 283 237 279 231 z m 184 376 q 157 328 138 295 q 119 262 107 241 q 94 220 88 209 q 81 197 78 192 l 74 187 l 121 242 q 153 280 185 319 q 217 359 243 397 q 269 436 288 471 q 307 507 313 537 q 314 544 313 549 q 311 554 306 555 q 302 556 294 551 q 287 547 277 534 q 276 533 276 532 q 275 532 272 528 q 269 523 264 514 q 259 505 249 488 q 239 470 223 443 q 207 416 184 376 z"},"Q":{"x_min":0,"x_max":712,"ha":712,"o":"m 79 -100 q 84 -98 94 -95 q 105 -92 118 -90 q 131 -87 146 -86 q 161 -84 174 -84 q 136 -82 104 -68 q 72 -55 50 -32 q 27 -10 15 21 q 3 52 3 91 q 3 167 24 234 q 44 302 78 360 q 111 418 153 466 q 196 514 239 553 q 267 609 311 661 q 356 713 412 754 q 468 794 535 818 q 601 843 673 844 q 711 844 739 831 q 768 818 788 794 q 807 771 817 738 q 827 705 827 668 q 827 619 814 562 q 800 506 775 445 q 751 384 715 323 q 679 262 635 204 q 591 147 540 96 q 488 46 431 7 q 374 -32 313 -56 q 251 -79 187 -84 q 216 -92 249 -106 q 282 -121 316 -136 q 351 -151 385 -162 q 420 -173 452 -173 q 466 -173 481 -171 q 494 -177 495 -188 q 496 -199 488 -209 q 481 -219 465 -227 q 449 -234 429 -232 q 398 -232 372 -223 q 347 -213 324 -200 q 301 -186 279 -170 q 257 -154 235 -141 q 213 -127 188 -118 q 164 -109 135 -109 q 119 -109 99 -113 q 80 -118 61 -124 q 49 -128 46 -126 q 43 -123 47 -119 q 50 -114 59 -108 q 68 -103 79 -100 z m 284 47 q 289 44 293 41 q 296 38 296 37 q 296 33 276 44 l 277 43 q 251 62 232 88 q 212 115 199 147 q 187 179 180 216 q 174 253 174 292 q 174 302 174 312 q 175 322 177 336 q 178 349 181 369 q 183 388 187 416 q 164 385 142 344 q 119 303 101 260 q 83 216 71 172 q 59 128 58 91 q 57 63 66 38 q 75 12 92 -8 q 110 -27 136 -39 q 161 -51 194 -51 q 238 -47 287 -22 q 335 2 384 42 q 433 82 481 134 q 529 186 573 244 q 617 302 654 364 q 691 426 718 486 q 744 546 760 600 q 775 654 775 698 q 775 754 749 788 q 723 821 664 822 q 618 824 567 805 q 516 787 467 756 q 417 725 372 685 q 328 645 294 604 q 329 625 354 640 q 380 654 398 664 q 415 674 426 679 q 437 684 442 686 q 449 686 460 685 q 471 684 483 682 q 495 679 506 676 q 517 673 525 670 q 533 667 536 664 q 538 661 534 659 q 502 644 462 622 q 423 600 382 571 q 340 542 299 506 q 257 471 220 431 q 209 394 203 358 q 197 322 197 284 q 197 218 218 159 q 238 99 284 49 z"},"w":{"x_min":0,"x_max":541,"ha":541,"o":"m 418 354 q 403 326 386 299 q 368 272 351 244 q 333 217 315 189 q 298 162 282 132 q 271 113 262 94 q 252 75 247 59 q 241 43 241 32 q 242 21 250 19 q 260 14 279 26 q 298 38 321 59 q 343 81 367 107 q 390 133 408 156 q 402 171 404 193 q 406 215 414 239 q 421 263 433 287 q 446 311 460 329 q 475 348 492 360 q 509 372 526 371 q 532 371 539 370 q 547 369 553 366 q 559 363 564 358 q 568 353 568 345 q 567 327 556 304 q 545 282 526 256 q 508 229 484 201 q 459 173 433 144 q 443 139 452 138 q 461 137 469 137 q 488 137 505 147 q 522 157 536 172 q 550 187 561 205 q 573 223 582 239 q 587 245 592 242 q 598 239 595 231 q 585 215 572 196 q 560 178 544 162 q 529 146 511 135 q 492 124 470 124 q 459 123 448 124 q 436 126 424 134 q 394 104 377 87 q 360 71 349 61 q 317 32 288 14 q 260 -4 241 -3 q 223 -1 213 5 q 202 12 198 21 q 193 31 193 43 q 193 55 196 69 q 185 61 171 48 q 156 35 140 24 q 124 12 108 4 q 91 -4 76 -3 q 56 -1 45 7 q 33 14 29 26 q 26 38 28 54 q 29 69 36 88 q 48 121 65 151 q 81 182 99 211 q 116 240 134 269 q 152 298 168 328 q 172 335 172 338 q 172 342 171 343 q 166 350 156 346 q 146 341 133 329 q 120 317 106 299 q 91 282 78 265 q 65 247 54 232 q 44 217 39 208 q 33 203 29 207 q 25 212 29 217 q 43 239 59 266 q 76 292 94 314 q 113 337 134 353 q 155 368 178 369 q 187 369 197 366 q 208 362 216 356 q 224 350 228 341 q 232 332 228 321 q 218 297 205 273 q 191 250 176 227 q 161 204 145 180 q 129 157 116 132 q 106 113 96 94 q 87 75 82 59 q 77 43 78 32 q 78 21 86 19 q 93 17 104 22 q 116 27 129 37 q 142 47 158 61 q 173 75 189 93 q 195 100 202 108 q 208 115 215 123 q 228 153 245 182 q 262 210 280 238 q 298 267 317 296 q 336 325 354 356 q 356 359 366 360 q 377 362 389 361 q 401 361 410 359 q 419 357 418 354 z m 432 187 q 463 228 488 267 q 513 307 527 336 q 532 344 530 349 q 527 354 521 354 q 508 354 495 343 q 482 333 470 316 q 458 298 448 278 q 438 257 431 236 q 424 216 420 198 q 417 179 418 169 z"},"E":{"x_min":0,"x_max":571,"ha":571,"o":"m 13 12 q 10 20 9 28 q 8 35 8 44 q 8 91 31 128 q 55 164 91 192 q 128 221 171 240 q 214 259 254 270 q 223 302 209 342 q 196 382 196 426 q 196 473 212 521 q 228 570 257 616 q 286 661 327 701 q 367 741 417 771 q 466 801 523 818 q 580 835 641 835 q 679 835 708 823 q 736 812 754 793 q 772 774 781 750 q 789 727 787 703 q 784 658 766 621 q 749 583 727 554 q 704 525 683 506 q 662 488 652 481 q 647 478 637 475 q 627 472 614 470 q 602 468 588 467 q 574 466 561 466 q 547 466 539 468 q 530 469 533 472 q 539 477 544 481 q 549 485 554 488 q 576 503 603 524 q 631 544 656 571 q 682 598 701 631 q 721 664 726 703 q 730 728 722 747 q 713 766 701 778 q 688 789 674 795 q 660 801 652 801 q 603 802 555 786 q 506 771 462 744 q 418 716 380 679 q 342 642 314 598 q 286 555 270 507 q 254 459 254 411 q 254 379 262 348 q 270 316 288 284 q 312 288 333 292 q 351 294 369 298 q 387 301 397 302 q 395 297 391 291 q 386 285 381 280 q 376 275 371 272 q 366 268 362 269 q 340 269 309 262 q 278 256 244 242 q 211 229 179 209 q 146 190 120 165 q 94 140 78 110 q 62 80 62 46 q 62 36 64 26 l 64 27 q 67 14 76 0 q 84 -14 99 -25 q 114 -36 136 -42 q 158 -48 188 -46 q 214 -44 244 -38 q 275 -31 310 -16 q 346 -2 386 23 q 426 48 471 88 q 516 127 566 182 q 617 237 673 312 q 674 316 678 317 q 681 318 682 317 q 684 316 684 312 q 683 308 679 301 q 659 274 630 235 q 601 196 563 154 q 526 112 481 70 q 436 28 384 -4 q 332 -37 274 -57 q 215 -77 151 -75 q 131 -74 109 -69 q 87 -64 68 -54 q 49 -44 34 -28 q 19 -12 12 11 z"},"s":{"x_min":0,"x_max":217,"ha":217,"o":"m 197 371 q 197 366 192 362 q 188 358 180 354 q 173 351 164 349 q 154 346 146 343 q 145 306 147 264 q 149 223 147 182 q 144 140 134 100 q 123 61 96 26 q 111 36 121 46 q 175 95 261 241 q 268 246 271 241 q 275 237 271 231 q 256 207 236 174 q 216 142 193 110 q 170 78 145 51 q 119 23 94 8 q 71 -6 47 -10 q 23 -14 -4 -16 q -26 -17 -42 -10 q -59 -4 -70 7 q -82 18 -88 32 q -93 47 -93 61 q -93 77 -88 91 q -83 105 -74 116 q -64 127 -51 134 q -37 141 -18 143 q -6 143 4 139 q 13 136 20 129 q 26 123 28 116 q 30 108 26 102 q 24 100 21 101 q 18 103 13 105 q 8 108 1 111 q -6 113 -14 114 q -25 116 -37 112 q -48 108 -58 101 q -67 94 -74 84 q -80 73 -80 61 q -80 47 -73 37 q -66 28 -56 22 q -46 17 -35 14 q -23 12 -14 12 q -2 12 11 19 q 24 26 35 36 q 46 46 54 58 q 63 71 66 82 q 73 104 78 129 q 82 154 84 180 q 86 206 87 231 q 87 256 87 279 q 77 266 65 248 q 53 230 39 208 q 36 206 33 206 q 31 207 29 210 q 28 212 28 215 q 28 218 31 221 q 42 241 56 262 q 71 283 87 306 l 87 319 q 87 335 94 352 q 101 368 111 381 q 122 394 137 401 q 151 408 168 406 q 174 405 180 401 q 186 397 189 392 q 193 387 195 381 q 197 376 197 371 z"},"l":{"x_min":0,"x_max":223,"ha":223,"o":"m 271 533 q 267 525 252 499 q 237 474 215 437 q 194 400 168 355 q 142 309 116 263 q 142 287 167 315 q 192 343 216 374 q 240 404 261 438 q 282 471 299 506 q 304 518 307 531 q 309 544 306 551 q 304 558 296 556 q 288 553 273 534 q 272 534 272 534 q 272 533 272 533 z m 82 9 q 64 2 45 -1 q 26 -3 10 1 q -7 4 -19 16 q -31 27 -36 47 q -40 67 -35 92 q -30 116 -18 139 q -14 145 -3 166 q 8 186 25 216 q 42 245 62 281 q 82 317 103 353 q 124 389 144 424 q 164 459 181 487 q 197 515 208 533 q 219 552 221 555 q 227 567 237 576 q 246 586 257 592 q 268 598 279 600 q 291 602 301 599 q 321 592 326 576 q 331 559 328 539 q 326 519 317 499 q 308 479 299 466 q 276 428 254 396 q 232 363 208 335 q 183 306 156 281 q 129 256 98 232 q 84 208 75 192 q 66 177 61 167 q 56 157 53 152 q 50 147 48 144 q 47 141 46 138 q 44 136 42 132 q 30 111 19 90 q 8 68 7 51 q 6 34 12 27 q 19 19 30 17 q 41 15 54 18 q 67 21 78 26 q 90 31 106 41 q 122 51 140 68 q 158 84 178 109 q 198 133 219 166 q 231 182 242 200 q 253 218 266 241 q 272 246 276 241 q 280 237 276 231 q 266 214 255 195 q 243 176 230 156 q 216 132 198 109 q 181 87 161 67 q 142 47 122 32 q 102 17 82 9 z"}}}
